{"glyphs":{"0":{"ha":833,"x_min":60,"x_max":774,"o":"m 417 -14 q 151 117 243 -14 q 60 492 60 249 q 151 865 60 738 q 417 993 243 993 q 683 865 592 993 q 774 493 774 738 q 682 117 774 249 q 417 -14 590 -14 m 417 132 q 556 219 511 132 q 601 493 601 306 q 556 763 601 679 q 417 847 511 847 q 278 763 324 847 q 232 493 232 679 q 278 219 232 306 q 417 132 324 132 z "},"1":{"ha":833,"x_min":132,"x_max":757,"o":"m 151 0 l 151 147 l 372 147 l 372 776 l 201 674 l 132 804 l 424 979 l 550 979 l 550 147 l 757 147 l 757 0 l 151 0 z "},"2":{"ha":833,"x_min":71,"x_max":761,"o":"m 111 0 l 111 132 l 428 469 q 519 592 492 539 q 547 701 547 646 q 376 843 547 843 q 131 743 243 843 l 71 876 q 217 961 129 929 q 399 993 304 993 q 640 922 556 993 q 724 719 724 851 q 681 549 724 631 q 549 372 639 467 l 333 147 l 761 147 l 761 0 l 111 0 z "},"3":{"ha":833,"x_min":56,"x_max":751,"o":"m 397 -14 q 206 16 297 -14 q 56 97 115 46 l 114 233 q 392 136 239 136 q 579 283 579 136 q 533 387 579 353 q 397 421 486 421 l 240 421 l 240 568 l 381 568 q 504 606 458 568 q 550 713 550 644 q 508 810 550 776 q 385 843 465 843 q 131 743 240 843 l 72 876 q 218 963 131 932 q 400 993 306 993 q 638 924 553 993 q 722 733 722 856 q 682 594 722 654 q 572 508 642 535 q 704 422 657 485 q 751 268 751 358 q 657 62 751 138 q 397 -14 563 -14 z "},"4":{"ha":833,"x_min":58,"x_max":800,"o":"m 485 0 l 485 186 l 58 186 l 58 317 l 515 979 l 663 979 l 663 333 l 800 333 l 800 186 l 663 186 l 663 0 l 485 0 m 485 333 l 485 707 l 229 333 l 485 333 z "},"5":{"ha":833,"x_min":92,"x_max":781,"o":"m 425 -14 q 239 16 329 -14 q 92 97 149 46 l 150 233 q 422 136 276 136 q 559 181 510 136 q 608 303 608 226 q 561 428 608 381 q 432 476 514 476 q 239 383 315 476 l 119 383 l 119 979 l 721 979 l 721 832 l 293 832 l 293 567 q 474 622 367 622 q 635 583 567 622 q 742 473 704 543 q 781 310 781 403 q 738 141 781 214 q 615 27 694 68 q 425 -14 535 -14 z "},"6":{"ha":833,"x_min":72,"x_max":778,"o":"m 453 -14 q 172 114 271 -14 q 72 472 72 242 q 184 857 72 721 q 493 993 296 993 q 647 965 571 993 q 778 883 724 936 l 719 750 q 610 820 668 797 q 490 843 551 843 q 306 758 369 843 q 242 506 242 674 l 242 465 q 336 585 271 542 q 486 628 401 628 q 636 588 571 628 q 739 476 701 547 q 776 314 776 406 q 735 145 776 219 q 622 28 694 71 q 453 -14 549 -14 m 443 128 q 565 177 518 128 q 611 307 611 226 q 565 438 611 388 q 443 488 518 488 q 322 438 368 488 q 275 307 275 388 q 322 177 275 226 q 443 128 368 128 z "},"7":{"ha":833,"x_min":76,"x_max":758,"o":"m 119 0 l 561 831 l 76 831 l 76 979 l 758 979 l 758 846 l 315 0 l 119 0 z "},"8":{"ha":833,"x_min":53,"x_max":781,"o":"m 417 -14 q 149 60 246 -14 q 53 264 53 133 q 99 415 53 353 q 221 503 146 478 q 116 592 154 532 q 78 729 78 651 q 169 923 78 853 q 417 993 261 993 q 665 923 574 993 q 757 729 757 853 q 719 591 757 651 q 615 503 681 531 q 735 415 690 478 q 781 264 781 351 q 684 60 781 133 q 417 -14 588 -14 m 417 565 q 545 604 499 565 q 592 711 592 643 q 545 816 592 778 q 417 854 499 854 q 289 816 335 854 q 243 711 243 778 q 289 604 243 643 q 417 565 335 565 m 417 125 q 615 276 615 125 q 417 426 615 426 q 269 389 319 426 q 218 276 218 351 q 269 163 218 201 q 417 125 319 125 z "},"9":{"ha":833,"x_min":56,"x_max":761,"o":"m 342 -14 q 188 16 264 -14 q 56 97 111 46 l 115 231 q 224 160 165 183 q 343 136 283 136 q 529 221 465 136 q 593 474 593 306 l 593 515 q 500 395 565 439 q 347 351 435 351 q 199 392 264 351 q 95 503 133 432 q 57 665 57 575 q 99 835 57 761 q 213 951 140 908 q 381 993 286 993 q 663 866 564 993 q 761 507 761 739 q 650 123 761 260 q 342 -14 539 -14 m 392 493 q 513 542 467 493 q 560 672 560 592 q 513 803 560 753 q 392 853 467 853 q 270 803 317 853 q 224 672 224 753 q 270 542 224 592 q 392 493 317 493 z "},"A":{"ha":1033,"x_min":1,"x_max":1033,"o":"m 1 0 l 444 979 l 590 979 l 1033 0 l 853 0 l 756 226 l 278 226 l 182 0 l 1 0 m 515 786 l 339 368 l 694 368 l 518 786 l 515 786 z "},"Á":{"ha":1033,"x_min":1,"x_max":1033,"o":"m 1 0 l 444 979 l 590 979 l 1033 0 l 853 0 l 756 226 l 278 226 l 182 0 l 1 0 m 515 786 l 339 368 l 694 368 l 518 786 l 515 786 m 457 1063 l 621 1304 l 801 1304 l 581 1063 l 457 1063 z "},"Ă":{"ha":1033,"x_min":1,"x_max":1033,"o":"m 1 0 l 444 979 l 590 979 l 1033 0 l 853 0 l 756 226 l 278 226 l 182 0 l 1 0 m 515 786 l 339 368 l 694 368 l 518 786 l 515 786 m 518 1056 q 342 1119 411 1056 q 265 1292 272 1183 l 364 1304 q 410 1198 371 1236 q 518 1160 450 1160 q 626 1198 585 1160 q 674 1304 668 1236 l 772 1292 q 695 1119 764 1183 q 518 1056 626 1056 z "},"Ắ":{"ha":1033,"x_min":1,"x_max":1033,"o":"m 1 0 l 444 979 l 590 979 l 1033 0 l 853 0 l 756 226 l 278 226 l 182 0 l 1 0 m 515 786 l 339 368 l 694 368 l 518 786 l 515 786 m 456 1232 l 557 1417 l 724 1417 l 564 1232 l 456 1232 m 518 1056 q 353 1113 417 1056 q 281 1269 290 1171 l 365 1278 q 415 1186 376 1219 q 518 1153 453 1153 q 622 1186 585 1153 q 671 1278 660 1219 l 756 1269 q 684 1113 747 1171 q 518 1056 621 1056 z "},"Ặ":{"ha":1033,"x_min":1,"x_max":1033,"o":"m 1 0 l 444 979 l 590 979 l 1033 0 l 853 0 l 756 226 l 278 226 l 182 0 l 1 0 m 515 786 l 339 368 l 694 368 l 518 786 l 515 786 m 433 -283 l 433 -122 l 603 -122 l 603 -283 l 433 -283 m 518 1056 q 342 1119 411 1056 q 265 1292 272 1183 l 364 1304 q 410 1198 371 1236 q 518 1160 450 1160 q 626 1198 585 1160 q 674 1304 668 1236 l 772 1292 q 695 1119 764 1183 q 518 1056 626 1056 z "},"Ằ":{"ha":1033,"x_min":1,"x_max":1033,"o":"m 1 0 l 444 979 l 590 979 l 1033 0 l 853 0 l 756 226 l 278 226 l 182 0 l 1 0 m 515 786 l 339 368 l 694 368 l 518 786 l 515 786 m 472 1232 l 314 1417 l 479 1417 l 581 1232 l 472 1232 m 518 1056 q 353 1113 417 1056 q 281 1269 290 1171 l 365 1278 q 415 1186 376 1219 q 518 1153 453 1153 q 622 1186 585 1153 q 671 1278 660 1219 l 756 1269 q 684 1113 747 1171 q 518 1056 621 1056 z "},"Ẳ":{"ha":1033,"x_min":1,"x_max":1033,"o":"m 1 0 l 444 979 l 590 979 l 1033 0 l 853 0 l 756 226 l 278 226 l 182 0 l 1 0 m 515 786 l 339 368 l 694 368 l 518 786 l 515 786 m 471 1232 q 488 1280 471 1265 q 523 1306 506 1294 q 540 1336 540 1317 q 527 1353 540 1349 q 492 1358 514 1358 q 452 1355 472 1358 q 411 1343 432 1351 l 389 1408 q 449 1427 417 1421 q 525 1433 481 1433 q 622 1415 588 1433 q 656 1363 656 1396 q 642 1321 656 1336 q 611 1294 629 1306 q 580 1269 593 1282 q 567 1232 567 1256 l 471 1232 m 518 1056 q 353 1113 417 1056 q 281 1269 290 1171 l 365 1278 q 415 1186 376 1219 q 518 1153 453 1153 q 622 1186 585 1153 q 671 1278 660 1219 l 756 1269 q 684 1114 747 1172 q 518 1056 621 1056 z "},"Ẵ":{"ha":1033,"x_min":1,"x_max":1033,"o":"m 1 0 l 444 979 l 590 979 l 1033 0 l 853 0 l 756 226 l 278 226 l 182 0 l 1 0 m 515 786 l 339 368 l 694 368 l 518 786 l 515 786 m 360 1279 l 279 1283 q 326 1396 285 1358 q 426 1433 367 1433 q 476 1425 451 1433 q 532 1399 500 1417 q 606 1372 581 1372 q 676 1435 664 1372 l 757 1431 q 713 1318 753 1356 q 611 1281 672 1281 q 560 1290 585 1281 q 504 1315 535 1299 q 460 1336 475 1331 q 432 1342 444 1342 q 383 1326 400 1342 q 360 1279 367 1311 m 518 1056 q 364 1099 428 1056 q 281 1214 300 1142 l 365 1236 q 420 1175 382 1197 q 518 1153 458 1153 q 617 1175 579 1153 q 671 1236 654 1197 l 756 1214 q 674 1099 738 1142 q 518 1056 610 1056 z "},"Ǎ":{"ha":1033,"x_min":1,"x_max":1033,"o":"m 1 0 l 444 979 l 590 979 l 1033 0 l 853 0 l 756 226 l 278 226 l 182 0 l 1 0 m 515 786 l 339 368 l 694 368 l 518 786 l 515 786 m 443 1063 l 271 1304 l 393 1304 l 518 1160 l 643 1304 l 765 1304 l 593 1063 l 443 1063 z "},"Â":{"ha":1033,"x_min":1,"x_max":1033,"o":"m 1 0 l 444 979 l 590 979 l 1033 0 l 853 0 l 756 226 l 278 226 l 182 0 l 1 0 m 515 786 l 339 368 l 694 368 l 518 786 l 515 786 m 271 1063 l 443 1304 l 593 1304 l 765 1063 l 643 1063 l 518 1207 l 393 1063 l 271 1063 z "},"Ấ":{"ha":1033,"x_min":1,"x_max":1033,"o":"m 1 0 l 444 979 l 590 979 l 1033 0 l 853 0 l 756 226 l 278 226 l 182 0 l 1 0 m 515 786 l 339 368 l 694 368 l 518 786 l 515 786 m 669 1211 l 786 1419 l 931 1419 l 768 1211 l 669 1211 m 289 1063 l 442 1289 l 594 1289 l 747 1063 l 636 1063 l 518 1194 l 400 1063 l 289 1063 z "},"Ậ":{"ha":1033,"x_min":1,"x_max":1033,"o":"m 1 0 l 444 979 l 590 979 l 1033 0 l 853 0 l 756 226 l 278 226 l 182 0 l 1 0 m 515 786 l 339 368 l 694 368 l 518 786 l 515 786 m 433 -283 l 433 -122 l 603 -122 l 603 -283 l 433 -283 m 271 1063 l 443 1304 l 593 1304 l 765 1063 l 643 1063 l 518 1207 l 393 1063 l 271 1063 z "},"Ầ":{"ha":1033,"x_min":1,"x_max":1033,"o":"m 1 0 l 444 979 l 590 979 l 1033 0 l 853 0 l 756 226 l 278 226 l 182 0 l 1 0 m 515 786 l 339 368 l 694 368 l 518 786 l 515 786 m 724 1211 l 561 1419 l 707 1419 l 824 1211 l 724 1211 m 289 1063 l 442 1289 l 594 1289 l 747 1063 l 636 1063 l 518 1194 l 400 1063 l 289 1063 z "},"Ẩ":{"ha":1033,"x_min":1,"x_max":1033,"o":"m 1 0 l 444 979 l 590 979 l 1033 0 l 853 0 l 756 226 l 278 226 l 182 0 l 1 0 m 515 786 l 339 368 l 694 368 l 518 786 l 515 786 m 672 1211 q 690 1263 672 1244 q 724 1294 707 1281 q 742 1326 742 1308 q 728 1345 742 1340 q 693 1350 715 1350 q 653 1347 674 1350 q 613 1333 633 1343 l 590 1399 q 650 1418 618 1411 q 726 1425 682 1425 q 823 1406 789 1425 q 857 1354 857 1386 q 844 1311 857 1328 q 813 1281 831 1294 q 781 1251 794 1267 q 768 1211 768 1235 l 672 1211 m 289 1063 l 442 1289 l 594 1289 l 747 1063 l 636 1063 l 518 1194 l 400 1063 l 289 1063 z "},"Ẫ":{"ha":1033,"x_min":1,"x_max":1033,"o":"m 1 0 l 444 979 l 590 979 l 1033 0 l 853 0 l 756 226 l 278 226 l 182 0 l 1 0 m 515 786 l 339 368 l 694 368 l 518 786 l 515 786 m 360 1282 l 279 1286 q 326 1399 285 1361 q 426 1436 367 1436 q 476 1428 451 1436 q 532 1401 500 1419 q 606 1375 581 1375 q 676 1438 664 1375 l 757 1433 q 713 1321 753 1358 q 611 1283 672 1283 q 560 1292 585 1283 q 504 1318 535 1301 q 460 1339 475 1333 q 432 1344 444 1344 q 383 1329 400 1344 q 360 1282 367 1314 m 289 1063 l 442 1249 l 594 1249 l 747 1063 l 642 1063 l 518 1163 l 397 1063 l 289 1063 z "},"Ȁ":{"ha":1033,"x_min":1,"x_max":1033,"o":"m 1 0 l 444 979 l 590 979 l 1033 0 l 853 0 l 756 226 l 278 226 l 182 0 l 1 0 m 515 786 l 339 368 l 694 368 l 518 786 l 515 786 m 571 1063 l 396 1304 l 551 1304 l 669 1063 l 571 1063 m 368 1063 l 179 1304 l 335 1304 l 465 1063 l 368 1063 z "},"Ä":{"ha":1033,"x_min":1,"x_max":1033,"o":"m 1 0 l 444 979 l 590 979 l 1033 0 l 853 0 l 756 226 l 278 226 l 182 0 l 1 0 m 515 786 l 339 368 l 694 368 l 518 786 l 515 786 m 568 1097 l 568 1257 l 729 1257 l 729 1097 l 568 1097 m 307 1097 l 307 1257 l 468 1257 l 468 1097 l 307 1097 z "},"Ȧ":{"ha":1033,"x_min":1,"x_max":1033,"o":"m 1 0 l 444 979 l 590 979 l 1033 0 l 853 0 l 756 226 l 278 226 l 182 0 l 1 0 m 515 786 l 339 368 l 694 368 l 518 786 l 515 786 m 433 1103 l 433 1264 l 603 1264 l 603 1103 l 433 1103 z "},"Ạ":{"ha":1033,"x_min":1,"x_max":1033,"o":"m 1 0 l 444 979 l 590 979 l 1033 0 l 853 0 l 756 226 l 278 226 l 182 0 l 1 0 m 515 786 l 339 368 l 694 368 l 518 786 l 515 786 m 433 -283 l 433 -122 l 603 -122 l 603 -283 l 433 -283 z "},"À":{"ha":1033,"x_min":1,"x_max":1033,"o":"m 1 0 l 444 979 l 590 979 l 1033 0 l 853 0 l 756 226 l 278 226 l 182 0 l 1 0 m 515 786 l 339 368 l 694 368 l 518 786 l 515 786 m 457 1063 l 235 1304 l 417 1304 l 581 1063 l 457 1063 z "},"Ả":{"ha":1033,"x_min":1,"x_max":1033,"o":"m 1 0 l 444 979 l 590 979 l 1033 0 l 853 0 l 756 226 l 278 226 l 182 0 l 1 0 m 515 786 l 339 368 l 694 368 l 518 786 l 515 786 m 465 1063 l 465 1088 q 485 1138 465 1121 q 524 1169 504 1156 q 543 1201 543 1183 q 488 1229 543 1229 q 404 1211 446 1229 l 378 1285 q 529 1314 436 1314 q 636 1290 597 1314 q 675 1226 675 1267 q 660 1178 675 1196 q 624 1147 644 1160 q 588 1119 603 1133 q 572 1079 572 1104 l 572 1063 l 465 1063 z "},"Ȃ":{"ha":1033,"x_min":1,"x_max":1033,"o":"m 1 0 l 444 979 l 590 979 l 1033 0 l 853 0 l 756 226 l 278 226 l 182 0 l 1 0 m 515 786 l 339 368 l 694 368 l 518 786 l 515 786 m 364 1056 l 265 1068 q 342 1241 272 1178 q 518 1304 411 1304 q 695 1241 626 1304 q 772 1068 764 1178 l 674 1056 q 626 1163 668 1125 q 518 1201 585 1201 q 410 1163 450 1201 q 364 1056 371 1125 z "},"Ā":{"ha":1033,"x_min":1,"x_max":1033,"o":"m 1 0 l 444 979 l 590 979 l 1033 0 l 853 0 l 756 226 l 278 226 l 182 0 l 1 0 m 515 786 l 339 368 l 694 368 l 518 786 l 515 786 m 279 1119 l 279 1222 l 758 1222 l 758 1119 l 279 1119 z "},"Ą":{"ha":1033,"x_min":1,"x_max":1068,"o":"m 1 0 l 444 979 l 590 979 l 1033 0 l 853 0 l 756 226 l 278 226 l 182 0 l 1 0 m 515 786 l 339 368 l 694 368 l 518 786 l 515 786 m 949 -271 q 828 -232 872 -271 q 785 -126 785 -193 q 824 -18 785 -68 q 926 58 863 32 l 978 0 q 919 -42 943 -14 q 894 -107 894 -71 q 917 -160 894 -142 q 972 -178 939 -178 q 1010 -174 992 -178 q 1047 -162 1028 -169 l 1068 -247 q 949 -271 1017 -271 z "},"Å":{"ha":1033,"x_min":1,"x_max":1033,"o":"m 1 0 l 444 979 l 590 979 l 1033 0 l 853 0 l 756 226 l 278 226 l 182 0 l 1 0 m 515 786 l 339 368 l 694 368 l 518 786 l 515 786 m 518 1049 q 429 1072 469 1049 q 366 1133 389 1094 q 343 1219 343 1172 q 394 1340 343 1292 q 518 1389 444 1389 q 642 1340 592 1389 q 693 1219 693 1292 q 670 1133 693 1172 q 608 1072 647 1094 q 518 1049 568 1049 m 518 1128 q 583 1154 558 1128 q 608 1219 608 1181 q 583 1284 608 1258 q 518 1310 558 1310 q 453 1284 479 1310 q 428 1219 428 1258 q 453 1154 428 1181 q 518 1128 479 1128 z "},"Ǻ":{"ha":1033,"x_min":1,"x_max":1033,"o":"m 1 0 l 444 979 l 590 979 l 1033 0 l 853 0 l 756 226 l 278 226 l 182 0 l 1 0 m 515 786 l 339 368 l 694 368 l 518 786 l 515 786 m 518 1049 q 399 1097 447 1049 q 350 1213 350 1144 q 399 1328 350 1282 q 518 1375 447 1375 q 607 1351 567 1375 l 697 1435 l 836 1435 l 667 1289 q 686 1213 686 1254 q 638 1097 686 1144 q 518 1049 589 1049 m 518 1121 q 583 1147 558 1121 q 608 1213 608 1174 q 583 1277 608 1251 q 518 1303 558 1303 q 453 1277 479 1303 q 428 1213 428 1251 q 453 1147 428 1174 q 518 1121 479 1121 z "},"Ã":{"ha":1033,"x_min":1,"x_max":1033,"o":"m 1 0 l 444 979 l 590 979 l 1033 0 l 853 0 l 756 226 l 278 226 l 182 0 l 1 0 m 515 786 l 339 368 l 694 368 l 518 786 l 515 786 m 294 1072 l 208 1078 q 267 1230 217 1176 q 394 1283 318 1283 q 463 1271 429 1283 q 539 1233 496 1258 q 606 1199 583 1207 q 646 1192 628 1192 q 742 1289 725 1192 l 828 1283 q 770 1131 821 1185 q 643 1078 719 1078 q 572 1092 608 1078 q 496 1129 536 1106 q 433 1161 457 1153 q 390 1169 410 1169 q 294 1072 314 1169 z "},"Æ":{"ha":1378,"x_min":-50,"x_max":1307,"o":"m -50 0 l 558 979 l 1307 979 l 1307 838 l 750 838 l 808 568 l 1278 568 l 1278 426 l 840 426 l 901 142 l 1307 142 l 1307 0 l 772 0 l 724 226 l 274 226 l 139 0 l -50 0 m 601 781 l 356 368 l 693 368 l 604 781 l 601 781 z "},"Ǽ":{"ha":1378,"x_min":-50,"x_max":1307,"o":"m -50 0 l 558 979 l 1307 979 l 1307 838 l 750 838 l 808 568 l 1278 568 l 1278 426 l 840 426 l 901 142 l 1307 142 l 1307 0 l 772 0 l 724 226 l 274 226 l 139 0 l -50 0 m 601 781 l 356 368 l 693 368 l 604 781 l 601 781 m 617 1063 l 781 1304 l 961 1304 l 740 1063 l 617 1063 z "},"B":{"ha":956,"x_min":107,"x_max":883,"o":"m 107 0 l 107 979 l 535 979 q 774 912 689 979 q 858 725 858 844 q 818 589 858 646 q 707 506 778 532 q 837 423 790 482 q 883 274 883 364 q 795 72 883 143 q 550 0 707 0 l 107 0 m 278 564 l 504 564 q 686 704 686 564 q 504 844 686 844 l 278 844 l 278 564 m 278 135 l 528 135 q 711 282 711 135 q 528 429 711 429 l 278 429 l 278 135 z "},"Ɓ":{"ha":1164,"x_min":0,"x_max":1092,"o":"m 315 0 l 315 853 l 279 853 q 178 820 211 853 q 146 717 146 788 l 146 651 l 0 651 l 0 724 q 289 979 0 979 l 743 979 q 982 912 897 979 q 1067 725 1067 844 q 1026 589 1067 646 q 915 506 986 532 q 1045 423 999 482 q 1092 274 1092 364 q 1003 72 1092 143 q 758 0 915 0 l 315 0 m 486 564 l 713 564 q 894 704 894 564 q 713 844 894 844 l 486 844 l 486 564 m 486 135 l 736 135 q 919 282 919 135 q 736 429 919 429 l 486 429 l 486 135 z "},"C":{"ha":943,"x_min":75,"x_max":894,"o":"m 563 -14 q 301 48 410 -14 q 133 223 192 110 q 75 490 75 336 q 133 757 75 644 q 301 931 192 869 q 563 993 410 993 q 749 963 661 993 q 894 875 838 932 l 836 733 q 708 810 774 786 q 568 835 643 835 q 342 745 419 835 q 264 490 264 656 q 342 235 264 325 q 568 144 419 144 q 708 169 643 144 q 836 246 774 193 l 894 104 q 749 17 838 49 q 563 -14 661 -14 z "},"Ć":{"ha":943,"x_min":75,"x_max":894,"o":"m 563 -14 q 301 48 410 -14 q 133 223 192 110 q 75 490 75 336 q 133 757 75 644 q 301 931 192 869 q 563 993 410 993 q 749 963 661 993 q 894 875 838 932 l 836 733 q 708 810 774 786 q 568 835 643 835 q 342 745 419 835 q 264 490 264 656 q 342 235 264 325 q 568 144 419 144 q 708 169 643 144 q 836 246 774 193 l 894 104 q 749 17 838 49 q 563 -14 661 -14 m 483 1063 l 647 1304 l 828 1304 l 607 1063 l 483 1063 z "},"Č":{"ha":943,"x_min":75,"x_max":894,"o":"m 563 -14 q 301 48 410 -14 q 133 223 192 110 q 75 490 75 336 q 133 757 75 644 q 301 931 192 869 q 563 993 410 993 q 749 963 661 993 q 894 875 838 932 l 836 733 q 708 810 774 786 q 568 835 643 835 q 342 745 419 835 q 264 490 264 656 q 342 235 264 325 q 568 144 419 144 q 708 169 643 144 q 836 246 774 193 l 894 104 q 749 17 838 49 q 563 -14 661 -14 m 469 1063 l 297 1304 l 419 1304 l 544 1160 l 669 1304 l 792 1304 l 619 1063 l 469 1063 z "},"Ç":{"ha":943,"x_min":75,"x_max":894,"o":"m 563 -14 q 301 48 410 -14 q 133 223 192 110 q 75 490 75 336 q 133 757 75 644 q 301 931 192 869 q 563 993 410 993 q 749 963 661 993 q 894 875 838 932 l 836 733 q 708 810 774 786 q 568 835 643 835 q 342 745 419 835 q 264 490 264 656 q 342 235 264 325 q 568 144 419 144 q 708 169 643 144 q 836 246 774 193 l 894 104 q 749 17 838 49 q 563 -14 661 -14 m 544 -271 q 467 -263 504 -271 q 403 -242 429 -256 l 428 -164 q 477 -181 453 -175 q 531 -187 501 -187 q 606 -146 606 -187 q 554 -114 606 -114 q 528 -115 540 -114 q 497 -122 515 -117 l 471 -97 l 489 28 l 582 28 l 568 -53 q 583 -51 576 -51 q 675 -78 640 -51 q 710 -151 710 -104 q 664 -238 710 -206 q 544 -271 618 -271 z "},"Ḉ":{"ha":943,"x_min":75,"x_max":894,"o":"m 563 -14 q 301 48 410 -14 q 133 223 192 110 q 75 490 75 336 q 133 757 75 644 q 301 931 192 869 q 563 993 410 993 q 749 963 661 993 q 894 875 838 932 l 836 733 q 708 810 774 786 q 568 835 643 835 q 342 745 419 835 q 264 490 264 656 q 342 235 264 325 q 568 144 419 144 q 708 169 643 144 q 836 246 774 193 l 894 104 q 749 17 838 49 q 563 -14 661 -14 m 544 -271 q 467 -263 504 -271 q 403 -242 429 -256 l 428 -164 q 477 -181 453 -175 q 531 -187 501 -187 q 606 -146 606 -187 q 554 -114 606 -114 q 528 -115 540 -114 q 497 -122 515 -117 l 471 -97 l 489 28 l 582 28 l 568 -53 q 583 -51 576 -51 q 675 -78 640 -51 q 710 -151 710 -104 q 664 -238 710 -206 q 544 -271 618 -271 m 483 1063 l 647 1304 l 828 1304 l 607 1063 l 483 1063 z "},"Ĉ":{"ha":943,"x_min":75,"x_max":894,"o":"m 563 -14 q 301 48 410 -14 q 133 223 192 110 q 75 490 75 336 q 133 757 75 644 q 301 931 192 869 q 563 993 410 993 q 749 963 661 993 q 894 875 838 932 l 836 733 q 708 810 774 786 q 568 835 643 835 q 342 745 419 835 q 264 490 264 656 q 342 235 264 325 q 568 144 419 144 q 708 169 643 144 q 836 246 774 193 l 894 104 q 749 17 838 49 q 563 -14 661 -14 m 297 1063 l 469 1304 l 619 1304 l 792 1063 l 669 1063 l 544 1207 l 419 1063 l 297 1063 z "},"Ċ":{"ha":943,"x_min":75,"x_max":894,"o":"m 563 -14 q 301 48 410 -14 q 133 223 192 110 q 75 490 75 336 q 133 757 75 644 q 301 931 192 869 q 563 993 410 993 q 749 963 661 993 q 894 875 838 932 l 836 733 q 708 810 774 786 q 568 835 643 835 q 342 745 419 835 q 264 490 264 656 q 342 235 264 325 q 568 144 419 144 q 708 169 643 144 q 836 246 774 193 l 894 104 q 749 17 838 49 q 563 -14 661 -14 m 460 1103 l 460 1264 l 629 1264 l 629 1103 l 460 1103 z "},"D":{"ha":1058,"x_min":107,"x_max":985,"o":"m 107 0 l 107 979 l 471 979 q 851 853 717 979 q 985 490 985 726 q 851 128 985 256 q 471 0 717 0 l 107 0 m 285 147 l 460 147 q 799 490 799 147 q 460 832 799 832 l 285 832 l 285 147 z "},"Ǆ":{"ha":1878,"x_min":107,"x_max":1849,"o":"m 107 0 l 107 979 l 471 979 q 851 853 717 979 q 985 490 985 726 q 851 128 985 256 q 471 0 717 0 l 107 0 m 285 147 l 460 147 q 799 490 799 147 q 460 832 799 832 l 285 832 l 285 147 z "},"Ð":{"ha":1058,"x_min":-14,"x_max":985,"o":"m 107 0 l 107 979 l 471 979 q 851 853 717 979 q 985 490 985 726 q 851 128 985 256 q 471 0 717 0 l 107 0 m 285 147 l 460 147 q 799 490 799 147 q 460 832 799 832 l 285 832 l 285 147 m -14 431 l -14 561 l 547 561 l 547 431 l -14 431 z "},"Ď":{"ha":1058,"x_min":107,"x_max":985,"o":"m 107 0 l 107 979 l 471 979 q 851 853 717 979 q 985 490 985 726 q 851 128 985 256 q 471 0 717 0 l 107 0 m 285 147 l 460 147 q 799 490 799 147 q 460 832 799 832 l 285 832 l 285 147 m 451 1063 l 279 1304 l 401 1304 l 526 1160 l 651 1304 l 774 1304 l 601 1063 l 451 1063 z "},"Đ":{"ha":1058,"x_min":-14,"x_max":985,"o":"m 107 0 l 107 979 l 471 979 q 851 853 717 979 q 985 490 985 726 q 851 128 985 256 q 471 0 717 0 l 107 0 m 285 147 l 460 147 q 799 490 799 147 q 460 832 799 832 l 285 832 l 285 147 m -14 431 l -14 561 l 547 561 l 547 431 l -14 431 z "},"Ḍ":{"ha":1058,"x_min":107,"x_max":985,"o":"m 107 0 l 107 979 l 471 979 q 851 853 717 979 q 985 490 985 726 q 851 128 985 256 q 471 0 717 0 l 107 0 m 285 147 l 460 147 q 799 490 799 147 q 460 832 799 832 l 285 832 l 285 147 m 442 -283 l 442 -122 l 611 -122 l 611 -283 l 442 -283 z "},"Ɗ":{"ha":1267,"x_min":0,"x_max":1193,"o":"m 315 0 l 315 853 l 279 853 q 178 820 211 853 q 146 717 146 788 l 146 651 l 0 651 l 0 724 q 282 979 0 979 l 679 979 q 1059 853 925 979 q 1193 490 1193 726 q 1059 128 1193 256 q 679 0 925 0 l 315 0 m 493 147 l 668 147 q 1007 490 1007 147 q 668 832 1007 832 l 493 832 l 493 147 z "},"Ḏ":{"ha":1058,"x_min":107,"x_max":985,"o":"m 107 0 l 107 979 l 471 979 q 851 853 717 979 q 985 490 985 726 q 851 128 985 256 q 471 0 717 0 l 107 0 m 285 147 l 460 147 q 799 490 799 147 q 460 832 799 832 l 285 832 l 285 147 m 308 -229 l 308 -126 l 746 -126 l 746 -229 l 308 -229 z "},"ǅ":{"ha":1717,"x_min":107,"x_max":1681,"o":"m 107 0 l 107 979 l 471 979 q 851 853 717 979 q 985 490 985 726 q 851 128 985 256 q 471 0 717 0 l 107 0 m 285 147 l 460 147 q 799 490 799 147 q 460 832 799 832 l 285 832 l 285 147 z "},"E":{"ha":829,"x_min":107,"x_max":758,"o":"m 107 0 l 107 979 l 758 979 l 758 838 l 278 838 l 278 568 l 728 568 l 728 426 l 278 426 l 278 142 l 758 142 l 758 0 l 107 0 z "},"É":{"ha":829,"x_min":107,"x_max":758,"o":"m 107 0 l 107 979 l 758 979 l 758 838 l 278 838 l 278 568 l 728 568 l 728 426 l 278 426 l 278 142 l 758 142 l 758 0 l 107 0 m 394 1063 l 558 1304 l 739 1304 l 518 1063 l 394 1063 z "},"Ĕ":{"ha":829,"x_min":107,"x_max":758,"o":"m 107 0 l 107 979 l 758 979 l 758 838 l 278 838 l 278 568 l 728 568 l 728 426 l 278 426 l 278 142 l 758 142 l 758 0 l 107 0 m 456 1056 q 279 1119 349 1056 q 203 1292 210 1183 l 301 1304 q 348 1198 308 1236 q 456 1160 388 1160 q 564 1198 522 1160 q 611 1304 606 1236 l 710 1292 q 633 1119 701 1183 q 456 1056 564 1056 z "},"Ě":{"ha":829,"x_min":107,"x_max":758,"o":"m 107 0 l 107 979 l 758 979 l 758 838 l 278 838 l 278 568 l 728 568 l 728 426 l 278 426 l 278 142 l 758 142 l 758 0 l 107 0 m 381 1063 l 208 1304 l 331 1304 l 456 1160 l 581 1304 l 703 1304 l 531 1063 l 381 1063 z "},"Ȩ":{"ha":829,"x_min":107,"x_max":758,"o":"m 107 0 l 107 979 l 758 979 l 758 838 l 278 838 l 278 568 l 728 568 l 728 426 l 278 426 l 278 142 l 758 142 l 758 0 l 107 0 m 457 -271 q 379 -263 417 -271 q 315 -242 342 -256 l 340 -164 q 390 -181 365 -175 q 443 -187 414 -187 q 518 -146 518 -187 q 467 -114 518 -114 q 440 -115 453 -114 q 410 -122 428 -117 l 383 -97 l 401 28 l 494 28 l 481 -53 q 496 -51 489 -51 q 588 -78 553 -51 q 622 -151 622 -104 q 576 -238 622 -206 q 457 -271 531 -271 z "},"Ḝ":{"ha":829,"x_min":107,"x_max":758,"o":"m 107 0 l 107 979 l 758 979 l 758 838 l 278 838 l 278 568 l 728 568 l 728 426 l 278 426 l 278 142 l 758 142 l 758 0 l 107 0 m 457 -271 q 379 -263 417 -271 q 315 -242 342 -256 l 340 -164 q 390 -181 365 -175 q 443 -187 414 -187 q 518 -146 518 -187 q 467 -114 518 -114 q 440 -115 453 -114 q 410 -122 428 -117 l 383 -97 l 401 28 l 494 28 l 481 -53 q 496 -51 489 -51 q 588 -78 553 -51 q 622 -151 622 -104 q 576 -238 622 -206 q 457 -271 531 -271 m 456 1056 q 279 1119 349 1056 q 203 1292 210 1183 l 301 1304 q 348 1198 308 1236 q 456 1160 388 1160 q 564 1198 522 1160 q 611 1304 606 1236 l 710 1292 q 633 1119 701 1183 q 456 1056 564 1056 z "},"Ê":{"ha":829,"x_min":107,"x_max":758,"o":"m 107 0 l 107 979 l 758 979 l 758 838 l 278 838 l 278 568 l 728 568 l 728 426 l 278 426 l 278 142 l 758 142 l 758 0 l 107 0 m 208 1063 l 381 1304 l 531 1304 l 703 1063 l 581 1063 l 456 1207 l 331 1063 l 208 1063 z "},"Ế":{"ha":829,"x_min":107,"x_max":868,"o":"m 107 0 l 107 979 l 758 979 l 758 838 l 278 838 l 278 568 l 728 568 l 728 426 l 278 426 l 278 142 l 758 142 l 758 0 l 107 0 m 607 1211 l 724 1419 l 868 1419 l 706 1211 l 607 1211 m 226 1063 l 379 1289 l 532 1289 l 685 1063 l 574 1063 l 456 1194 l 338 1063 l 226 1063 z "},"Ệ":{"ha":829,"x_min":107,"x_max":758,"o":"m 107 0 l 107 979 l 758 979 l 758 838 l 278 838 l 278 568 l 728 568 l 728 426 l 278 426 l 278 142 l 758 142 l 758 0 l 107 0 m 371 -283 l 371 -122 l 540 -122 l 540 -283 l 371 -283 m 208 1063 l 381 1304 l 531 1304 l 703 1063 l 581 1063 l 456 1207 l 331 1063 l 208 1063 z "},"Ề":{"ha":829,"x_min":107,"x_max":761,"o":"m 107 0 l 107 979 l 758 979 l 758 838 l 278 838 l 278 568 l 728 568 l 728 426 l 278 426 l 278 142 l 758 142 l 758 0 l 107 0 m 661 1211 l 499 1419 l 644 1419 l 761 1211 l 661 1211 m 226 1063 l 379 1289 l 532 1289 l 685 1063 l 574 1063 l 456 1194 l 338 1063 l 226 1063 z "},"Ể":{"ha":829,"x_min":107,"x_max":794,"o":"m 107 0 l 107 979 l 758 979 l 758 838 l 278 838 l 278 568 l 728 568 l 728 426 l 278 426 l 278 142 l 758 142 l 758 0 l 107 0 m 610 1211 q 627 1263 610 1244 q 662 1294 644 1281 q 679 1326 679 1308 q 666 1345 679 1340 q 631 1350 653 1350 q 591 1347 611 1350 q 550 1333 571 1343 l 528 1399 q 588 1418 556 1411 q 664 1425 619 1425 q 760 1406 726 1425 q 794 1354 794 1386 q 781 1311 794 1328 q 750 1281 768 1294 q 719 1251 732 1267 q 706 1211 706 1235 l 610 1211 m 226 1063 l 379 1289 l 532 1289 l 685 1063 l 574 1063 l 456 1194 l 338 1063 l 226 1063 z "},"Ễ":{"ha":829,"x_min":107,"x_max":758,"o":"m 107 0 l 107 979 l 758 979 l 758 838 l 278 838 l 278 568 l 728 568 l 728 426 l 278 426 l 278 142 l 758 142 l 758 0 l 107 0 m 297 1282 l 217 1286 q 263 1399 222 1361 q 364 1436 304 1436 q 413 1428 389 1436 q 469 1401 438 1419 q 543 1375 518 1375 q 614 1438 601 1375 l 694 1433 q 650 1321 690 1358 q 549 1283 610 1283 q 497 1292 522 1283 q 442 1318 472 1301 q 397 1339 413 1333 q 369 1344 382 1344 q 321 1329 338 1344 q 297 1282 304 1314 m 226 1063 l 379 1249 l 532 1249 l 685 1063 l 579 1063 l 456 1163 l 335 1063 l 226 1063 z "},"Ȅ":{"ha":829,"x_min":107,"x_max":758,"o":"m 107 0 l 107 979 l 758 979 l 758 838 l 278 838 l 278 568 l 728 568 l 728 426 l 278 426 l 278 142 l 758 142 l 758 0 l 107 0 m 508 1063 l 333 1304 l 489 1304 l 607 1063 l 508 1063 m 306 1063 l 117 1304 l 272 1304 l 403 1063 l 306 1063 z "},"Ë":{"ha":829,"x_min":107,"x_max":758,"o":"m 107 0 l 107 979 l 758 979 l 758 838 l 278 838 l 278 568 l 728 568 l 728 426 l 278 426 l 278 142 l 758 142 l 758 0 l 107 0 m 506 1097 l 506 1257 l 667 1257 l 667 1097 l 506 1097 m 244 1097 l 244 1257 l 406 1257 l 406 1097 l 244 1097 z "},"Ė":{"ha":829,"x_min":107,"x_max":758,"o":"m 107 0 l 107 979 l 758 979 l 758 838 l 278 838 l 278 568 l 728 568 l 728 426 l 278 426 l 278 142 l 758 142 l 758 0 l 107 0 m 371 1103 l 371 1264 l 540 1264 l 540 1103 l 371 1103 z "},"Ẹ":{"ha":829,"x_min":107,"x_max":758,"o":"m 107 0 l 107 979 l 758 979 l 758 838 l 278 838 l 278 568 l 728 568 l 728 426 l 278 426 l 278 142 l 758 142 l 758 0 l 107 0 m 371 -283 l 371 -122 l 540 -122 l 540 -283 l 371 -283 z "},"È":{"ha":829,"x_min":107,"x_max":758,"o":"m 107 0 l 107 979 l 758 979 l 758 838 l 278 838 l 278 568 l 728 568 l 728 426 l 278 426 l 278 142 l 758 142 l 758 0 l 107 0 m 394 1063 l 172 1304 l 354 1304 l 518 1063 l 394 1063 z "},"Ẻ":{"ha":829,"x_min":107,"x_max":758,"o":"m 107 0 l 107 979 l 758 979 l 758 838 l 278 838 l 278 568 l 728 568 l 728 426 l 278 426 l 278 142 l 758 142 l 758 0 l 107 0 m 403 1063 l 403 1088 q 422 1138 403 1121 q 461 1169 442 1156 q 481 1201 481 1183 q 425 1229 481 1229 q 342 1211 383 1229 l 315 1285 q 467 1314 374 1314 q 574 1290 535 1314 q 613 1226 613 1267 q 597 1178 613 1196 q 561 1147 582 1160 q 525 1119 540 1133 q 510 1079 510 1104 l 510 1063 l 403 1063 z "},"Ȇ":{"ha":829,"x_min":107,"x_max":758,"o":"m 107 0 l 107 979 l 758 979 l 758 838 l 278 838 l 278 568 l 728 568 l 728 426 l 278 426 l 278 142 l 758 142 l 758 0 l 107 0 m 301 1056 l 203 1068 q 279 1241 210 1178 q 456 1304 349 1304 q 633 1241 564 1304 q 710 1068 701 1178 l 611 1056 q 564 1163 606 1125 q 456 1201 522 1201 q 348 1163 388 1201 q 301 1056 308 1125 z "},"Ē":{"ha":829,"x_min":107,"x_max":758,"o":"m 107 0 l 107 979 l 758 979 l 758 838 l 278 838 l 278 568 l 728 568 l 728 426 l 278 426 l 278 142 l 758 142 l 758 0 l 107 0 m 217 1119 l 217 1222 l 696 1222 l 696 1119 l 217 1119 z "},"Ḗ":{"ha":829,"x_min":107,"x_max":758,"o":"m 107 0 l 107 979 l 758 979 l 758 838 l 278 838 l 278 568 l 728 568 l 728 426 l 278 426 l 278 142 l 758 142 l 758 0 l 107 0 m 401 1242 l 503 1425 l 669 1425 l 510 1242 l 401 1242 m 238 1088 l 238 1190 l 675 1190 l 675 1088 l 238 1088 z "},"Ḕ":{"ha":829,"x_min":107,"x_max":758,"o":"m 107 0 l 107 979 l 758 979 l 758 838 l 278 838 l 278 568 l 728 568 l 728 426 l 278 426 l 278 142 l 758 142 l 758 0 l 107 0 m 401 1242 l 243 1425 l 408 1425 l 510 1242 l 401 1242 m 238 1088 l 238 1190 l 675 1190 l 675 1088 l 238 1088 z "},"Ę":{"ha":829,"x_min":107,"x_max":782,"o":"m 107 0 l 107 979 l 758 979 l 758 838 l 278 838 l 278 568 l 728 568 l 728 426 l 278 426 l 278 142 l 758 142 l 758 0 l 107 0 m 663 -271 q 542 -232 586 -271 q 499 -126 499 -193 q 538 -18 499 -68 q 640 58 576 32 l 692 0 q 633 -42 657 -14 q 608 -107 608 -71 q 631 -160 608 -142 q 686 -178 653 -178 q 724 -174 706 -178 q 761 -162 742 -169 l 782 -247 q 663 -271 731 -271 z "},"Ẽ":{"ha":829,"x_min":107,"x_max":765,"o":"m 107 0 l 107 979 l 758 979 l 758 838 l 278 838 l 278 568 l 728 568 l 728 426 l 278 426 l 278 142 l 758 142 l 758 0 l 107 0 m 232 1072 l 146 1078 q 205 1230 154 1176 q 332 1283 256 1283 q 400 1271 367 1283 q 476 1233 433 1258 q 543 1199 521 1207 q 583 1192 565 1192 q 679 1289 663 1192 l 765 1283 q 708 1131 758 1185 q 581 1078 657 1078 q 510 1092 546 1078 q 433 1129 474 1106 q 371 1161 394 1153 q 328 1169 347 1169 q 232 1072 251 1169 z "},"F":{"ha":781,"x_min":107,"x_max":747,"o":"m 107 0 l 107 979 l 747 979 l 747 838 l 285 838 l 285 561 l 718 561 l 718 419 l 285 419 l 285 0 l 107 0 z "},"G":{"ha":1022,"x_min":75,"x_max":924,"o":"m 578 -14 q 303 47 415 -14 q 133 221 192 108 q 75 488 75 333 q 135 756 75 643 q 307 931 194 869 q 576 993 419 993 q 769 963 679 993 q 919 881 860 933 l 860 742 q 726 815 794 793 q 576 838 658 838 q 341 747 421 838 q 261 488 261 657 q 343 228 261 317 q 586 139 425 139 q 680 147 632 139 q 775 169 728 154 l 775 397 l 550 397 l 550 529 l 924 529 l 924 58 q 763 6 856 25 q 578 -14 669 -14 z "},"Ğ":{"ha":1022,"x_min":75,"x_max":924,"o":"m 578 -14 q 303 47 415 -14 q 133 221 192 108 q 75 488 75 333 q 135 756 75 643 q 307 931 194 869 q 576 993 419 993 q 769 963 679 993 q 919 881 860 933 l 860 742 q 726 815 794 793 q 576 838 658 838 q 341 747 421 838 q 261 488 261 657 q 343 228 261 317 q 586 139 425 139 q 680 147 632 139 q 775 169 728 154 l 775 397 l 550 397 l 550 529 l 924 529 l 924 58 q 763 6 856 25 q 578 -14 669 -14 m 557 1056 q 381 1119 450 1056 q 304 1292 311 1183 l 403 1304 q 449 1198 410 1236 q 557 1160 489 1160 q 665 1198 624 1160 q 713 1304 707 1236 l 811 1292 q 734 1119 803 1183 q 557 1056 665 1056 z "},"Ǧ":{"ha":1022,"x_min":75,"x_max":924,"o":"m 578 -14 q 303 47 415 -14 q 133 221 192 108 q 75 488 75 333 q 135 756 75 643 q 307 931 194 869 q 576 993 419 993 q 769 963 679 993 q 919 881 860 933 l 860 742 q 726 815 794 793 q 576 838 658 838 q 341 747 421 838 q 261 488 261 657 q 343 228 261 317 q 586 139 425 139 q 680 147 632 139 q 775 169 728 154 l 775 397 l 550 397 l 550 529 l 924 529 l 924 58 q 763 6 856 25 q 578 -14 669 -14 m 482 1063 l 310 1304 l 432 1304 l 557 1160 l 682 1304 l 804 1304 l 632 1063 l 482 1063 z "},"Ĝ":{"ha":1022,"x_min":75,"x_max":924,"o":"m 578 -14 q 303 47 415 -14 q 133 221 192 108 q 75 488 75 333 q 135 756 75 643 q 307 931 194 869 q 576 993 419 993 q 769 963 679 993 q 919 881 860 933 l 860 742 q 726 815 794 793 q 576 838 658 838 q 341 747 421 838 q 261 488 261 657 q 343 228 261 317 q 586 139 425 139 q 680 147 632 139 q 775 169 728 154 l 775 397 l 550 397 l 550 529 l 924 529 l 924 58 q 763 6 856 25 q 578 -14 669 -14 m 310 1063 l 482 1304 l 632 1304 l 804 1063 l 682 1063 l 557 1207 l 432 1063 l 310 1063 z "},"Ģ":{"ha":1022,"x_min":75,"x_max":924,"o":"m 578 -14 q 303 47 415 -14 q 133 221 192 108 q 75 488 75 333 q 135 756 75 643 q 307 931 194 869 q 576 993 419 993 q 769 963 679 993 q 919 881 860 933 l 860 742 q 726 815 794 793 q 576 838 658 838 q 341 747 421 838 q 261 488 261 657 q 343 228 261 317 q 586 139 425 139 q 680 147 632 139 q 775 169 728 154 l 775 397 l 550 397 l 550 529 l 924 529 l 924 58 q 763 6 856 25 q 578 -14 669 -14 m 578 -386 l 513 -342 q 549 -293 538 -317 q 564 -243 561 -269 l 476 -243 l 476 -101 l 657 -101 l 657 -194 q 639 -299 657 -251 q 578 -386 621 -347 z "},"Ġ":{"ha":1022,"x_min":75,"x_max":924,"o":"m 578 -14 q 303 47 415 -14 q 133 221 192 108 q 75 488 75 333 q 135 756 75 643 q 307 931 194 869 q 576 993 419 993 q 769 963 679 993 q 919 881 860 933 l 860 742 q 726 815 794 793 q 576 838 658 838 q 341 747 421 838 q 261 488 261 657 q 343 228 261 317 q 586 139 425 139 q 680 147 632 139 q 775 169 728 154 l 775 397 l 550 397 l 550 529 l 924 529 l 924 58 q 763 6 856 25 q 578 -14 669 -14 m 472 1103 l 472 1264 l 642 1264 l 642 1103 l 472 1103 z "},"Ḡ":{"ha":1022,"x_min":75,"x_max":924,"o":"m 578 -14 q 303 47 415 -14 q 133 221 192 108 q 75 488 75 333 q 135 756 75 643 q 307 931 194 869 q 576 993 419 993 q 769 963 679 993 q 919 881 860 933 l 860 742 q 726 815 794 793 q 576 838 658 838 q 341 747 421 838 q 261 488 261 657 q 343 228 261 317 q 586 139 425 139 q 680 147 632 139 q 775 169 728 154 l 775 397 l 550 397 l 550 529 l 924 529 l 924 58 q 763 6 856 25 q 578 -14 669 -14 m 318 1119 l 318 1222 l 797 1222 l 797 1119 l 318 1119 z "},"H":{"ha":1074,"x_min":107,"x_max":967,"o":"m 107 0 l 107 979 l 285 979 l 285 571 l 789 571 l 789 979 l 967 979 l 967 0 l 789 0 l 789 422 l 285 422 l 285 0 l 107 0 z "},"Ħ":{"ha":1135,"x_min":19,"x_max":1115,"o":"m 138 0 l 138 710 l 19 710 l 19 840 l 138 840 l 138 979 l 315 979 l 315 840 l 819 840 l 819 979 l 997 979 l 997 840 l 1115 840 l 1115 710 l 997 710 l 997 0 l 819 0 l 819 408 l 315 408 l 315 0 l 138 0 m 315 557 l 819 557 l 819 710 l 315 710 l 315 557 z "},"Ḫ":{"ha":1074,"x_min":107,"x_max":967,"o":"m 107 0 l 107 979 l 285 979 l 285 571 l 789 571 l 789 979 l 967 979 l 967 0 l 789 0 l 789 422 l 285 422 l 285 0 l 107 0 m 538 -299 q 374 -241 436 -299 q 307 -86 311 -183 l 406 -76 q 445 -164 411 -132 q 538 -196 479 -196 q 630 -164 596 -196 q 669 -76 664 -132 l 768 -86 q 703 -241 765 -183 q 538 -299 640 -299 z "},"Ĥ":{"ha":1074,"x_min":107,"x_max":967,"o":"m 107 0 l 107 979 l 285 979 l 285 571 l 789 571 l 789 979 l 967 979 l 967 0 l 789 0 l 789 422 l 285 422 l 285 0 l 107 0 m 289 1063 l 461 1304 l 611 1304 l 783 1063 l 661 1063 l 536 1207 l 411 1063 l 289 1063 z "},"Ḥ":{"ha":1074,"x_min":107,"x_max":967,"o":"m 107 0 l 107 979 l 285 979 l 285 571 l 789 571 l 789 979 l 967 979 l 967 0 l 789 0 l 789 422 l 285 422 l 285 0 l 107 0 m 453 -283 l 453 -122 l 622 -122 l 622 -283 l 453 -283 z "},"I":{"ha":390,"x_min":107,"x_max":285,"o":"m 107 0 l 107 979 l 285 979 l 285 0 l 107 0 z "},"Ĳ":{"ha":883,"x_min":107,"x_max":776,"o":"m 107 0 l 107 979 l 285 979 l 285 0 l 107 0 m 389 -12 l 376 133 l 475 139 q 599 275 599 147 l 599 979 l 776 979 l 776 276 q 503 -7 776 13 l 389 -12 z "},"Í":{"ha":390,"x_min":107,"x_max":479,"o":"m 107 0 l 107 979 l 285 979 l 285 0 l 107 0 m 135 1063 l 299 1304 l 479 1304 l 258 1063 l 135 1063 z "},"Ĭ":{"ha":390,"x_min":-57,"x_max":450,"o":"m 107 0 l 107 979 l 285 979 l 285 0 l 107 0 m 196 1056 q 19 1119 89 1056 q -57 1292 -50 1183 l 42 1304 q 88 1198 49 1236 q 196 1160 128 1160 q 304 1198 263 1160 q 351 1304 346 1236 l 450 1292 q 373 1119 442 1183 q 196 1056 304 1056 z "},"Î":{"ha":390,"x_min":-51,"x_max":443,"o":"m 107 0 l 107 979 l 285 979 l 285 0 l 107 0 m -51 1063 l 121 1304 l 271 1304 l 443 1063 l 321 1063 l 196 1207 l 71 1063 l -51 1063 z "},"Ȉ":{"ha":390,"x_min":-143,"x_max":347,"o":"m 107 0 l 107 979 l 285 979 l 285 0 l 107 0 m 249 1063 l 74 1304 l 229 1304 l 347 1063 l 249 1063 m 46 1063 l -143 1304 l 13 1304 l 143 1063 l 46 1063 z "},"Ï":{"ha":390,"x_min":-15,"x_max":407,"o":"m 107 0 l 107 979 l 285 979 l 285 0 l 107 0 m 246 1097 l 246 1257 l 407 1257 l 407 1097 l 246 1097 m -15 1097 l -15 1257 l 146 1257 l 146 1097 l -15 1097 z "},"Ḯ":{"ha":390,"x_min":-15,"x_max":410,"o":"m 107 0 l 107 979 l 285 979 l 285 0 l 107 0 m 142 1242 l 243 1425 l 410 1425 l 250 1242 l 142 1242 m -15 1069 l -15 1192 l 146 1192 l 146 1069 l -15 1069 m 246 1069 l 246 1192 l 407 1192 l 407 1069 l 246 1069 z "},"İ":{"ha":390,"x_min":107,"x_max":285,"o":"m 107 0 l 107 979 l 285 979 l 285 0 l 107 0 m 111 1103 l 111 1264 l 281 1264 l 281 1103 l 111 1103 z "},"Ị":{"ha":390,"x_min":107,"x_max":285,"o":"m 107 0 l 107 979 l 285 979 l 285 0 l 107 0 m 111 -283 l 111 -122 l 281 -122 l 281 -283 l 111 -283 z "},"Ì":{"ha":390,"x_min":-87,"x_max":285,"o":"m 107 0 l 107 979 l 285 979 l 285 0 l 107 0 m 135 1063 l -87 1304 l 94 1304 l 258 1063 l 135 1063 z "},"Ỉ":{"ha":390,"x_min":56,"x_max":353,"o":"m 107 0 l 107 979 l 285 979 l 285 0 l 107 0 m 143 1063 l 143 1088 q 163 1138 143 1121 q 201 1169 182 1156 q 221 1201 221 1183 q 165 1229 221 1229 q 82 1211 124 1229 l 56 1285 q 207 1314 114 1314 q 314 1290 275 1314 q 353 1226 353 1267 q 338 1178 353 1196 q 301 1147 322 1160 q 265 1119 281 1133 q 250 1079 250 1104 l 250 1063 l 143 1063 z "},"Ȋ":{"ha":390,"x_min":-57,"x_max":450,"o":"m 107 0 l 107 979 l 285 979 l 285 0 l 107 0 m 42 1056 l -57 1068 q 19 1241 -50 1178 q 196 1304 89 1304 q 373 1241 304 1304 q 450 1068 442 1178 l 351 1056 q 304 1163 346 1125 q 196 1201 263 1201 q 88 1163 128 1201 q 42 1056 49 1125 z "},"Ī":{"ha":390,"x_min":-43,"x_max":436,"o":"m 107 0 l 107 979 l 285 979 l 285 0 l 107 0 m -43 1119 l -43 1222 l 436 1222 l 436 1119 l -43 1119 z "},"Į":{"ha":390,"x_min":54,"x_max":338,"o":"m 107 0 l 107 979 l 285 979 l 285 0 l 107 0 m 218 -271 q 98 -232 142 -271 q 54 -126 54 -193 q 93 -18 54 -68 q 196 58 132 32 l 247 0 q 188 -42 213 -14 q 164 -107 164 -71 q 186 -160 164 -142 q 242 -178 208 -178 q 279 -174 261 -178 q 317 -162 297 -169 l 338 -247 q 218 -271 286 -271 z "},"Ĩ":{"ha":390,"x_min":-114,"x_max":506,"o":"m 107 0 l 107 979 l 285 979 l 285 0 l 107 0 m -28 1072 l -114 1078 q -55 1230 -106 1176 q 72 1283 -4 1283 q 140 1271 107 1283 q 217 1233 174 1258 q 283 1199 261 1207 q 324 1192 306 1192 q 419 1289 403 1192 l 506 1283 q 448 1131 499 1185 q 321 1078 397 1078 q 250 1092 286 1078 q 174 1129 214 1106 q 111 1161 135 1153 q 68 1169 88 1169 q -28 1072 -8 1169 z "},"J":{"ha":493,"x_min":-14,"x_max":386,"o":"m -1 -12 l -14 133 l 85 139 q 208 275 208 147 l 208 979 l 386 979 l 386 276 q 113 -7 386 13 l -1 -12 z "},"Ĵ":{"ha":493,"x_min":-14,"x_max":543,"o":"m -1 -12 l -14 133 l 85 139 q 208 275 208 147 l 208 979 l 386 979 l 386 276 q 113 -7 386 13 l -1 -12 m 49 1063 l 221 1304 l 371 1304 l 543 1063 l 421 1063 l 296 1207 l 171 1063 l 49 1063 z "},"K":{"ha":922,"x_min":107,"x_max":960,"o":"m 107 0 l 107 979 l 285 979 l 285 546 l 288 546 l 719 979 l 936 979 l 460 508 l 960 0 l 740 0 l 288 453 l 285 453 l 285 0 l 107 0 z "},"Ķ":{"ha":922,"x_min":107,"x_max":960,"o":"m 107 0 l 107 979 l 285 979 l 285 546 l 288 546 l 719 979 l 936 979 l 460 508 l 960 0 l 740 0 l 288 453 l 285 453 l 285 0 l 107 0 m 472 -386 l 407 -342 q 444 -293 432 -317 q 458 -243 456 -269 l 371 -243 l 371 -101 l 551 -101 l 551 -194 q 533 -299 551 -251 q 472 -386 515 -347 z "},"L":{"ha":781,"x_min":107,"x_max":754,"o":"m 107 0 l 107 979 l 285 979 l 285 151 l 754 151 l 754 0 l 107 0 z "},"Ǉ":{"ha":1329,"x_min":107,"x_max":1222,"o":"m 107 0 l 107 979 l 285 979 l 285 151 l 754 151 l 754 0 l 107 0 m 835 -12 l 822 133 l 921 139 q 1044 275 1044 147 l 1044 979 l 1222 979 l 1222 276 q 949 -7 1222 13 l 835 -12 z "},"Ĺ":{"ha":781,"x_min":107,"x_max":754,"o":"m 107 0 l 107 979 l 285 979 l 285 151 l 754 151 l 754 0 l 107 0 m 135 1063 l 299 1304 l 479 1304 l 258 1063 l 135 1063 z "},"Ľ":{"ha":781,"x_min":107,"x_max":754,"o":"m 107 0 l 107 979 l 285 979 l 285 151 l 754 151 l 754 0 l 107 0 m 432 651 l 432 979 l 567 979 l 535 651 l 432 651 z "},"Ļ":{"ha":781,"x_min":107,"x_max":754,"o":"m 107 0 l 107 979 l 285 979 l 285 151 l 754 151 l 754 0 l 107 0 m 442 -386 l 376 -342 q 413 -293 401 -317 q 428 -243 425 -269 l 340 -243 l 340 -101 l 521 -101 l 521 -194 q 503 -299 521 -251 q 442 -386 485 -347 z "},"Ŀ":{"ha":781,"x_min":107,"x_max":754,"o":"m 107 0 l 107 979 l 285 979 l 285 151 l 754 151 l 754 0 l 107 0 m 493 461 l 493 632 l 688 632 l 688 461 l 493 461 z "},"Ḷ":{"ha":781,"x_min":107,"x_max":754,"o":"m 107 0 l 107 979 l 285 979 l 285 151 l 754 151 l 754 0 l 107 0 m 346 -283 l 346 -122 l 515 -122 l 515 -283 l 346 -283 z "},"ǈ":{"ha":1140,"x_min":107,"x_max":1060,"o":"m 107 0 l 107 979 l 285 979 l 285 151 l 754 151 l 754 0 l 107 0 m 865 825 l 865 994 l 1060 994 l 1060 825 l 865 825 m 718 -268 l 706 -142 l 769 -135 q 876 -10 876 -122 l 876 679 l 1050 679 l 1050 13 q 988 -188 1050 -124 q 778 -264 925 -253 l 718 -268 z "},"Ḻ":{"ha":781,"x_min":107,"x_max":754,"o":"m 107 0 l 107 979 l 285 979 l 285 151 l 754 151 l 754 0 l 107 0 m 213 -229 l 213 -126 l 650 -126 l 650 -229 l 213 -229 z "},"Ł":{"ha":781,"x_min":-51,"x_max":754,"o":"m 107 0 l 107 979 l 285 979 l 285 151 l 754 151 l 754 0 l 107 0 m 15 318 l -51 436 l 504 756 l 571 638 l 15 318 z "},"M":{"ha":1206,"x_min":110,"x_max":1097,"o":"m 110 0 l 110 979 l 258 979 l 606 339 l 951 979 l 1097 979 l 1097 0 l 936 0 l 936 660 l 656 149 l 551 149 l 271 657 l 271 0 l 110 0 z "},"Ṃ":{"ha":1206,"x_min":110,"x_max":1097,"o":"m 110 0 l 110 979 l 258 979 l 606 339 l 951 979 l 1097 979 l 1097 0 l 936 0 l 936 660 l 656 149 l 551 149 l 271 657 l 271 0 l 110 0 m 519 -283 l 519 -122 l 689 -122 l 689 -283 l 519 -283 z "},"N":{"ha":1039,"x_min":107,"x_max":932,"o":"m 107 0 l 107 979 l 240 979 l 767 296 l 767 979 l 932 979 l 932 0 l 800 0 l 272 686 l 272 0 l 107 0 z "},"Ǌ":{"ha":1532,"x_min":107,"x_max":1425,"o":"m 107 0 l 107 979 l 240 979 l 767 296 l 767 979 l 932 979 l 932 0 l 800 0 l 272 686 l 272 0 l 107 0 m 1038 -12 l 1025 133 l 1124 139 q 1247 275 1247 147 l 1247 979 l 1425 979 l 1425 276 q 1151 -7 1425 13 l 1038 -12 z "},"Ń":{"ha":1039,"x_min":107,"x_max":932,"o":"m 107 0 l 107 979 l 240 979 l 767 296 l 767 979 l 932 979 l 932 0 l 800 0 l 272 686 l 272 0 l 107 0 m 458 1063 l 622 1304 l 803 1304 l 582 1063 l 458 1063 z "},"Ň":{"ha":1039,"x_min":107,"x_max":932,"o":"m 107 0 l 107 979 l 240 979 l 767 296 l 767 979 l 932 979 l 932 0 l 800 0 l 272 686 l 272 0 l 107 0 m 444 1063 l 272 1304 l 394 1304 l 519 1160 l 644 1304 l 767 1304 l 594 1063 l 444 1063 z "},"Ņ":{"ha":1039,"x_min":107,"x_max":932,"o":"m 107 0 l 107 979 l 240 979 l 767 296 l 767 979 l 932 979 l 932 0 l 800 0 l 272 686 l 272 0 l 107 0 m 531 -386 l 465 -342 q 502 -293 490 -317 q 517 -243 514 -269 l 429 -243 l 429 -101 l 610 -101 l 610 -194 q 592 -299 610 -251 q 531 -386 574 -347 z "},"Ṅ":{"ha":1039,"x_min":107,"x_max":932,"o":"m 107 0 l 107 979 l 240 979 l 767 296 l 767 979 l 932 979 l 932 0 l 800 0 l 272 686 l 272 0 l 107 0 m 435 1103 l 435 1264 l 604 1264 l 604 1103 l 435 1103 z "},"Ṇ":{"ha":1039,"x_min":107,"x_max":932,"o":"m 107 0 l 107 979 l 240 979 l 767 296 l 767 979 l 932 979 l 932 0 l 800 0 l 272 686 l 272 0 l 107 0 m 435 -283 l 435 -122 l 604 -122 l 604 -283 l 435 -283 z "},"Ŋ":{"ha":1039,"x_min":107,"x_max":932,"o":"m 600 -268 l 589 -142 l 656 -135 q 767 -10 767 -122 l 767 43 l 272 686 l 272 0 l 107 0 l 107 979 l 240 979 l 767 296 l 767 979 l 932 979 l 932 13 q 869 -188 932 -124 q 661 -264 807 -253 l 600 -268 z "},"ǋ":{"ha":1399,"x_min":107,"x_max":1318,"o":"m 107 0 l 107 979 l 240 979 l 767 296 l 767 979 l 932 979 l 932 0 l 800 0 l 272 686 l 272 0 l 107 0 m 1124 825 l 1124 994 l 1318 994 l 1318 825 l 1124 825 m 976 -268 l 964 -142 l 1028 -135 q 1135 -10 1135 -122 l 1135 679 l 1308 679 l 1308 13 q 1246 -188 1308 -124 q 1036 -264 1183 -253 l 976 -268 z "},"Ṉ":{"ha":1039,"x_min":107,"x_max":932,"o":"m 107 0 l 107 979 l 240 979 l 767 296 l 767 979 l 932 979 l 932 0 l 800 0 l 272 686 l 272 0 l 107 0 m 301 -229 l 301 -126 l 739 -126 l 739 -229 l 301 -229 z "},"Ñ":{"ha":1039,"x_min":107,"x_max":932,"o":"m 107 0 l 107 979 l 240 979 l 767 296 l 767 979 l 932 979 l 932 0 l 800 0 l 272 686 l 272 0 l 107 0 m 296 1072 l 210 1078 q 269 1230 218 1176 q 396 1283 319 1283 q 464 1271 431 1283 q 540 1233 497 1258 q 607 1199 585 1207 q 647 1192 629 1192 q 743 1289 726 1192 l 829 1283 q 772 1131 822 1185 q 644 1078 721 1078 q 574 1092 610 1078 q 497 1129 538 1106 q 435 1161 458 1153 q 392 1169 411 1169 q 296 1072 315 1169 z "},"O":{"ha":1090,"x_min":75,"x_max":1017,"o":"m 546 -14 q 298 49 404 -14 q 133 224 192 111 q 75 490 75 338 q 133 757 75 644 q 297 931 192 869 q 546 993 403 993 q 794 931 689 993 q 958 757 900 869 q 1017 492 1017 644 q 958 224 1017 338 q 794 49 900 111 q 546 -14 689 -14 m 546 139 q 756 232 681 139 q 831 490 831 325 q 756 749 831 657 q 546 840 682 840 q 336 749 411 840 q 261 490 261 657 q 336 232 261 325 q 546 139 411 139 z "},"Ó":{"ha":1090,"x_min":75,"x_max":1017,"o":"m 546 -14 q 298 49 404 -14 q 133 224 192 111 q 75 490 75 338 q 133 757 75 644 q 297 931 192 869 q 546 993 403 993 q 794 931 689 993 q 958 757 900 869 q 1017 492 1017 644 q 958 224 1017 338 q 794 49 900 111 q 546 -14 689 -14 m 546 139 q 756 232 681 139 q 831 490 831 325 q 756 749 831 657 q 546 840 682 840 q 336 749 411 840 q 261 490 261 657 q 336 232 261 325 q 546 139 411 139 m 483 1063 l 647 1304 l 828 1304 l 607 1063 l 483 1063 z "},"Ŏ":{"ha":1090,"x_min":75,"x_max":1017,"o":"m 546 -14 q 298 49 404 -14 q 133 224 192 111 q 75 490 75 338 q 133 757 75 644 q 297 931 192 869 q 546 993 403 993 q 794 931 689 993 q 958 757 900 869 q 1017 492 1017 644 q 958 224 1017 338 q 794 49 900 111 q 546 -14 689 -14 m 546 139 q 756 232 681 139 q 831 490 831 325 q 756 749 831 657 q 546 840 682 840 q 336 749 411 840 q 261 490 261 657 q 336 232 261 325 q 546 139 411 139 m 544 1056 q 368 1119 438 1056 q 292 1292 299 1183 l 390 1304 q 437 1198 397 1236 q 544 1160 476 1160 q 653 1198 611 1160 q 700 1304 694 1236 l 799 1292 q 722 1119 790 1183 q 544 1056 653 1056 z "},"Ô":{"ha":1090,"x_min":75,"x_max":1017,"o":"m 546 -14 q 298 49 404 -14 q 133 224 192 111 q 75 490 75 338 q 133 757 75 644 q 297 931 192 869 q 546 993 403 993 q 794 931 689 993 q 958 757 900 869 q 1017 492 1017 644 q 958 224 1017 338 q 794 49 900 111 q 546 -14 689 -14 m 546 139 q 756 232 681 139 q 831 490 831 325 q 756 749 831 657 q 546 840 682 840 q 336 749 411 840 q 261 490 261 657 q 336 232 261 325 q 546 139 411 139 m 297 1063 l 469 1304 l 619 1304 l 792 1063 l 669 1063 l 544 1207 l 419 1063 l 297 1063 z "},"Ố":{"ha":1090,"x_min":75,"x_max":1017,"o":"m 546 -14 q 298 49 404 -14 q 133 224 192 111 q 75 490 75 338 q 133 757 75 644 q 297 931 192 869 q 546 993 403 993 q 794 931 689 993 q 958 757 900 869 q 1017 492 1017 644 q 958 224 1017 338 q 794 49 900 111 q 546 -14 689 -14 m 546 139 q 756 232 681 139 q 831 490 831 325 q 756 749 831 657 q 546 840 682 840 q 336 749 411 840 q 261 490 261 657 q 336 232 261 325 q 546 139 411 139 m 696 1211 l 813 1419 l 957 1419 l 794 1211 l 696 1211 m 315 1063 l 468 1289 l 621 1289 l 774 1063 l 663 1063 l 544 1194 l 426 1063 l 315 1063 z "},"Ộ":{"ha":1090,"x_min":75,"x_max":1017,"o":"m 546 -14 q 298 49 404 -14 q 133 224 192 111 q 75 490 75 338 q 133 757 75 644 q 297 931 192 869 q 546 993 403 993 q 794 931 689 993 q 958 757 900 869 q 1017 492 1017 644 q 958 224 1017 338 q 794 49 900 111 q 546 -14 689 -14 m 546 139 q 756 232 681 139 q 831 490 831 325 q 756 749 831 657 q 546 840 682 840 q 336 749 411 840 q 261 490 261 657 q 336 232 261 325 q 546 139 411 139 m 460 -283 l 460 -122 l 629 -122 l 629 -283 l 460 -283 m 297 1063 l 469 1304 l 619 1304 l 792 1063 l 669 1063 l 544 1207 l 419 1063 l 297 1063 z "},"Ồ":{"ha":1090,"x_min":75,"x_max":1017,"o":"m 546 -14 q 298 49 404 -14 q 133 224 192 111 q 75 490 75 338 q 133 757 75 644 q 297 931 192 869 q 546 993 403 993 q 794 931 689 993 q 958 757 900 869 q 1017 492 1017 644 q 958 224 1017 338 q 794 49 900 111 q 546 -14 689 -14 m 546 139 q 756 232 681 139 q 831 490 831 325 q 756 749 831 657 q 546 840 682 840 q 336 749 411 840 q 261 490 261 657 q 336 232 261 325 q 546 139 411 139 m 750 1211 l 588 1419 l 733 1419 l 850 1211 l 750 1211 m 315 1063 l 468 1289 l 621 1289 l 774 1063 l 663 1063 l 544 1194 l 426 1063 l 315 1063 z "},"Ổ":{"ha":1090,"x_min":75,"x_max":1017,"o":"m 546 -14 q 298 49 404 -14 q 133 224 192 111 q 75 490 75 338 q 133 757 75 644 q 297 931 192 869 q 546 993 403 993 q 794 931 689 993 q 958 757 900 869 q 1017 492 1017 644 q 958 224 1017 338 q 794 49 900 111 q 546 -14 689 -14 m 546 139 q 756 232 681 139 q 831 490 831 325 q 756 749 831 657 q 546 840 682 840 q 336 749 411 840 q 261 490 261 657 q 336 232 261 325 q 546 139 411 139 m 699 1211 q 716 1263 699 1244 q 751 1294 733 1281 q 768 1326 768 1308 q 755 1345 768 1340 q 719 1350 742 1350 q 680 1347 700 1350 q 639 1333 660 1343 l 617 1399 q 676 1418 644 1411 q 753 1425 708 1425 q 849 1406 815 1425 q 883 1354 883 1386 q 870 1311 883 1328 q 839 1281 857 1294 q 808 1251 821 1267 q 794 1211 794 1235 l 699 1211 m 315 1063 l 468 1289 l 621 1289 l 774 1063 l 663 1063 l 544 1194 l 426 1063 l 315 1063 z "},"Ỗ":{"ha":1090,"x_min":75,"x_max":1017,"o":"m 546 -14 q 298 49 404 -14 q 133 224 192 111 q 75 490 75 338 q 133 757 75 644 q 297 931 192 869 q 546 993 403 993 q 794 931 689 993 q 958 757 900 869 q 1017 492 1017 644 q 958 224 1017 338 q 794 49 900 111 q 546 -14 689 -14 m 546 139 q 756 232 681 139 q 831 490 831 325 q 756 749 831 657 q 546 840 682 840 q 336 749 411 840 q 261 490 261 657 q 336 232 261 325 q 546 139 411 139 m 386 1282 l 306 1286 q 352 1399 311 1361 q 453 1436 393 1436 q 502 1428 478 1436 q 558 1401 526 1419 q 632 1375 607 1375 q 703 1438 690 1375 l 783 1433 q 739 1321 779 1358 q 638 1283 699 1283 q 586 1292 611 1283 q 531 1318 561 1301 q 486 1339 501 1333 q 458 1344 471 1344 q 410 1329 426 1344 q 386 1282 393 1314 m 315 1063 l 468 1249 l 621 1249 l 774 1063 l 668 1063 l 544 1163 l 424 1063 l 315 1063 z "},"Ȍ":{"ha":1090,"x_min":75,"x_max":1017,"o":"m 546 -14 q 298 49 404 -14 q 133 224 192 111 q 75 490 75 338 q 133 757 75 644 q 297 931 192 869 q 546 993 403 993 q 794 931 689 993 q 958 757 900 869 q 1017 492 1017 644 q 958 224 1017 338 q 794 49 900 111 q 546 -14 689 -14 m 546 139 q 756 232 681 139 q 831 490 831 325 q 756 749 831 657 q 546 840 682 840 q 336 749 411 840 q 261 490 261 657 q 336 232 261 325 q 546 139 411 139 m 597 1063 l 422 1304 l 578 1304 l 696 1063 l 597 1063 m 394 1063 l 206 1304 l 361 1304 l 492 1063 l 394 1063 z "},"Ö":{"ha":1090,"x_min":75,"x_max":1017,"o":"m 546 -14 q 298 49 404 -14 q 133 224 192 111 q 75 490 75 338 q 133 757 75 644 q 297 931 192 869 q 546 993 403 993 q 794 931 689 993 q 958 757 900 869 q 1017 492 1017 644 q 958 224 1017 338 q 794 49 900 111 q 546 -14 689 -14 m 546 139 q 756 232 681 139 q 831 490 831 325 q 756 749 831 657 q 546 840 682 840 q 336 749 411 840 q 261 490 261 657 q 336 232 261 325 q 546 139 411 139 m 594 1097 l 594 1257 l 756 1257 l 756 1097 l 594 1097 m 333 1097 l 333 1257 l 494 1257 l 494 1097 l 333 1097 z "},"Ȫ":{"ha":1090,"x_min":75,"x_max":1017,"o":"m 546 -14 q 298 49 404 -14 q 133 224 192 111 q 75 490 75 338 q 133 757 75 644 q 297 931 192 869 q 546 993 403 993 q 794 931 689 993 q 958 757 900 869 q 1017 492 1017 644 q 958 224 1017 338 q 794 49 900 111 q 546 -14 689 -14 m 546 139 q 756 232 681 139 q 831 490 831 325 q 756 749 831 657 q 546 840 682 840 q 336 749 411 840 q 261 490 261 657 q 336 232 261 325 q 546 139 411 139 m 326 1283 l 326 1386 l 764 1386 l 764 1283 l 326 1283 m 333 1093 l 333 1215 l 494 1215 l 494 1093 l 333 1093 m 594 1093 l 594 1215 l 756 1215 l 756 1093 l 594 1093 z "},"Ȱ":{"ha":1090,"x_min":75,"x_max":1017,"o":"m 546 -14 q 298 49 404 -14 q 133 224 192 111 q 75 490 75 338 q 133 757 75 644 q 297 931 192 869 q 546 993 403 993 q 794 931 689 993 q 958 757 900 869 q 1017 492 1017 644 q 958 224 1017 338 q 794 49 900 111 q 546 -14 689 -14 m 546 139 q 756 232 681 139 q 831 490 831 325 q 756 749 831 657 q 546 840 682 840 q 336 749 411 840 q 261 490 261 657 q 336 232 261 325 q 546 139 411 139 m 325 1283 l 325 1386 l 764 1386 l 764 1283 l 325 1283 m 464 1093 l 464 1215 l 625 1215 l 625 1093 l 464 1093 z "},"Ọ":{"ha":1090,"x_min":75,"x_max":1017,"o":"m 546 -14 q 298 49 404 -14 q 133 224 192 111 q 75 490 75 338 q 133 757 75 644 q 297 931 192 869 q 546 993 403 993 q 794 931 689 993 q 958 757 900 869 q 1017 492 1017 644 q 958 224 1017 338 q 794 49 900 111 q 546 -14 689 -14 m 546 139 q 756 232 681 139 q 831 490 831 325 q 756 749 831 657 q 546 840 682 840 q 336 749 411 840 q 261 490 261 657 q 336 232 261 325 q 546 139 411 139 m 460 -283 l 460 -122 l 629 -122 l 629 -283 l 460 -283 z "},"Ò":{"ha":1090,"x_min":75,"x_max":1017,"o":"m 546 -14 q 298 49 404 -14 q 133 224 192 111 q 75 490 75 338 q 133 757 75 644 q 297 931 192 869 q 546 993 403 993 q 794 931 689 993 q 958 757 900 869 q 1017 492 1017 644 q 958 224 1017 338 q 794 49 900 111 q 546 -14 689 -14 m 546 139 q 756 232 681 139 q 831 490 831 325 q 756 749 831 657 q 546 840 682 840 q 336 749 411 840 q 261 490 261 657 q 336 232 261 325 q 546 139 411 139 m 483 1063 l 261 1304 l 443 1304 l 607 1063 l 483 1063 z "},"Ỏ":{"ha":1090,"x_min":75,"x_max":1017,"o":"m 546 -14 q 298 49 404 -14 q 133 224 192 111 q 75 490 75 338 q 133 757 75 644 q 297 931 192 869 q 546 993 403 993 q 794 931 689 993 q 958 757 900 869 q 1017 492 1017 644 q 958 224 1017 338 q 794 49 900 111 q 546 -14 689 -14 m 546 139 q 756 232 681 139 q 831 490 831 325 q 756 749 831 657 q 546 840 682 840 q 336 749 411 840 q 261 490 261 657 q 336 232 261 325 q 546 139 411 139 m 492 1063 l 492 1088 q 511 1138 492 1121 q 550 1169 531 1156 q 569 1201 569 1183 q 514 1229 569 1229 q 431 1211 472 1229 l 404 1285 q 556 1314 463 1314 q 663 1290 624 1314 q 701 1226 701 1267 q 686 1178 701 1196 q 650 1147 671 1160 q 614 1119 629 1133 q 599 1079 599 1104 l 599 1063 l 492 1063 z "},"Ơ":{"ha":1090,"x_min":75,"x_max":1017,"o":"m 546 -14 q 298 49 404 -14 q 133 224 192 111 q 75 490 75 338 q 133 757 75 644 q 297 931 192 869 q 546 993 403 993 q 794 931 689 993 q 958 757 900 869 q 1017 492 1017 644 q 958 224 1017 338 q 794 49 900 111 q 546 -14 689 -14 m 546 139 q 756 232 681 139 q 831 490 831 325 q 756 749 831 657 q 546 840 682 840 q 336 749 411 840 q 261 490 261 657 q 336 232 261 325 q 546 139 411 139 m 686 890 l 625 985 q 678 981 651 983 q 724 979 706 979 q 829 1010 797 979 q 861 1126 861 1042 l 861 1156 l 1011 1156 l 1011 1104 q 986 996 1011 1044 q 917 919 961 947 q 814 890 872 890 l 686 890 z "},"Ớ":{"ha":1090,"x_min":75,"x_max":1017,"o":"m 546 -14 q 298 49 404 -14 q 133 224 192 111 q 75 490 75 338 q 133 757 75 644 q 297 931 192 869 q 546 993 403 993 q 794 931 689 993 q 958 757 900 869 q 1017 492 1017 644 q 958 224 1017 338 q 794 49 900 111 q 546 -14 689 -14 m 546 139 q 756 232 681 139 q 831 490 831 325 q 756 749 831 657 q 546 840 682 840 q 336 749 411 840 q 261 490 261 657 q 336 232 261 325 q 546 139 411 139 m 686 890 l 625 985 q 678 981 651 983 q 724 979 706 979 q 829 1010 797 979 q 861 1126 861 1042 l 861 1156 l 1011 1156 l 1011 1104 q 986 996 1011 1044 q 917 919 961 947 q 814 890 872 890 l 686 890 m 479 1063 l 643 1304 l 824 1304 l 603 1063 l 479 1063 z "},"Ợ":{"ha":1090,"x_min":75,"x_max":1017,"o":"m 546 -14 q 298 49 404 -14 q 133 224 192 111 q 75 490 75 338 q 133 757 75 644 q 297 931 192 869 q 546 993 403 993 q 794 931 689 993 q 958 757 900 869 q 1017 492 1017 644 q 958 224 1017 338 q 794 49 900 111 q 546 -14 689 -14 m 546 139 q 756 232 681 139 q 831 490 831 325 q 756 749 831 657 q 546 840 682 840 q 336 749 411 840 q 261 490 261 657 q 336 232 261 325 q 546 139 411 139 m 686 890 l 625 985 q 678 981 651 983 q 724 979 706 979 q 829 1010 797 979 q 861 1126 861 1042 l 861 1156 l 1011 1156 l 1011 1104 q 986 996 1011 1044 q 917 919 961 947 q 814 890 872 890 l 686 890 m 457 -283 l 457 -122 l 626 -122 l 626 -283 l 457 -283 z "},"Ờ":{"ha":1090,"x_min":75,"x_max":1017,"o":"m 546 -14 q 298 49 404 -14 q 133 224 192 111 q 75 490 75 338 q 133 757 75 644 q 297 931 192 869 q 546 993 403 993 q 794 931 689 993 q 958 757 900 869 q 1017 492 1017 644 q 958 224 1017 338 q 794 49 900 111 q 546 -14 689 -14 m 546 139 q 756 232 681 139 q 831 490 831 325 q 756 749 831 657 q 546 840 682 840 q 336 749 411 840 q 261 490 261 657 q 336 232 261 325 q 546 139 411 139 m 686 890 l 625 985 q 678 981 651 983 q 724 979 706 979 q 829 1010 797 979 q 861 1126 861 1042 l 861 1156 l 1011 1156 l 1011 1104 q 986 996 1011 1044 q 917 919 961 947 q 814 890 872 890 l 686 890 m 479 1063 l 257 1304 l 439 1304 l 603 1063 l 479 1063 z "},"Ở":{"ha":1090,"x_min":75,"x_max":1017,"o":"m 546 -14 q 298 49 404 -14 q 133 224 192 111 q 75 490 75 338 q 133 757 75 644 q 297 931 192 869 q 546 993 403 993 q 794 931 689 993 q 958 757 900 869 q 1017 492 1017 644 q 958 224 1017 338 q 794 49 900 111 q 546 -14 689 -14 m 546 139 q 756 232 681 139 q 831 490 831 325 q 756 749 831 657 q 546 840 682 840 q 336 749 411 840 q 261 490 261 657 q 336 232 261 325 q 546 139 411 139 m 686 890 l 625 985 q 678 981 651 983 q 724 979 706 979 q 829 1010 797 979 q 861 1126 861 1042 l 861 1156 l 1011 1156 l 1011 1104 q 986 996 1011 1044 q 917 919 961 947 q 814 890 872 890 l 686 890 m 488 1063 l 488 1088 q 507 1138 488 1121 q 546 1169 526 1156 q 565 1201 565 1183 q 510 1229 565 1229 q 426 1211 468 1229 l 400 1285 q 551 1314 458 1314 q 658 1290 619 1314 q 697 1226 697 1267 q 682 1178 697 1196 q 646 1147 667 1160 q 610 1119 625 1133 q 594 1079 594 1104 l 594 1063 l 488 1063 z "},"Ỡ":{"ha":1090,"x_min":75,"x_max":1017,"o":"m 546 -14 q 298 49 404 -14 q 133 224 192 111 q 75 490 75 338 q 133 757 75 644 q 297 931 192 869 q 546 993 403 993 q 794 931 689 993 q 958 757 900 869 q 1017 492 1017 644 q 958 224 1017 338 q 794 49 900 111 q 546 -14 689 -14 m 546 139 q 756 232 681 139 q 831 490 831 325 q 756 749 831 657 q 546 840 682 840 q 336 749 411 840 q 261 490 261 657 q 336 232 261 325 q 546 139 411 139 m 686 890 l 625 985 q 678 981 651 983 q 724 979 706 979 q 829 1010 797 979 q 861 1126 861 1042 l 861 1156 l 1011 1156 l 1011 1104 q 986 996 1011 1044 q 917 919 961 947 q 814 890 872 890 l 686 890 m 331 1072 l 244 1078 q 299 1230 251 1176 q 419 1283 347 1283 q 480 1271 451 1283 q 543 1232 508 1258 q 592 1201 572 1211 q 632 1192 611 1192 q 722 1289 706 1192 l 808 1283 q 754 1131 801 1185 q 635 1078 707 1078 q 568 1093 599 1078 q 508 1131 538 1108 q 463 1160 483 1150 q 422 1169 443 1169 q 331 1072 347 1169 z "},"Ő":{"ha":1090,"x_min":75,"x_max":1017,"o":"m 546 -14 q 298 49 404 -14 q 133 224 192 111 q 75 490 75 338 q 133 757 75 644 q 297 931 192 869 q 546 993 403 993 q 794 931 689 993 q 958 757 900 869 q 1017 492 1017 644 q 958 224 1017 338 q 794 49 900 111 q 546 -14 689 -14 m 546 139 q 756 232 681 139 q 831 490 831 325 q 756 749 831 657 q 546 840 682 840 q 336 749 411 840 q 261 490 261 657 q 336 232 261 325 q 546 139 411 139 m 394 1063 l 513 1304 l 668 1304 l 492 1063 l 394 1063 m 597 1063 l 729 1304 l 885 1304 l 696 1063 l 597 1063 z "},"Ȏ":{"ha":1090,"x_min":75,"x_max":1017,"o":"m 546 -14 q 298 49 404 -14 q 133 224 192 111 q 75 490 75 338 q 133 757 75 644 q 297 931 192 869 q 546 993 403 993 q 794 931 689 993 q 958 757 900 869 q 1017 492 1017 644 q 958 224 1017 338 q 794 49 900 111 q 546 -14 689 -14 m 546 139 q 756 232 681 139 q 831 490 831 325 q 756 749 831 657 q 546 840 682 840 q 336 749 411 840 q 261 490 261 657 q 336 232 261 325 q 546 139 411 139 m 390 1056 l 292 1068 q 368 1241 299 1178 q 544 1304 438 1304 q 722 1241 653 1304 q 799 1068 790 1178 l 700 1056 q 653 1163 694 1125 q 544 1201 611 1201 q 437 1163 476 1201 q 390 1056 397 1125 z "},"Ō":{"ha":1090,"x_min":75,"x_max":1017,"o":"m 546 -14 q 298 49 404 -14 q 133 224 192 111 q 75 490 75 338 q 133 757 75 644 q 297 931 192 869 q 546 993 403 993 q 794 931 689 993 q 958 757 900 869 q 1017 492 1017 644 q 958 224 1017 338 q 794 49 900 111 q 546 -14 689 -14 m 546 139 q 756 232 681 139 q 831 490 831 325 q 756 749 831 657 q 546 840 682 840 q 336 749 411 840 q 261 490 261 657 q 336 232 261 325 q 546 139 411 139 m 306 1119 l 306 1222 l 785 1222 l 785 1119 l 306 1119 z "},"Ṓ":{"ha":1090,"x_min":75,"x_max":1017,"o":"m 546 -14 q 298 49 404 -14 q 133 224 192 111 q 75 490 75 338 q 133 757 75 644 q 297 931 192 869 q 546 993 403 993 q 794 931 689 993 q 958 757 900 869 q 1017 492 1017 644 q 958 224 1017 338 q 794 49 900 111 q 546 -14 689 -14 m 546 139 q 756 232 681 139 q 831 490 831 325 q 756 749 831 657 q 546 840 682 840 q 336 749 411 840 q 261 490 261 657 q 336 232 261 325 q 546 139 411 139 m 490 1242 l 592 1425 l 758 1425 l 599 1242 l 490 1242 m 326 1088 l 326 1190 l 764 1190 l 764 1088 l 326 1088 z "},"Ṑ":{"ha":1090,"x_min":75,"x_max":1017,"o":"m 546 -14 q 298 49 404 -14 q 133 224 192 111 q 75 490 75 338 q 133 757 75 644 q 297 931 192 869 q 546 993 403 993 q 794 931 689 993 q 958 757 900 869 q 1017 492 1017 644 q 958 224 1017 338 q 794 49 900 111 q 546 -14 689 -14 m 546 139 q 756 232 681 139 q 831 490 831 325 q 756 749 831 657 q 546 840 682 840 q 336 749 411 840 q 261 490 261 657 q 336 232 261 325 q 546 139 411 139 m 490 1242 l 332 1425 l 497 1425 l 599 1242 l 490 1242 m 326 1088 l 326 1190 l 764 1190 l 764 1088 l 326 1088 z "},"Ǫ":{"ha":1090,"x_min":75,"x_max":1017,"o":"m 546 -14 q 298 49 404 -14 q 133 224 192 111 q 75 490 75 338 q 133 757 75 644 q 297 931 192 869 q 546 993 403 993 q 794 931 689 993 q 958 757 900 869 q 1017 492 1017 644 q 958 224 1017 338 q 794 49 900 111 q 546 -14 689 -14 m 546 139 q 756 232 681 139 q 831 490 831 325 q 756 749 831 657 q 546 840 682 840 q 336 749 411 840 q 261 490 261 657 q 336 232 261 325 q 546 139 411 139 m 599 -271 q 478 -232 522 -271 q 435 -126 435 -193 q 474 -18 435 -68 q 576 58 513 32 l 628 0 q 569 -42 593 -14 q 544 -107 544 -71 q 567 -160 544 -142 q 622 -178 589 -178 q 660 -174 642 -178 q 697 -162 678 -169 l 718 -247 q 599 -271 667 -271 z "},"Ø":{"ha":1090,"x_min":75,"x_max":1017,"o":"m 546 -14 q 298 49 404 -14 q 133 224 192 111 q 75 490 75 338 q 133 757 75 644 q 297 931 192 869 q 546 993 403 993 q 794 931 689 993 q 958 757 900 869 q 1017 492 1017 644 q 958 224 1017 338 q 794 49 900 111 q 546 -14 689 -14 m 546 139 q 756 232 681 139 q 831 490 831 325 q 756 749 831 657 q 546 840 682 840 q 336 749 411 840 q 261 490 261 657 q 336 232 261 325 q 546 139 411 139 m 290 -83 l 174 -15 l 263 136 l 313 219 l 678 846 l 714 913 l 801 1063 l 918 994 l 829 843 l 779 760 l 414 135 l 378 68 l 290 -83 z "},"Ǿ":{"ha":1090,"x_min":75,"x_max":1017,"o":"m 546 -14 q 298 49 404 -14 q 133 224 192 111 q 75 490 75 338 q 133 757 75 644 q 297 931 192 869 q 546 993 403 993 q 794 931 689 993 q 958 757 900 869 q 1017 492 1017 644 q 958 224 1017 338 q 794 49 900 111 q 546 -14 689 -14 m 546 139 q 756 232 681 139 q 831 490 831 325 q 756 749 831 657 q 546 840 682 840 q 336 749 411 840 q 261 490 261 657 q 336 232 261 325 q 546 139 411 139 m 290 -83 l 174 -15 l 263 136 l 313 219 l 678 846 l 714 913 l 801 1063 l 918 994 l 829 843 l 779 760 l 414 135 l 378 68 l 290 -83 m 483 1063 l 647 1304 l 828 1304 l 607 1063 l 483 1063 z "},"Õ":{"ha":1090,"x_min":75,"x_max":1017,"o":"m 546 -14 q 298 49 404 -14 q 133 224 192 111 q 75 490 75 338 q 133 757 75 644 q 297 931 192 869 q 546 993 403 993 q 794 931 689 993 q 958 757 900 869 q 1017 492 1017 644 q 958 224 1017 338 q 794 49 900 111 q 546 -14 689 -14 m 546 139 q 756 232 681 139 q 831 490 831 325 q 756 749 831 657 q 546 840 682 840 q 336 749 411 840 q 261 490 261 657 q 336 232 261 325 q 546 139 411 139 m 321 1072 l 235 1078 q 294 1230 243 1176 q 421 1283 344 1283 q 489 1271 456 1283 q 565 1233 522 1258 q 632 1199 610 1207 q 672 1192 654 1192 q 768 1289 751 1192 l 854 1283 q 797 1131 847 1185 q 669 1078 746 1078 q 599 1092 635 1078 q 522 1129 563 1106 q 460 1161 483 1153 q 417 1169 436 1169 q 321 1072 340 1169 z "},"Ṍ":{"ha":1090,"x_min":75,"x_max":1017,"o":"m 546 -14 q 298 49 404 -14 q 133 224 192 111 q 75 490 75 338 q 133 757 75 644 q 297 931 192 869 q 546 993 403 993 q 794 931 689 993 q 958 757 900 869 q 1017 492 1017 644 q 958 224 1017 338 q 794 49 900 111 q 546 -14 689 -14 m 546 139 q 756 232 681 139 q 831 490 831 325 q 756 749 831 657 q 546 840 682 840 q 336 749 411 840 q 261 490 261 657 q 336 232 261 325 q 546 139 411 139 m 490 1242 l 592 1425 l 758 1425 l 599 1242 l 490 1242 m 638 1065 q 587 1074 611 1065 q 531 1100 563 1082 q 488 1121 504 1115 q 458 1126 472 1126 q 410 1111 426 1126 q 386 1064 393 1096 l 306 1068 q 352 1181 311 1143 q 453 1218 393 1218 q 500 1210 476 1218 q 558 1183 524 1203 q 601 1163 585 1169 q 632 1157 618 1157 q 703 1219 690 1157 l 783 1215 q 738 1103 778 1140 q 638 1065 699 1065 z "},"Ṏ":{"ha":1090,"x_min":75,"x_max":1017,"o":"m 546 -14 q 298 49 404 -14 q 133 224 192 111 q 75 490 75 338 q 133 757 75 644 q 297 931 192 869 q 546 993 403 993 q 794 931 689 993 q 958 757 900 869 q 1017 492 1017 644 q 958 224 1017 338 q 794 49 900 111 q 546 -14 689 -14 m 546 139 q 756 232 681 139 q 831 490 831 325 q 756 749 831 657 q 546 840 682 840 q 336 749 411 840 q 261 490 261 657 q 336 232 261 325 q 546 139 411 139 m 333 1268 l 333 1390 l 494 1390 l 494 1268 l 333 1268 m 594 1268 l 594 1390 l 756 1390 l 756 1268 l 594 1268 m 638 1065 q 587 1074 611 1065 q 531 1100 563 1082 q 488 1121 504 1115 q 458 1126 472 1126 q 410 1111 426 1126 q 386 1064 393 1096 l 306 1068 q 352 1181 311 1143 q 453 1218 393 1218 q 500 1210 476 1218 q 558 1183 524 1203 q 601 1163 585 1169 q 632 1157 618 1157 q 703 1219 690 1157 l 783 1215 q 738 1103 778 1140 q 638 1065 699 1065 z "},"Ȭ":{"ha":1090,"x_min":75,"x_max":1017,"o":"m 546 -14 q 298 49 404 -14 q 133 224 192 111 q 75 490 75 338 q 133 757 75 644 q 297 931 192 869 q 546 993 403 993 q 794 931 689 993 q 958 757 900 869 q 1017 492 1017 644 q 958 224 1017 338 q 794 49 900 111 q 546 -14 689 -14 m 546 139 q 756 232 681 139 q 831 490 831 325 q 756 749 831 657 q 546 840 682 840 q 336 749 411 840 q 261 490 261 657 q 336 232 261 325 q 546 139 411 139 m 325 1283 l 325 1386 l 764 1386 l 764 1283 l 325 1283 m 638 1065 q 587 1074 611 1065 q 531 1100 563 1082 q 488 1121 504 1115 q 458 1126 472 1126 q 410 1111 426 1126 q 386 1064 393 1096 l 306 1068 q 352 1181 311 1143 q 453 1218 393 1218 q 500 1210 476 1218 q 558 1183 524 1203 q 601 1163 585 1169 q 632 1157 618 1157 q 703 1219 690 1157 l 783 1215 q 738 1103 778 1140 q 638 1065 699 1065 z "},"Œ":{"ha":1467,"x_min":75,"x_max":1396,"o":"m 589 0 q 209 128 343 0 q 75 490 75 256 q 209 853 75 726 q 589 979 343 979 l 1396 979 l 1396 838 l 915 838 l 915 568 l 1365 568 l 1365 426 l 915 426 l 915 142 l 1396 142 l 1396 0 l 589 0 m 600 147 l 744 147 l 744 832 l 600 832 q 261 490 261 832 q 600 147 261 147 z "},"P":{"ha":906,"x_min":107,"x_max":868,"o":"m 107 0 l 107 979 l 532 979 q 781 899 693 979 q 868 674 868 818 q 781 448 868 529 q 532 367 693 367 l 285 367 l 285 0 l 107 0 m 285 507 l 504 507 q 696 674 696 507 q 504 839 696 839 l 285 839 l 285 507 z "},"Þ":{"ha":908,"x_min":107,"x_max":871,"o":"m 107 0 l 107 979 l 285 979 l 285 815 l 535 815 q 783 735 696 815 q 871 510 871 654 q 783 284 871 365 q 535 203 696 203 l 285 203 l 285 0 l 107 0 m 285 343 l 507 343 q 699 510 699 343 q 507 675 699 675 l 285 675 l 285 343 z "},"Q":{"ha":1090,"x_min":75,"x_max":1017,"o":"m 811 -296 l 676 -78 q 544 -14 636 -14 l 544 -14 q 297 49 403 -14 q 133 224 192 111 q 75 490 75 338 q 133 757 75 644 q 297 931 192 869 q 546 993 403 993 q 794 931 689 993 q 958 757 900 869 q 1017 492 1017 644 q 948 206 1017 325 q 758 31 879 86 q 861 -62 818 11 l 963 -224 l 811 -296 m 546 139 q 756 232 681 139 q 831 490 831 325 q 756 749 831 657 q 546 840 682 840 q 336 749 411 840 q 261 490 261 657 q 336 232 261 325 q 546 139 411 139 z "},"R":{"ha":953,"x_min":107,"x_max":928,"o":"m 107 0 l 107 979 l 532 979 q 781 902 693 979 q 868 686 868 825 q 811 505 868 576 q 647 408 754 433 q 764 301 718 386 l 928 0 l 732 0 l 563 313 q 503 375 538 358 q 417 392 469 392 l 285 392 l 285 0 l 107 0 m 285 524 l 501 524 q 696 682 696 524 q 501 839 696 839 l 285 839 l 285 524 z "},"Ŕ":{"ha":953,"x_min":107,"x_max":928,"o":"m 107 0 l 107 979 l 532 979 q 781 902 693 979 q 868 686 868 825 q 811 505 868 576 q 647 408 754 433 q 764 301 718 386 l 928 0 l 732 0 l 563 313 q 503 375 538 358 q 417 392 469 392 l 285 392 l 285 0 l 107 0 m 285 524 l 501 524 q 696 682 696 524 q 501 839 696 839 l 285 839 l 285 524 m 422 1063 l 586 1304 l 767 1304 l 546 1063 l 422 1063 z "},"Ř":{"ha":953,"x_min":107,"x_max":928,"o":"m 107 0 l 107 979 l 532 979 q 781 902 693 979 q 868 686 868 825 q 811 505 868 576 q 647 408 754 433 q 764 301 718 386 l 928 0 l 732 0 l 563 313 q 503 375 538 358 q 417 392 469 392 l 285 392 l 285 0 l 107 0 m 285 524 l 501 524 q 696 682 696 524 q 501 839 696 839 l 285 839 l 285 524 m 408 1063 l 236 1304 l 358 1304 l 483 1160 l 608 1304 l 731 1304 l 558 1063 l 408 1063 z "},"Ŗ":{"ha":953,"x_min":107,"x_max":928,"o":"m 107 0 l 107 979 l 532 979 q 781 902 693 979 q 868 686 868 825 q 811 505 868 576 q 647 408 754 433 q 764 301 718 386 l 928 0 l 732 0 l 563 313 q 503 375 538 358 q 417 392 469 392 l 285 392 l 285 0 l 107 0 m 285 524 l 501 524 q 696 682 696 524 q 501 839 696 839 l 285 839 l 285 524 m 496 -386 l 431 -342 q 467 -293 456 -317 q 482 -243 479 -269 l 394 -243 l 394 -101 l 575 -101 l 575 -194 q 557 -299 575 -251 q 496 -386 539 -347 z "},"Ȑ":{"ha":953,"x_min":107,"x_max":928,"o":"m 107 0 l 107 979 l 532 979 q 781 902 693 979 q 868 686 868 825 q 811 505 868 576 q 647 408 754 433 q 764 301 718 386 l 928 0 l 732 0 l 563 313 q 503 375 538 358 q 417 392 469 392 l 285 392 l 285 0 l 107 0 m 285 524 l 501 524 q 696 682 696 524 q 501 839 696 839 l 285 839 l 285 524 m 536 1063 l 361 1304 l 517 1304 l 635 1063 l 536 1063 m 333 1063 l 144 1304 l 300 1304 l 431 1063 l 333 1063 z "},"Ṛ":{"ha":953,"x_min":107,"x_max":928,"o":"m 107 0 l 107 979 l 532 979 q 781 902 693 979 q 868 686 868 825 q 811 505 868 576 q 647 408 754 433 q 764 301 718 386 l 928 0 l 732 0 l 563 313 q 503 375 538 358 q 417 392 469 392 l 285 392 l 285 0 l 107 0 m 285 524 l 501 524 q 696 682 696 524 q 501 839 696 839 l 285 839 l 285 524 m 400 -283 l 400 -122 l 569 -122 l 569 -283 l 400 -283 z "},"Ȓ":{"ha":953,"x_min":107,"x_max":928,"o":"m 107 0 l 107 979 l 532 979 q 781 902 693 979 q 868 686 868 825 q 811 505 868 576 q 647 408 754 433 q 764 301 718 386 l 928 0 l 732 0 l 563 313 q 503 375 538 358 q 417 392 469 392 l 285 392 l 285 0 l 107 0 m 285 524 l 501 524 q 696 682 696 524 q 501 839 696 839 l 285 839 l 285 524 m 329 1056 l 231 1068 q 307 1241 238 1178 q 483 1304 376 1304 q 660 1241 592 1304 q 738 1068 729 1178 l 639 1056 q 592 1163 633 1125 q 483 1201 550 1201 q 376 1163 415 1201 q 329 1056 336 1125 z "},"Ṟ":{"ha":953,"x_min":107,"x_max":928,"o":"m 107 0 l 107 979 l 532 979 q 781 902 693 979 q 868 686 868 825 q 811 505 868 576 q 647 408 754 433 q 764 301 718 386 l 928 0 l 732 0 l 563 313 q 503 375 538 358 q 417 392 469 392 l 285 392 l 285 0 l 107 0 m 285 524 l 501 524 q 696 682 696 524 q 501 839 696 839 l 285 839 l 285 524 m 267 -229 l 267 -126 l 704 -126 l 704 -229 l 267 -229 z "},"S":{"ha":876,"x_min":64,"x_max":831,"o":"m 444 -14 q 231 16 329 -14 q 64 97 132 46 l 118 238 q 267 163 186 189 q 444 136 349 136 q 604 173 554 136 q 654 268 654 210 q 619 344 654 317 q 497 390 583 372 l 344 422 q 83 690 83 478 q 132 850 83 782 q 267 956 181 918 q 465 993 353 993 q 653 963 565 993 q 799 879 740 933 l 744 746 q 464 843 629 843 q 314 803 368 843 q 260 697 260 763 q 293 617 260 647 q 407 571 326 588 l 558 539 q 763 447 696 510 q 831 281 831 385 q 783 126 831 193 q 649 23 736 60 q 444 -14 563 -14 z "},"Ś":{"ha":876,"x_min":64,"x_max":831,"o":"m 444 -14 q 231 16 329 -14 q 64 97 132 46 l 118 238 q 267 163 186 189 q 444 136 349 136 q 604 173 554 136 q 654 268 654 210 q 619 344 654 317 q 497 390 583 372 l 344 422 q 83 690 83 478 q 132 850 83 782 q 267 956 181 918 q 465 993 353 993 q 653 963 565 993 q 799 879 740 933 l 744 746 q 464 843 629 843 q 314 803 368 843 q 260 697 260 763 q 293 617 260 647 q 407 571 326 588 l 558 539 q 763 447 696 510 q 831 281 831 385 q 783 126 831 193 q 649 23 736 60 q 444 -14 563 -14 m 390 1063 l 554 1304 l 735 1304 l 514 1063 l 390 1063 z "},"Ṥ":{"ha":876,"x_min":64,"x_max":831,"o":"m 444 -14 q 231 16 329 -14 q 64 97 132 46 l 118 238 q 267 163 186 189 q 444 136 349 136 q 604 173 554 136 q 654 268 654 210 q 619 344 654 317 q 497 390 583 372 l 344 422 q 83 690 83 478 q 132 850 83 782 q 267 956 181 918 q 465 993 353 993 q 653 963 565 993 q 799 879 740 933 l 744 746 q 464 843 629 843 q 314 803 368 843 q 260 697 260 763 q 293 617 260 647 q 407 571 326 588 l 558 539 q 763 447 696 510 q 831 281 831 385 q 783 126 831 193 q 649 23 736 60 q 444 -14 563 -14 m 290 1296 l 290 1418 l 451 1418 l 451 1296 l 290 1296 m 390 1063 l 554 1304 l 735 1304 l 514 1063 l 390 1063 z "},"Š":{"ha":876,"x_min":64,"x_max":831,"o":"m 444 -14 q 231 16 329 -14 q 64 97 132 46 l 118 238 q 267 163 186 189 q 444 136 349 136 q 604 173 554 136 q 654 268 654 210 q 619 344 654 317 q 497 390 583 372 l 344 422 q 83 690 83 478 q 132 850 83 782 q 267 956 181 918 q 465 993 353 993 q 653 963 565 993 q 799 879 740 933 l 744 746 q 464 843 629 843 q 314 803 368 843 q 260 697 260 763 q 293 617 260 647 q 407 571 326 588 l 558 539 q 763 447 696 510 q 831 281 831 385 q 783 126 831 193 q 649 23 736 60 q 444 -14 563 -14 m 376 1063 l 204 1304 l 326 1304 l 451 1160 l 576 1304 l 699 1304 l 526 1063 l 376 1063 z "},"Ṧ":{"ha":876,"x_min":64,"x_max":831,"o":"m 444 -14 q 231 16 329 -14 q 64 97 132 46 l 118 238 q 267 163 186 189 q 444 136 349 136 q 604 173 554 136 q 654 268 654 210 q 619 344 654 317 q 497 390 583 372 l 344 422 q 83 690 83 478 q 132 850 83 782 q 267 956 181 918 q 465 993 353 993 q 653 963 565 993 q 799 879 740 933 l 744 746 q 464 843 629 843 q 314 803 368 843 q 260 697 260 763 q 293 617 260 647 q 407 571 326 588 l 558 539 q 763 447 696 510 q 831 281 831 385 q 783 126 831 193 q 649 23 736 60 q 444 -14 563 -14 m 371 1338 l 371 1460 l 532 1460 l 532 1338 l 371 1338 m 375 1063 l 222 1283 l 333 1283 l 451 1158 l 569 1283 l 681 1283 l 528 1063 l 375 1063 z "},"Ş":{"ha":876,"x_min":64,"x_max":831,"o":"m 444 -14 q 231 16 329 -14 q 64 97 132 46 l 118 238 q 267 163 186 189 q 444 136 349 136 q 604 173 554 136 q 654 268 654 210 q 619 344 654 317 q 497 390 583 372 l 344 422 q 83 690 83 478 q 132 850 83 782 q 267 956 181 918 q 465 993 353 993 q 653 963 565 993 q 799 879 740 933 l 744 746 q 464 843 629 843 q 314 803 368 843 q 260 697 260 763 q 293 617 260 647 q 407 571 326 588 l 558 539 q 763 447 696 510 q 831 281 831 385 q 783 126 831 193 q 649 23 736 60 q 444 -14 563 -14 m 450 -271 q 372 -263 410 -271 q 308 -242 335 -256 l 333 -164 q 383 -181 358 -175 q 436 -187 407 -187 q 511 -146 511 -187 q 460 -114 511 -114 q 433 -115 446 -114 q 403 -122 421 -117 l 376 -97 l 394 28 l 488 28 l 474 -53 q 489 -51 482 -51 q 581 -78 546 -51 q 615 -151 615 -104 q 569 -238 615 -206 q 450 -271 524 -271 z "},"Ŝ":{"ha":876,"x_min":64,"x_max":831,"o":"m 444 -14 q 231 16 329 -14 q 64 97 132 46 l 118 238 q 267 163 186 189 q 444 136 349 136 q 604 173 554 136 q 654 268 654 210 q 619 344 654 317 q 497 390 583 372 l 344 422 q 83 690 83 478 q 132 850 83 782 q 267 956 181 918 q 465 993 353 993 q 653 963 565 993 q 799 879 740 933 l 744 746 q 464 843 629 843 q 314 803 368 843 q 260 697 260 763 q 293 617 260 647 q 407 571 326 588 l 558 539 q 763 447 696 510 q 831 281 831 385 q 783 126 831 193 q 649 23 736 60 q 444 -14 563 -14 m 204 1063 l 376 1304 l 526 1304 l 699 1063 l 576 1063 l 451 1207 l 326 1063 l 204 1063 z "},"Ș":{"ha":876,"x_min":64,"x_max":831,"o":"m 444 -14 q 231 16 329 -14 q 64 97 132 46 l 118 238 q 267 163 186 189 q 444 136 349 136 q 604 173 554 136 q 654 268 654 210 q 619 344 654 317 q 497 390 583 372 l 344 422 q 83 690 83 478 q 132 850 83 782 q 267 956 181 918 q 465 993 353 993 q 653 963 565 993 q 799 879 740 933 l 744 746 q 464 843 629 843 q 314 803 368 843 q 260 697 260 763 q 293 617 260 647 q 407 571 326 588 l 558 539 q 763 447 696 510 q 831 281 831 385 q 783 126 831 193 q 649 23 736 60 q 444 -14 563 -14 m 460 -386 l 394 -342 q 431 -293 419 -317 q 446 -243 443 -269 l 358 -243 l 358 -101 l 539 -101 l 539 -194 q 521 -299 539 -251 q 460 -386 503 -347 z "},"Ṡ":{"ha":876,"x_min":64,"x_max":831,"o":"m 444 -14 q 231 16 329 -14 q 64 97 132 46 l 118 238 q 267 163 186 189 q 444 136 349 136 q 604 173 554 136 q 654 268 654 210 q 619 344 654 317 q 497 390 583 372 l 344 422 q 83 690 83 478 q 132 850 83 782 q 267 956 181 918 q 465 993 353 993 q 653 963 565 993 q 799 879 740 933 l 744 746 q 464 843 629 843 q 314 803 368 843 q 260 697 260 763 q 293 617 260 647 q 407 571 326 588 l 558 539 q 763 447 696 510 q 831 281 831 385 q 783 126 831 193 q 649 23 736 60 q 444 -14 563 -14 m 367 1103 l 367 1264 l 536 1264 l 536 1103 l 367 1103 z "},"Ṣ":{"ha":876,"x_min":64,"x_max":831,"o":"m 444 -14 q 231 16 329 -14 q 64 97 132 46 l 118 238 q 267 163 186 189 q 444 136 349 136 q 604 173 554 136 q 654 268 654 210 q 619 344 654 317 q 497 390 583 372 l 344 422 q 83 690 83 478 q 132 850 83 782 q 267 956 181 918 q 465 993 353 993 q 653 963 565 993 q 799 879 740 933 l 744 746 q 464 843 629 843 q 314 803 368 843 q 260 697 260 763 q 293 617 260 647 q 407 571 326 588 l 558 539 q 763 447 696 510 q 831 281 831 385 q 783 126 831 193 q 649 23 736 60 q 444 -14 563 -14 m 364 -283 l 364 -122 l 533 -122 l 533 -283 l 364 -283 z "},"Ṩ":{"ha":876,"x_min":64,"x_max":831,"o":"m 444 -14 q 231 16 329 -14 q 64 97 132 46 l 118 238 q 267 163 186 189 q 444 136 349 136 q 604 173 554 136 q 654 268 654 210 q 619 344 654 317 q 497 390 583 372 l 344 422 q 83 690 83 478 q 132 850 83 782 q 267 956 181 918 q 465 993 353 993 q 653 963 565 993 q 799 879 740 933 l 744 746 q 464 843 629 843 q 314 803 368 843 q 260 697 260 763 q 293 617 260 647 q 407 571 326 588 l 558 539 q 763 447 696 510 q 831 281 831 385 q 783 126 831 193 q 649 23 736 60 q 444 -14 563 -14 m 364 -283 l 364 -122 l 533 -122 l 533 -283 l 364 -283 m 367 1103 l 367 1264 l 536 1264 l 536 1103 l 367 1103 z "},"ẞ":{"ha":1014,"x_min":107,"x_max":942,"o":"m 628 -14 q 357 69 463 -14 l 411 197 q 507 145 460 161 q 610 129 554 129 q 728 169 686 129 q 769 276 769 208 q 574 421 769 421 l 424 421 l 424 560 l 547 560 q 672 597 626 560 q 718 704 718 635 q 669 812 718 775 q 525 849 619 849 q 285 624 285 849 l 285 0 l 107 0 l 107 625 q 218 900 107 807 q 533 993 329 993 q 794 922 699 993 q 890 729 890 851 q 856 597 890 654 q 757 508 821 539 q 892 423 842 486 q 942 265 942 360 q 859 60 942 133 q 628 -14 776 -14 z "},"Ə":{"ha":1090,"x_min":75,"x_max":1017,"o":"m 556 -14 q 290 51 397 -14 q 129 231 183 115 q 75 499 75 346 l 75 564 l 826 564 q 724 769 808 699 q 493 840 639 840 q 324 817 400 840 q 178 742 247 793 l 115 878 q 290 963 189 933 q 514 993 392 993 q 779 932 667 993 q 954 758 892 871 q 1017 489 1017 646 q 958 222 1017 335 q 797 48 900 110 q 556 -14 693 -14 m 547 133 q 740 206 667 133 q 826 419 813 279 l 260 419 q 547 133 288 133 z "},"T":{"ha":863,"x_min":7,"x_max":857,"o":"m 343 0 l 343 831 l 7 831 l 7 979 l 857 979 l 857 831 l 521 831 l 521 0 l 343 0 z "},"Ŧ":{"ha":863,"x_min":7,"x_max":857,"o":"m 343 0 l 343 831 l 7 831 l 7 979 l 857 979 l 857 831 l 521 831 l 521 0 l 343 0 m 151 431 l 151 561 l 713 561 l 713 431 l 151 431 z "},"Ť":{"ha":863,"x_min":7,"x_max":857,"o":"m 343 0 l 343 831 l 7 831 l 7 979 l 857 979 l 857 831 l 521 831 l 521 0 l 343 0 m 357 1063 l 185 1304 l 307 1304 l 432 1160 l 557 1304 l 679 1304 l 507 1063 l 357 1063 z "},"Ţ":{"ha":863,"x_min":7,"x_max":857,"o":"m 343 0 l 343 831 l 7 831 l 7 979 l 857 979 l 857 831 l 521 831 l 521 0 l 343 0 m 433 -271 q 356 -263 393 -271 q 292 -242 318 -256 l 317 -164 q 366 -181 342 -175 q 419 -187 390 -187 q 494 -146 494 -187 q 443 -114 494 -114 q 417 -115 429 -114 q 386 -122 404 -117 l 360 -97 l 378 28 l 471 28 l 457 -53 q 472 -51 465 -51 q 564 -78 529 -51 q 599 -151 599 -104 q 553 -238 599 -206 q 433 -271 507 -271 z "},"Ț":{"ha":863,"x_min":7,"x_max":857,"o":"m 343 0 l 343 831 l 7 831 l 7 979 l 857 979 l 857 831 l 521 831 l 521 0 l 343 0 m 443 -386 l 378 -342 q 415 -293 403 -317 q 429 -243 426 -269 l 342 -243 l 342 -101 l 522 -101 l 522 -194 q 504 -299 522 -251 q 443 -386 486 -347 z "},"Ṭ":{"ha":863,"x_min":7,"x_max":857,"o":"m 343 0 l 343 831 l 7 831 l 7 979 l 857 979 l 857 831 l 521 831 l 521 0 l 343 0 m 347 -283 l 347 -122 l 517 -122 l 517 -283 l 347 -283 z "},"Ṯ":{"ha":863,"x_min":7,"x_max":857,"o":"m 343 0 l 343 831 l 7 831 l 7 979 l 857 979 l 857 831 l 521 831 l 521 0 l 343 0 m 214 -229 l 214 -126 l 651 -126 l 651 -229 l 214 -229 z "},"U":{"ha":1025,"x_min":100,"x_max":925,"o":"m 514 -14 q 206 91 313 -14 q 100 401 100 196 l 100 979 l 278 979 l 278 403 q 338 205 278 271 q 514 139 399 139 q 749 403 749 139 l 749 979 l 925 979 l 925 401 q 821 91 925 196 q 514 -14 717 -14 z "},"Ú":{"ha":1025,"x_min":100,"x_max":925,"o":"m 514 -14 q 206 91 313 -14 q 100 401 100 196 l 100 979 l 278 979 l 278 403 q 338 205 278 271 q 514 139 399 139 q 749 403 749 139 l 749 979 l 925 979 l 925 401 q 821 91 925 196 q 514 -14 717 -14 m 453 1063 l 617 1304 l 797 1304 l 576 1063 l 453 1063 z "},"Ŭ":{"ha":1025,"x_min":100,"x_max":925,"o":"m 514 -14 q 206 91 313 -14 q 100 401 100 196 l 100 979 l 278 979 l 278 403 q 338 205 278 271 q 514 139 399 139 q 749 403 749 139 l 749 979 l 925 979 l 925 401 q 821 91 925 196 q 514 -14 717 -14 m 514 1056 q 338 1119 407 1056 q 261 1292 268 1183 l 360 1304 q 406 1198 367 1236 q 514 1160 446 1160 q 622 1198 581 1160 q 669 1304 664 1236 l 768 1292 q 691 1119 760 1183 q 514 1056 622 1056 z "},"Û":{"ha":1025,"x_min":100,"x_max":925,"o":"m 514 -14 q 206 91 313 -14 q 100 401 100 196 l 100 979 l 278 979 l 278 403 q 338 205 278 271 q 514 139 399 139 q 749 403 749 139 l 749 979 l 925 979 l 925 401 q 821 91 925 196 q 514 -14 717 -14 m 267 1063 l 439 1304 l 589 1304 l 761 1063 l 639 1063 l 514 1207 l 389 1063 l 267 1063 z "},"Ȕ":{"ha":1025,"x_min":100,"x_max":925,"o":"m 514 -14 q 206 91 313 -14 q 100 401 100 196 l 100 979 l 278 979 l 278 403 q 338 205 278 271 q 514 139 399 139 q 749 403 749 139 l 749 979 l 925 979 l 925 401 q 821 91 925 196 q 514 -14 717 -14 m 567 1063 l 392 1304 l 547 1304 l 665 1063 l 567 1063 m 364 1063 l 175 1304 l 331 1304 l 461 1063 l 364 1063 z "},"Ü":{"ha":1025,"x_min":100,"x_max":925,"o":"m 514 -14 q 206 91 313 -14 q 100 401 100 196 l 100 979 l 278 979 l 278 403 q 338 205 278 271 q 514 139 399 139 q 749 403 749 139 l 749 979 l 925 979 l 925 401 q 821 91 925 196 q 514 -14 717 -14 m 564 1097 l 564 1257 l 725 1257 l 725 1097 l 564 1097 m 303 1097 l 303 1257 l 464 1257 l 464 1097 l 303 1097 z "},"Ụ":{"ha":1025,"x_min":100,"x_max":925,"o":"m 514 -14 q 206 91 313 -14 q 100 401 100 196 l 100 979 l 278 979 l 278 403 q 338 205 278 271 q 514 139 399 139 q 749 403 749 139 l 749 979 l 925 979 l 925 401 q 821 91 925 196 q 514 -14 717 -14 m 429 -283 l 429 -122 l 599 -122 l 599 -283 l 429 -283 z "},"Ù":{"ha":1025,"x_min":100,"x_max":925,"o":"m 514 -14 q 206 91 313 -14 q 100 401 100 196 l 100 979 l 278 979 l 278 403 q 338 205 278 271 q 514 139 399 139 q 749 403 749 139 l 749 979 l 925 979 l 925 401 q 821 91 925 196 q 514 -14 717 -14 m 453 1063 l 231 1304 l 413 1304 l 576 1063 l 453 1063 z "},"Ủ":{"ha":1025,"x_min":100,"x_max":925,"o":"m 514 -14 q 206 91 313 -14 q 100 401 100 196 l 100 979 l 278 979 l 278 403 q 338 205 278 271 q 514 139 399 139 q 749 403 749 139 l 749 979 l 925 979 l 925 401 q 821 91 925 196 q 514 -14 717 -14 m 461 1063 l 461 1088 q 481 1138 461 1121 q 519 1169 500 1156 q 539 1201 539 1183 q 483 1229 539 1229 q 400 1211 442 1229 l 374 1285 q 525 1314 432 1314 q 632 1290 593 1314 q 671 1226 671 1267 q 656 1178 671 1196 q 619 1147 640 1160 q 583 1119 599 1133 q 568 1079 568 1104 l 568 1063 l 461 1063 z "},"Ư":{"ha":1025,"x_min":100,"x_max":1083,"o":"m 514 -14 q 206 91 313 -14 q 100 401 100 196 l 100 979 l 278 979 l 278 403 q 338 205 278 271 q 514 139 399 139 q 749 403 749 139 l 749 979 l 925 979 l 925 401 q 821 91 925 196 q 514 -14 717 -14 m 894 890 l 796 953 l 796 979 q 901 1012 869 981 q 932 1126 932 1043 l 932 1156 l 1083 1156 l 1083 1104 q 1033 957 1083 1015 q 894 890 982 899 z "},"Ứ":{"ha":1025,"x_min":100,"x_max":1083,"o":"m 514 -14 q 206 91 313 -14 q 100 401 100 196 l 100 979 l 278 979 l 278 403 q 338 205 278 271 q 514 139 399 139 q 749 403 749 139 l 749 979 l 925 979 l 925 401 q 821 91 925 196 q 514 -14 717 -14 m 894 890 l 796 953 l 796 979 q 901 1012 869 981 q 932 1126 932 1043 l 932 1156 l 1083 1156 l 1083 1104 q 1033 957 1083 1015 q 894 890 982 899 m 453 1063 l 617 1304 l 797 1304 l 576 1063 l 453 1063 z "},"Ự":{"ha":1025,"x_min":100,"x_max":1083,"o":"m 514 -14 q 206 91 313 -14 q 100 401 100 196 l 100 979 l 278 979 l 278 403 q 338 205 278 271 q 514 139 399 139 q 749 403 749 139 l 749 979 l 925 979 l 925 401 q 821 91 925 196 q 514 -14 717 -14 m 894 890 l 796 953 l 796 979 q 901 1012 869 981 q 932 1126 932 1043 l 932 1156 l 1083 1156 l 1083 1104 q 1033 957 1083 1015 q 894 890 982 899 m 429 -283 l 429 -122 l 599 -122 l 599 -283 l 429 -283 z "},"Ừ":{"ha":1025,"x_min":100,"x_max":1083,"o":"m 514 -14 q 206 91 313 -14 q 100 401 100 196 l 100 979 l 278 979 l 278 403 q 338 205 278 271 q 514 139 399 139 q 749 403 749 139 l 749 979 l 925 979 l 925 401 q 821 91 925 196 q 514 -14 717 -14 m 894 890 l 796 953 l 796 979 q 901 1012 869 981 q 932 1126 932 1043 l 932 1156 l 1083 1156 l 1083 1104 q 1033 957 1083 1015 q 894 890 982 899 m 453 1063 l 231 1304 l 413 1304 l 576 1063 l 453 1063 z "},"Ử":{"ha":1025,"x_min":100,"x_max":1083,"o":"m 514 -14 q 206 91 313 -14 q 100 401 100 196 l 100 979 l 278 979 l 278 403 q 338 205 278 271 q 514 139 399 139 q 749 403 749 139 l 749 979 l 925 979 l 925 401 q 821 91 925 196 q 514 -14 717 -14 m 894 890 l 796 953 l 796 979 q 901 1012 869 981 q 932 1126 932 1043 l 932 1156 l 1083 1156 l 1083 1104 q 1033 957 1083 1015 q 894 890 982 899 m 461 1063 l 461 1088 q 481 1138 461 1121 q 519 1169 500 1156 q 539 1201 539 1183 q 483 1229 539 1229 q 400 1211 442 1229 l 374 1285 q 525 1314 432 1314 q 632 1290 593 1314 q 671 1226 671 1267 q 656 1178 671 1196 q 619 1147 640 1160 q 583 1119 599 1133 q 568 1079 568 1104 l 568 1063 l 461 1063 z "},"Ữ":{"ha":1025,"x_min":100,"x_max":1083,"o":"m 514 -14 q 206 91 313 -14 q 100 401 100 196 l 100 979 l 278 979 l 278 403 q 338 205 278 271 q 514 139 399 139 q 749 403 749 139 l 749 979 l 925 979 l 925 401 q 821 91 925 196 q 514 -14 717 -14 m 894 890 l 796 953 l 796 979 q 901 1012 869 981 q 932 1126 932 1043 l 932 1156 l 1083 1156 l 1083 1104 q 1033 957 1083 1015 q 894 890 982 899 m 304 1072 l 218 1078 q 273 1230 225 1176 q 393 1283 321 1283 q 453 1271 425 1283 q 517 1232 482 1258 q 565 1201 546 1211 q 606 1192 585 1192 q 696 1289 679 1192 l 782 1283 q 728 1131 775 1185 q 608 1078 681 1078 q 542 1093 572 1078 q 482 1131 511 1108 q 437 1160 457 1150 q 396 1169 417 1169 q 304 1072 321 1169 z "},"Ű":{"ha":1025,"x_min":100,"x_max":925,"o":"m 514 -14 q 206 91 313 -14 q 100 401 100 196 l 100 979 l 278 979 l 278 403 q 338 205 278 271 q 514 139 399 139 q 749 403 749 139 l 749 979 l 925 979 l 925 401 q 821 91 925 196 q 514 -14 717 -14 m 364 1063 l 482 1304 l 638 1304 l 461 1063 l 364 1063 m 567 1063 l 699 1304 l 854 1304 l 665 1063 l 567 1063 z "},"Ȗ":{"ha":1025,"x_min":100,"x_max":925,"o":"m 514 -14 q 206 91 313 -14 q 100 401 100 196 l 100 979 l 278 979 l 278 403 q 338 205 278 271 q 514 139 399 139 q 749 403 749 139 l 749 979 l 925 979 l 925 401 q 821 91 925 196 q 514 -14 717 -14 m 360 1056 l 261 1068 q 338 1241 268 1178 q 514 1304 407 1304 q 691 1241 622 1304 q 768 1068 760 1178 l 669 1056 q 622 1163 664 1125 q 514 1201 581 1201 q 406 1163 446 1201 q 360 1056 367 1125 z "},"Ū":{"ha":1025,"x_min":100,"x_max":925,"o":"m 514 -14 q 206 91 313 -14 q 100 401 100 196 l 100 979 l 278 979 l 278 403 q 338 205 278 271 q 514 139 399 139 q 749 403 749 139 l 749 979 l 925 979 l 925 401 q 821 91 925 196 q 514 -14 717 -14 m 275 1119 l 275 1222 l 754 1222 l 754 1119 l 275 1119 z "},"Ṻ":{"ha":1025,"x_min":100,"x_max":925,"o":"m 514 -14 q 206 91 313 -14 q 100 401 100 196 l 100 979 l 278 979 l 278 403 q 338 205 278 271 q 514 139 399 139 q 749 403 749 139 l 749 979 l 925 979 l 925 401 q 821 91 925 196 q 514 -14 717 -14 m 303 1265 l 303 1386 l 464 1386 l 464 1265 l 303 1265 m 564 1265 l 564 1386 l 725 1386 l 725 1265 l 564 1265 m 296 1094 l 296 1197 l 733 1197 l 733 1094 l 296 1094 z "},"Ų":{"ha":1025,"x_min":100,"x_max":925,"o":"m 514 -14 q 206 91 313 -14 q 100 401 100 196 l 100 979 l 278 979 l 278 403 q 338 205 278 271 q 514 139 399 139 q 749 403 749 139 l 749 979 l 925 979 l 925 401 q 821 91 925 196 q 514 -14 717 -14 m 564 -271 q 444 -232 488 -271 q 400 -126 400 -193 q 439 -18 400 -68 q 542 58 478 32 l 593 0 q 534 -42 558 -14 q 510 -107 510 -71 q 532 -160 510 -142 q 588 -178 554 -178 q 625 -174 607 -178 q 663 -162 643 -169 l 683 -247 q 564 -271 632 -271 z "},"Ů":{"ha":1025,"x_min":100,"x_max":925,"o":"m 514 -14 q 206 91 313 -14 q 100 401 100 196 l 100 979 l 278 979 l 278 403 q 338 205 278 271 q 514 139 399 139 q 749 403 749 139 l 749 979 l 925 979 l 925 401 q 821 91 925 196 q 514 -14 717 -14 m 514 1049 q 425 1072 465 1049 q 362 1133 385 1094 q 339 1219 339 1172 q 390 1340 339 1292 q 514 1389 440 1389 q 638 1340 588 1389 q 689 1219 689 1292 q 666 1133 689 1172 q 603 1072 643 1094 q 514 1049 564 1049 m 514 1128 q 579 1154 554 1128 q 604 1219 604 1181 q 579 1284 604 1258 q 514 1310 554 1310 q 449 1284 475 1310 q 424 1219 424 1258 q 449 1154 424 1181 q 514 1128 475 1128 z "},"Ũ":{"ha":1025,"x_min":100,"x_max":925,"o":"m 514 -14 q 206 91 313 -14 q 100 401 100 196 l 100 979 l 278 979 l 278 403 q 338 205 278 271 q 514 139 399 139 q 749 403 749 139 l 749 979 l 925 979 l 925 401 q 821 91 925 196 q 514 -14 717 -14 m 290 1072 l 204 1078 q 263 1230 213 1176 q 390 1283 314 1283 q 458 1271 425 1283 q 535 1233 492 1258 q 601 1199 579 1207 q 642 1192 624 1192 q 738 1289 721 1192 l 824 1283 q 766 1131 817 1185 q 639 1078 715 1078 q 568 1092 604 1078 q 492 1129 532 1106 q 429 1161 453 1153 q 386 1169 406 1169 q 290 1072 310 1169 z "},"Ṹ":{"ha":1025,"x_min":100,"x_max":925,"o":"m 514 -14 q 206 91 313 -14 q 100 401 100 196 l 100 979 l 278 979 l 278 403 q 338 205 278 271 q 514 139 399 139 q 749 403 749 139 l 749 979 l 925 979 l 925 401 q 821 91 925 196 q 514 -14 717 -14 m 460 1242 l 561 1425 l 728 1425 l 568 1242 l 460 1242 m 607 1065 q 556 1074 581 1065 q 500 1100 532 1082 q 458 1121 474 1115 q 428 1126 442 1126 q 379 1111 396 1126 q 356 1064 363 1096 l 275 1068 q 322 1181 281 1143 q 422 1218 363 1218 q 469 1210 446 1218 q 528 1183 493 1203 q 571 1163 554 1169 q 601 1157 588 1157 q 672 1219 660 1157 l 753 1215 q 708 1103 747 1140 q 607 1065 668 1065 z "},"V":{"ha":990,"x_min":-15,"x_max":1006,"o":"m 421 0 l -15 979 l 175 979 l 499 228 l 822 979 l 1006 979 l 569 0 l 421 0 z "},"W":{"ha":1546,"x_min":31,"x_max":1518,"o":"m 376 0 l 31 979 l 214 979 l 457 257 l 713 979 l 844 979 l 1094 247 l 1344 979 l 1518 979 l 1169 0 l 1022 0 l 774 707 l 524 0 l 376 0 z "},"Ẃ":{"ha":1546,"x_min":31,"x_max":1518,"o":"m 376 0 l 31 979 l 214 979 l 457 257 l 713 979 l 844 979 l 1094 247 l 1344 979 l 1518 979 l 1169 0 l 1022 0 l 774 707 l 524 0 l 376 0 m 713 1063 l 876 1304 l 1057 1304 l 836 1063 l 713 1063 z "},"Ŵ":{"ha":1546,"x_min":31,"x_max":1518,"o":"m 376 0 l 31 979 l 214 979 l 457 257 l 713 979 l 844 979 l 1094 247 l 1344 979 l 1518 979 l 1169 0 l 1022 0 l 774 707 l 524 0 l 376 0 m 526 1063 l 699 1304 l 849 1304 l 1021 1063 l 899 1063 l 774 1207 l 649 1063 l 526 1063 z "},"Ẅ":{"ha":1546,"x_min":31,"x_max":1518,"o":"m 376 0 l 31 979 l 214 979 l 457 257 l 713 979 l 844 979 l 1094 247 l 1344 979 l 1518 979 l 1169 0 l 1022 0 l 774 707 l 524 0 l 376 0 m 824 1097 l 824 1257 l 985 1257 l 985 1097 l 824 1097 m 563 1097 l 563 1257 l 724 1257 l 724 1097 l 563 1097 z "},"Ẁ":{"ha":1546,"x_min":31,"x_max":1518,"o":"m 376 0 l 31 979 l 214 979 l 457 257 l 713 979 l 844 979 l 1094 247 l 1344 979 l 1518 979 l 1169 0 l 1022 0 l 774 707 l 524 0 l 376 0 m 713 1063 l 490 1304 l 672 1304 l 836 1063 l 713 1063 z "},"X":{"ha":933,"x_min":-8,"x_max":942,"o":"m -8 0 l 365 499 l 6 979 l 213 979 l 467 628 l 721 979 l 929 979 l 569 499 l 942 0 l 733 0 l 467 367 l 201 0 l -8 0 z "},"Y":{"ha":858,"x_min":-36,"x_max":893,"o":"m 340 0 l 340 450 l -36 979 l 171 979 l 432 608 l 694 979 l 893 979 l 518 449 l 518 0 l 340 0 z "},"Ý":{"ha":858,"x_min":-36,"x_max":893,"o":"m 340 0 l 340 450 l -36 979 l 171 979 l 432 608 l 694 979 l 893 979 l 518 449 l 518 0 l 340 0 m 368 1063 l 532 1304 l 713 1304 l 492 1063 l 368 1063 z "},"Ŷ":{"ha":858,"x_min":-36,"x_max":893,"o":"m 340 0 l 340 450 l -36 979 l 171 979 l 432 608 l 694 979 l 893 979 l 518 449 l 518 0 l 340 0 m 182 1063 l 354 1304 l 504 1304 l 676 1063 l 554 1063 l 429 1207 l 304 1063 l 182 1063 z "},"Ÿ":{"ha":858,"x_min":-36,"x_max":893,"o":"m 340 0 l 340 450 l -36 979 l 171 979 l 432 608 l 694 979 l 893 979 l 518 449 l 518 0 l 340 0 m 479 1097 l 479 1257 l 640 1257 l 640 1097 l 479 1097 m 218 1097 l 218 1257 l 379 1257 l 379 1097 l 218 1097 z "},"Ẏ":{"ha":858,"x_min":-36,"x_max":893,"o":"m 340 0 l 340 450 l -36 979 l 171 979 l 432 608 l 694 979 l 893 979 l 518 449 l 518 0 l 340 0 m 344 1103 l 344 1264 l 514 1264 l 514 1103 l 344 1103 z "},"Ỵ":{"ha":858,"x_min":-36,"x_max":893,"o":"m 340 0 l 340 450 l -36 979 l 171 979 l 432 608 l 694 979 l 893 979 l 518 449 l 518 0 l 340 0 m 344 -283 l 344 -122 l 514 -122 l 514 -283 l 344 -283 z "},"Ỳ":{"ha":858,"x_min":-36,"x_max":893,"o":"m 340 0 l 340 450 l -36 979 l 171 979 l 432 608 l 694 979 l 893 979 l 518 449 l 518 0 l 340 0 m 368 1063 l 146 1304 l 328 1304 l 492 1063 l 368 1063 z "},"Ƴ":{"ha":860,"x_min":-36,"x_max":946,"o":"m 340 0 l 340 450 l -36 979 l 171 979 l 432 607 l 608 863 q 711 960 654 928 q 849 992 768 992 q 946 976 908 992 l 946 853 q 878 863 918 863 q 815 847 844 863 q 758 796 785 832 l 518 449 l 518 0 l 340 0 z "},"Ỷ":{"ha":858,"x_min":-36,"x_max":893,"o":"m 340 0 l 340 450 l -36 979 l 171 979 l 432 608 l 694 979 l 893 979 l 518 449 l 518 0 l 340 0 m 376 1063 l 376 1088 q 396 1138 376 1121 q 435 1169 415 1156 q 454 1201 454 1183 q 399 1229 454 1229 q 315 1211 357 1229 l 289 1285 q 440 1314 347 1314 q 547 1290 508 1314 q 586 1226 586 1267 q 571 1178 586 1196 q 535 1147 556 1160 q 499 1119 514 1133 q 483 1079 483 1104 l 483 1063 l 376 1063 z "},"Ȳ":{"ha":858,"x_min":-36,"x_max":893,"o":"m 340 0 l 340 450 l -36 979 l 171 979 l 432 608 l 694 979 l 893 979 l 518 449 l 518 0 l 340 0 m 190 1119 l 190 1222 l 669 1222 l 669 1119 l 190 1119 z "},"Ỹ":{"ha":858,"x_min":-36,"x_max":893,"o":"m 340 0 l 340 450 l -36 979 l 171 979 l 432 608 l 694 979 l 893 979 l 518 449 l 518 0 l 340 0 m 206 1072 l 119 1078 q 178 1230 128 1176 q 306 1283 229 1283 q 374 1271 340 1283 q 450 1233 407 1258 q 517 1199 494 1207 q 557 1192 539 1192 q 653 1289 636 1192 l 739 1283 q 681 1131 732 1185 q 554 1078 631 1078 q 483 1092 519 1078 q 407 1129 447 1106 q 344 1161 368 1153 q 301 1169 321 1169 q 206 1072 225 1169 z "},"Z":{"ha":840,"x_min":65,"x_max":811,"o":"m 65 0 l 65 131 l 582 831 l 65 831 l 65 979 l 790 979 l 790 849 l 274 149 l 811 149 l 811 0 l 65 0 z "},"Ź":{"ha":840,"x_min":65,"x_max":811,"o":"m 65 0 l 65 131 l 582 831 l 65 831 l 65 979 l 790 979 l 790 849 l 274 149 l 811 149 l 811 0 l 65 0 m 374 1063 l 538 1304 l 718 1304 l 497 1063 l 374 1063 z "},"Ž":{"ha":840,"x_min":65,"x_max":811,"o":"m 65 0 l 65 131 l 582 831 l 65 831 l 65 979 l 790 979 l 790 849 l 274 149 l 811 149 l 811 0 l 65 0 m 360 1063 l 188 1304 l 310 1304 l 435 1160 l 560 1304 l 682 1304 l 510 1063 l 360 1063 z "},"Ż":{"ha":840,"x_min":65,"x_max":811,"o":"m 65 0 l 65 131 l 582 831 l 65 831 l 65 979 l 790 979 l 790 849 l 274 149 l 811 149 l 811 0 l 65 0 m 350 1103 l 350 1264 l 519 1264 l 519 1103 l 350 1103 z "},"Ẓ":{"ha":840,"x_min":65,"x_max":811,"o":"m 65 0 l 65 131 l 582 831 l 65 831 l 65 979 l 790 979 l 790 849 l 274 149 l 811 149 l 811 0 l 65 0 m 351 -283 l 351 -122 l 521 -122 l 521 -283 l 351 -283 z "},"a":{"ha":760,"x_min":60,"x_max":674,"o":"m 314 -14 q 183 15 240 -14 q 92 92 125 43 q 60 201 60 140 q 99 320 60 276 q 225 383 138 364 q 460 403 313 403 l 508 403 l 508 432 q 478 532 508 501 q 375 563 447 563 q 258 545 318 563 q 138 492 199 528 l 88 610 q 173 653 124 635 q 277 683 222 672 q 381 693 332 693 q 601 624 529 693 q 674 411 674 556 l 674 0 l 511 0 l 511 108 q 436 19 488 51 q 314 -14 385 -14 m 350 106 q 463 153 418 106 q 508 272 508 200 l 508 303 l 461 303 q 280 283 331 303 q 229 210 229 263 q 261 135 229 164 q 350 106 293 106 z "},"á":{"ha":760,"x_min":60,"x_max":674,"o":"m 314 -14 q 183 15 240 -14 q 92 92 125 43 q 60 201 60 140 q 99 320 60 276 q 225 383 138 364 q 460 403 313 403 l 508 403 l 508 432 q 478 532 508 501 q 375 563 447 563 q 258 545 318 563 q 138 492 199 528 l 88 610 q 173 653 124 635 q 277 683 222 672 q 381 693 332 693 q 601 624 529 693 q 674 411 674 556 l 674 0 l 511 0 l 511 108 q 436 19 488 51 q 314 -14 385 -14 m 350 106 q 463 153 418 106 q 508 272 508 200 l 508 303 l 461 303 q 280 283 331 303 q 229 210 229 263 q 261 135 229 164 q 350 106 293 106 m 329 769 l 472 1051 l 643 1051 l 446 769 l 329 769 z "},"ă":{"ha":760,"x_min":60,"x_max":674,"o":"m 314 -14 q 183 15 240 -14 q 92 92 125 43 q 60 201 60 140 q 99 320 60 276 q 225 383 138 364 q 460 403 313 403 l 508 403 l 508 432 q 478 532 508 501 q 375 563 447 563 q 258 545 318 563 q 138 492 199 528 l 88 610 q 173 653 124 635 q 277 683 222 672 q 381 693 332 693 q 601 624 529 693 q 674 411 674 556 l 674 0 l 511 0 l 511 108 q 436 19 488 51 q 314 -14 385 -14 m 350 106 q 463 153 418 106 q 508 272 508 200 l 508 303 l 461 303 q 280 283 331 303 q 229 210 229 263 q 261 135 229 164 q 350 106 293 106 m 388 765 q 224 838 286 765 q 157 1033 161 910 l 256 1043 q 295 915 261 960 q 388 871 329 871 q 480 915 446 871 q 519 1043 514 960 l 618 1033 q 553 838 615 910 q 388 765 490 765 z "},"ắ":{"ha":760,"x_min":60,"x_max":674,"o":"m 314 -14 q 183 15 240 -14 q 92 92 125 43 q 60 201 60 140 q 99 320 60 276 q 225 383 138 364 q 460 403 313 403 l 508 403 l 508 432 q 478 532 508 501 q 375 563 447 563 q 258 545 318 563 q 138 492 199 528 l 88 610 q 173 653 124 635 q 277 683 222 672 q 381 693 332 693 q 601 624 529 693 q 674 411 674 556 l 674 0 l 511 0 l 511 108 q 436 19 488 51 q 314 -14 385 -14 m 350 106 q 463 153 418 106 q 508 272 508 200 l 508 303 l 461 303 q 280 283 331 303 q 229 210 229 263 q 261 135 229 164 q 350 106 293 106 m 325 942 l 426 1125 l 593 1125 l 433 942 l 325 942 m 388 765 q 223 823 286 765 q 150 978 160 881 l 235 988 q 284 895 246 928 q 388 863 322 863 q 492 895 454 863 q 540 988 529 928 l 625 978 q 553 823 617 881 q 388 765 490 765 z "},"ặ":{"ha":760,"x_min":60,"x_max":674,"o":"m 314 -14 q 183 15 240 -14 q 92 92 125 43 q 60 201 60 140 q 99 320 60 276 q 225 383 138 364 q 460 403 313 403 l 508 403 l 508 432 q 478 532 508 501 q 375 563 447 563 q 258 545 318 563 q 138 492 199 528 l 88 610 q 173 653 124 635 q 277 683 222 672 q 381 693 332 693 q 601 624 529 693 q 674 411 674 556 l 674 0 l 511 0 l 511 108 q 436 19 488 51 q 314 -14 385 -14 m 350 106 q 463 153 418 106 q 508 272 508 200 l 508 303 l 461 303 q 280 283 331 303 q 229 210 229 263 q 261 135 229 164 q 350 106 293 106 m 297 -283 l 297 -122 l 467 -122 l 467 -283 l 297 -283 m 388 765 q 224 838 286 765 q 157 1033 161 910 l 256 1043 q 295 915 261 960 q 388 871 329 871 q 480 915 446 871 q 519 1043 514 960 l 618 1033 q 553 838 615 910 q 388 765 490 765 z "},"ằ":{"ha":760,"x_min":60,"x_max":674,"o":"m 314 -14 q 183 15 240 -14 q 92 92 125 43 q 60 201 60 140 q 99 320 60 276 q 225 383 138 364 q 460 403 313 403 l 508 403 l 508 432 q 478 532 508 501 q 375 563 447 563 q 258 545 318 563 q 138 492 199 528 l 88 610 q 173 653 124 635 q 277 683 222 672 q 381 693 332 693 q 601 624 529 693 q 674 411 674 556 l 674 0 l 511 0 l 511 108 q 436 19 488 51 q 314 -14 385 -14 m 350 106 q 463 153 418 106 q 508 272 508 200 l 508 303 l 461 303 q 280 283 331 303 q 229 210 229 263 q 261 135 229 164 q 350 106 293 106 m 342 942 l 183 1125 l 349 1125 l 450 942 l 342 942 m 388 765 q 223 823 286 765 q 150 978 160 881 l 235 988 q 284 895 246 928 q 388 863 322 863 q 492 895 454 863 q 540 988 529 928 l 625 978 q 553 823 617 881 q 388 765 490 765 z "},"ẳ":{"ha":760,"x_min":60,"x_max":674,"o":"m 314 -14 q 183 15 240 -14 q 92 92 125 43 q 60 201 60 140 q 99 320 60 276 q 225 383 138 364 q 460 403 313 403 l 508 403 l 508 432 q 478 532 508 501 q 375 563 447 563 q 258 545 318 563 q 138 492 199 528 l 88 610 q 173 653 124 635 q 277 683 222 672 q 381 693 332 693 q 601 624 529 693 q 674 411 674 556 l 674 0 l 511 0 l 511 108 q 436 19 488 51 q 314 -14 385 -14 m 350 106 q 463 153 418 106 q 508 272 508 200 l 508 303 l 461 303 q 280 283 331 303 q 229 210 229 263 q 261 135 229 164 q 350 106 293 106 m 340 942 q 358 990 340 975 q 392 1015 375 1004 q 410 1044 410 1026 q 397 1063 410 1058 q 361 1068 383 1068 q 322 1065 342 1068 q 281 1051 301 1061 l 258 1117 q 318 1136 286 1129 q 394 1143 350 1143 q 491 1124 457 1143 q 525 1072 525 1104 q 512 1031 525 1046 q 481 1003 499 1015 q 449 978 463 992 q 436 942 436 965 l 340 942 m 388 765 q 223 823 286 765 q 150 978 160 881 l 235 988 q 284 895 246 928 q 388 863 322 863 q 492 895 454 863 q 540 988 529 928 l 625 978 q 553 823 617 881 q 388 765 490 765 z "},"ẵ":{"ha":760,"x_min":60,"x_max":674,"o":"m 314 -14 q 183 15 240 -14 q 92 92 125 43 q 60 201 60 140 q 99 320 60 276 q 225 383 138 364 q 460 403 313 403 l 508 403 l 508 432 q 478 532 508 501 q 375 563 447 563 q 258 545 318 563 q 138 492 199 528 l 88 610 q 173 653 124 635 q 277 683 222 672 q 381 693 332 693 q 601 624 529 693 q 674 411 674 556 l 674 0 l 511 0 l 511 108 q 436 19 488 51 q 314 -14 385 -14 m 350 106 q 463 153 418 106 q 508 272 508 200 l 508 303 l 461 303 q 280 283 331 303 q 229 210 229 263 q 261 135 229 164 q 350 106 293 106 m 229 988 l 149 992 q 195 1104 154 1067 q 296 1142 236 1142 q 345 1133 321 1142 q 401 1107 369 1125 q 475 1081 450 1081 q 546 1143 533 1081 l 626 1139 q 581 1026 621 1064 q 481 989 542 989 q 429 998 454 989 q 374 1024 404 1007 q 329 1044 344 1039 q 301 1050 314 1050 q 253 1035 269 1050 q 229 988 236 1019 m 388 765 q 233 808 297 765 q 150 922 169 850 l 235 946 q 290 885 251 907 q 388 863 328 863 q 486 885 449 863 q 540 946 524 907 l 625 922 q 543 808 607 850 q 388 765 479 765 z "},"ǎ":{"ha":760,"x_min":60,"x_max":674,"o":"m 314 -14 q 183 15 240 -14 q 92 92 125 43 q 60 201 60 140 q 99 320 60 276 q 225 383 138 364 q 460 403 313 403 l 508 403 l 508 432 q 478 532 508 501 q 375 563 447 563 q 258 545 318 563 q 138 492 199 528 l 88 610 q 173 653 124 635 q 277 683 222 672 q 381 693 332 693 q 601 624 529 693 q 674 411 674 556 l 674 0 l 511 0 l 511 108 q 436 19 488 51 q 314 -14 385 -14 m 350 106 q 463 153 418 106 q 508 272 508 200 l 508 303 l 461 303 q 280 283 331 303 q 229 210 229 263 q 261 135 229 164 q 350 106 293 106 m 311 769 l 158 1051 l 269 1051 l 388 868 l 506 1051 l 617 1051 l 464 769 l 311 769 z "},"â":{"ha":760,"x_min":60,"x_max":674,"o":"m 314 -14 q 183 15 240 -14 q 92 92 125 43 q 60 201 60 140 q 99 320 60 276 q 225 383 138 364 q 460 403 313 403 l 508 403 l 508 432 q 478 532 508 501 q 375 563 447 563 q 258 545 318 563 q 138 492 199 528 l 88 610 q 173 653 124 635 q 277 683 222 672 q 381 693 332 693 q 601 624 529 693 q 674 411 674 556 l 674 0 l 511 0 l 511 108 q 436 19 488 51 q 314 -14 385 -14 m 350 106 q 463 153 418 106 q 508 272 508 200 l 508 303 l 461 303 q 280 283 331 303 q 229 210 229 263 q 261 135 229 164 q 350 106 293 106 m 158 769 l 311 1051 l 464 1051 l 617 769 l 506 769 l 388 953 l 269 769 l 158 769 z "},"ấ":{"ha":760,"x_min":60,"x_max":800,"o":"m 314 -14 q 183 15 240 -14 q 92 92 125 43 q 60 201 60 140 q 99 320 60 276 q 225 383 138 364 q 460 403 313 403 l 508 403 l 508 432 q 478 532 508 501 q 375 563 447 563 q 258 545 318 563 q 138 492 199 528 l 88 610 q 173 653 124 635 q 277 683 222 672 q 381 693 332 693 q 601 624 529 693 q 674 411 674 556 l 674 0 l 511 0 l 511 108 q 436 19 488 51 q 314 -14 385 -14 m 350 106 q 463 153 418 106 q 508 272 508 200 l 508 303 l 461 303 q 280 283 331 303 q 229 210 229 263 q 261 135 229 164 q 350 106 293 106 m 539 917 l 656 1125 l 800 1125 l 638 917 l 539 917 m 158 769 l 311 996 l 464 996 l 617 769 l 506 769 l 388 901 l 269 769 l 158 769 z "},"ậ":{"ha":760,"x_min":60,"x_max":674,"o":"m 314 -14 q 183 15 240 -14 q 92 92 125 43 q 60 201 60 140 q 99 320 60 276 q 225 383 138 364 q 460 403 313 403 l 508 403 l 508 432 q 478 532 508 501 q 375 563 447 563 q 258 545 318 563 q 138 492 199 528 l 88 610 q 173 653 124 635 q 277 683 222 672 q 381 693 332 693 q 601 624 529 693 q 674 411 674 556 l 674 0 l 511 0 l 511 108 q 436 19 488 51 q 314 -14 385 -14 m 350 106 q 463 153 418 106 q 508 272 508 200 l 508 303 l 461 303 q 280 283 331 303 q 229 210 229 263 q 261 135 229 164 q 350 106 293 106 m 297 -283 l 297 -122 l 467 -122 l 467 -283 l 297 -283 m 158 769 l 311 1051 l 464 1051 l 617 769 l 506 769 l 388 953 l 269 769 l 158 769 z "},"ầ":{"ha":760,"x_min":60,"x_max":693,"o":"m 314 -14 q 183 15 240 -14 q 92 92 125 43 q 60 201 60 140 q 99 320 60 276 q 225 383 138 364 q 460 403 313 403 l 508 403 l 508 432 q 478 532 508 501 q 375 563 447 563 q 258 545 318 563 q 138 492 199 528 l 88 610 q 173 653 124 635 q 277 683 222 672 q 381 693 332 693 q 601 624 529 693 q 674 411 674 556 l 674 0 l 511 0 l 511 108 q 436 19 488 51 q 314 -14 385 -14 m 350 106 q 463 153 418 106 q 508 272 508 200 l 508 303 l 461 303 q 280 283 331 303 q 229 210 229 263 q 261 135 229 164 q 350 106 293 106 m 593 917 l 431 1125 l 576 1125 l 693 917 l 593 917 m 158 769 l 311 996 l 464 996 l 617 769 l 506 769 l 388 901 l 269 769 l 158 769 z "},"ẩ":{"ha":760,"x_min":60,"x_max":726,"o":"m 314 -14 q 183 15 240 -14 q 92 92 125 43 q 60 201 60 140 q 99 320 60 276 q 225 383 138 364 q 460 403 313 403 l 508 403 l 508 432 q 478 532 508 501 q 375 563 447 563 q 258 545 318 563 q 138 492 199 528 l 88 610 q 173 653 124 635 q 277 683 222 672 q 381 693 332 693 q 601 624 529 693 q 674 411 674 556 l 674 0 l 511 0 l 511 108 q 436 19 488 51 q 314 -14 385 -14 m 350 106 q 463 153 418 106 q 508 272 508 200 l 508 303 l 461 303 q 280 283 331 303 q 229 210 229 263 q 261 135 229 164 q 350 106 293 106 m 542 917 q 559 969 542 951 q 594 1001 576 988 q 611 1033 611 1014 q 598 1051 611 1046 q 563 1056 585 1056 q 523 1052 543 1056 q 482 1040 503 1049 l 460 1106 q 519 1124 488 1118 q 596 1131 551 1131 q 692 1112 658 1131 q 726 1060 726 1093 q 713 1017 726 1033 q 682 986 700 1000 q 651 956 664 972 q 638 917 638 940 l 542 917 m 158 769 l 311 996 l 464 996 l 617 769 l 506 769 l 388 901 l 269 769 l 158 769 z "},"ẫ":{"ha":760,"x_min":60,"x_max":674,"o":"m 314 -14 q 183 15 240 -14 q 92 92 125 43 q 60 201 60 140 q 99 320 60 276 q 225 383 138 364 q 460 403 313 403 l 508 403 l 508 432 q 478 532 508 501 q 375 563 447 563 q 258 545 318 563 q 138 492 199 528 l 88 610 q 173 653 124 635 q 277 683 222 672 q 381 693 332 693 q 601 624 529 693 q 674 411 674 556 l 674 0 l 511 0 l 511 108 q 436 19 488 51 q 314 -14 385 -14 m 350 106 q 463 153 418 106 q 508 272 508 200 l 508 303 l 461 303 q 280 283 331 303 q 229 210 229 263 q 261 135 229 164 q 350 106 293 106 m 229 988 l 149 992 q 195 1104 154 1067 q 296 1142 236 1142 q 345 1133 321 1142 q 401 1107 369 1125 q 475 1081 450 1081 q 546 1143 533 1081 l 626 1139 q 581 1026 621 1064 q 481 989 542 989 q 429 998 454 989 q 374 1024 404 1007 q 329 1044 344 1039 q 301 1050 314 1050 q 253 1035 269 1050 q 229 988 236 1019 m 158 769 l 311 954 l 464 954 l 617 769 l 508 769 l 388 869 l 267 769 l 158 769 z "},"ȁ":{"ha":760,"x_min":60,"x_max":674,"o":"m 314 -14 q 183 15 240 -14 q 92 92 125 43 q 60 201 60 140 q 99 320 60 276 q 225 383 138 364 q 460 403 313 403 l 508 403 l 508 432 q 478 532 508 501 q 375 563 447 563 q 258 545 318 563 q 138 492 199 528 l 88 610 q 173 653 124 635 q 277 683 222 672 q 381 693 332 693 q 601 624 529 693 q 674 411 674 556 l 674 0 l 511 0 l 511 108 q 436 19 488 51 q 314 -14 385 -14 m 350 106 q 463 153 418 106 q 508 272 508 200 l 508 303 l 461 303 q 280 283 331 303 q 229 210 229 263 q 261 135 229 164 q 350 106 293 106 m 447 769 l 325 1051 l 471 1051 l 539 769 l 447 769 m 242 769 l 118 1051 l 264 1051 l 333 769 l 242 769 z "},"ä":{"ha":760,"x_min":60,"x_max":674,"o":"m 314 -14 q 183 15 240 -14 q 92 92 125 43 q 60 201 60 140 q 99 320 60 276 q 225 383 138 364 q 460 403 313 403 l 508 403 l 508 432 q 478 532 508 501 q 375 563 447 563 q 258 545 318 563 q 138 492 199 528 l 88 610 q 173 653 124 635 q 277 683 222 672 q 381 693 332 693 q 601 624 529 693 q 674 411 674 556 l 674 0 l 511 0 l 511 108 q 436 19 488 51 q 314 -14 385 -14 m 350 106 q 463 153 418 106 q 508 272 508 200 l 508 303 l 461 303 q 280 283 331 303 q 229 210 229 263 q 261 135 229 164 q 350 106 293 106 m 438 829 l 438 989 l 599 989 l 599 829 l 438 829 m 176 829 l 176 989 l 338 989 l 338 829 l 176 829 z "},"ȧ":{"ha":760,"x_min":60,"x_max":674,"o":"m 314 -14 q 183 15 240 -14 q 92 92 125 43 q 60 201 60 140 q 99 320 60 276 q 225 383 138 364 q 460 403 313 403 l 508 403 l 508 432 q 478 532 508 501 q 375 563 447 563 q 258 545 318 563 q 138 492 199 528 l 88 610 q 173 653 124 635 q 277 683 222 672 q 381 693 332 693 q 601 624 529 693 q 674 411 674 556 l 674 0 l 511 0 l 511 108 q 436 19 488 51 q 314 -14 385 -14 m 350 106 q 463 153 418 106 q 508 272 508 200 l 508 303 l 461 303 q 280 283 331 303 q 229 210 229 263 q 261 135 229 164 q 350 106 293 106 m 303 829 l 303 990 l 472 990 l 472 829 l 303 829 z "},"ạ":{"ha":760,"x_min":60,"x_max":674,"o":"m 314 -14 q 183 15 240 -14 q 92 92 125 43 q 60 201 60 140 q 99 320 60 276 q 225 383 138 364 q 460 403 313 403 l 508 403 l 508 432 q 478 532 508 501 q 375 563 447 563 q 258 545 318 563 q 138 492 199 528 l 88 610 q 173 653 124 635 q 277 683 222 672 q 381 693 332 693 q 601 624 529 693 q 674 411 674 556 l 674 0 l 511 0 l 511 108 q 436 19 488 51 q 314 -14 385 -14 m 350 106 q 463 153 418 106 q 508 272 508 200 l 508 303 l 461 303 q 280 283 331 303 q 229 210 229 263 q 261 135 229 164 q 350 106 293 106 m 297 -283 l 297 -122 l 467 -122 l 467 -283 l 297 -283 z "},"à":{"ha":760,"x_min":60,"x_max":674,"o":"m 314 -14 q 183 15 240 -14 q 92 92 125 43 q 60 201 60 140 q 99 320 60 276 q 225 383 138 364 q 460 403 313 403 l 508 403 l 508 432 q 478 532 508 501 q 375 563 447 563 q 258 545 318 563 q 138 492 199 528 l 88 610 q 173 653 124 635 q 277 683 222 672 q 381 693 332 693 q 601 624 529 693 q 674 411 674 556 l 674 0 l 511 0 l 511 108 q 436 19 488 51 q 314 -14 385 -14 m 350 106 q 463 153 418 106 q 508 272 508 200 l 508 303 l 461 303 q 280 283 331 303 q 229 210 229 263 q 261 135 229 164 q 350 106 293 106 m 329 769 l 133 1051 l 304 1051 l 446 769 l 329 769 z "},"ả":{"ha":760,"x_min":60,"x_max":674,"o":"m 314 -14 q 183 15 240 -14 q 92 92 125 43 q 60 201 60 140 q 99 320 60 276 q 225 383 138 364 q 460 403 313 403 l 508 403 l 508 432 q 478 532 508 501 q 375 563 447 563 q 258 545 318 563 q 138 492 199 528 l 88 610 q 173 653 124 635 q 277 683 222 672 q 381 693 332 693 q 601 624 529 693 q 674 411 674 556 l 674 0 l 511 0 l 511 108 q 436 19 488 51 q 314 -14 385 -14 m 350 106 q 463 153 418 106 q 508 272 508 200 l 508 303 l 461 303 q 280 283 331 303 q 229 210 229 263 q 261 135 229 164 q 350 106 293 106 m 335 769 l 335 799 q 347 847 335 828 q 374 881 358 867 q 401 908 389 894 q 413 940 413 922 q 357 975 413 975 q 274 954 314 975 l 247 1029 q 396 1063 306 1063 q 505 1037 465 1063 q 544 963 544 1011 q 528 906 544 928 q 492 869 513 885 q 456 837 472 854 q 440 792 440 819 l 440 769 l 335 769 z "},"ȃ":{"ha":760,"x_min":60,"x_max":674,"o":"m 314 -14 q 183 15 240 -14 q 92 92 125 43 q 60 201 60 140 q 99 320 60 276 q 225 383 138 364 q 460 403 313 403 l 508 403 l 508 432 q 478 532 508 501 q 375 563 447 563 q 258 545 318 563 q 138 492 199 528 l 88 610 q 173 653 124 635 q 277 683 222 672 q 381 693 332 693 q 601 624 529 693 q 674 411 674 556 l 674 0 l 511 0 l 511 108 q 436 19 488 51 q 314 -14 385 -14 m 350 106 q 463 153 418 106 q 508 272 508 200 l 508 303 l 461 303 q 280 283 331 303 q 229 210 229 263 q 261 135 229 164 q 350 106 293 106 m 256 765 l 157 774 q 224 970 161 897 q 388 1043 286 1043 q 553 970 490 1043 q 618 774 615 897 l 519 765 q 480 892 514 847 q 388 938 446 938 q 295 892 329 938 q 256 765 261 847 z "},"ā":{"ha":760,"x_min":60,"x_max":674,"o":"m 314 -14 q 183 15 240 -14 q 92 92 125 43 q 60 201 60 140 q 99 320 60 276 q 225 383 138 364 q 460 403 313 403 l 508 403 l 508 432 q 478 532 508 501 q 375 563 447 563 q 258 545 318 563 q 138 492 199 528 l 88 610 q 173 653 124 635 q 277 683 222 672 q 381 693 332 693 q 601 624 529 693 q 674 411 674 556 l 674 0 l 511 0 l 511 108 q 436 19 488 51 q 314 -14 385 -14 m 350 106 q 463 153 418 106 q 508 272 508 200 l 508 303 l 461 303 q 280 283 331 303 q 229 210 229 263 q 261 135 229 164 q 350 106 293 106 m 169 856 l 169 958 l 607 958 l 607 856 l 169 856 z "},"ą":{"ha":760,"x_min":60,"x_max":715,"o":"m 314 -14 q 183 15 240 -14 q 92 92 125 43 q 60 201 60 140 q 99 320 60 276 q 225 383 138 364 q 460 403 313 403 l 508 403 l 508 432 q 478 532 508 501 q 375 563 447 563 q 258 545 318 563 q 138 492 199 528 l 88 610 q 173 653 124 635 q 277 683 222 672 q 381 693 332 693 q 601 624 529 693 q 674 411 674 556 l 674 0 l 511 0 l 511 108 q 436 19 488 51 q 314 -14 385 -14 m 350 106 q 463 153 418 106 q 508 272 508 200 l 508 303 l 461 303 q 280 283 331 303 q 229 210 229 263 q 261 135 229 164 q 350 106 293 106 m 596 -271 q 476 -232 519 -271 q 432 -126 432 -193 q 471 -18 432 -68 q 574 58 510 32 l 625 0 q 566 -42 590 -14 q 542 -107 542 -71 q 564 -160 542 -142 q 619 -178 586 -178 q 657 -174 639 -178 q 694 -162 675 -169 l 715 -247 q 596 -271 664 -271 z "},"å":{"ha":760,"x_min":60,"x_max":674,"o":"m 314 -14 q 183 15 240 -14 q 92 92 125 43 q 60 201 60 140 q 99 320 60 276 q 225 383 138 364 q 460 403 313 403 l 508 403 l 508 432 q 478 532 508 501 q 375 563 447 563 q 258 545 318 563 q 138 492 199 528 l 88 610 q 173 653 124 635 q 277 683 222 672 q 381 693 332 693 q 601 624 529 693 q 674 411 674 556 l 674 0 l 511 0 l 511 108 q 436 19 488 51 q 314 -14 385 -14 m 350 106 q 463 153 418 106 q 508 272 508 200 l 508 303 l 461 303 q 280 283 331 303 q 229 210 229 263 q 261 135 229 164 q 350 106 293 106 m 388 758 q 299 781 339 758 q 235 843 258 804 q 213 929 213 882 q 263 1050 213 1001 q 388 1099 314 1099 q 512 1050 461 1099 q 563 929 563 1001 q 540 843 563 882 q 477 781 517 804 q 388 758 438 758 m 388 838 q 453 864 428 838 q 478 929 478 890 q 453 994 478 968 q 388 1019 428 1019 q 323 994 349 1019 q 297 929 297 968 q 323 864 297 890 q 388 838 349 838 z "},"ǻ":{"ha":760,"x_min":60,"x_max":706,"o":"m 314 -14 q 183 15 240 -14 q 92 92 125 43 q 60 201 60 140 q 99 320 60 276 q 225 383 138 364 q 460 403 313 403 l 508 403 l 508 432 q 478 532 508 501 q 375 563 447 563 q 258 545 318 563 q 138 492 199 528 l 88 610 q 173 653 124 635 q 277 683 222 672 q 381 693 332 693 q 601 624 529 693 q 674 411 674 556 l 674 0 l 511 0 l 511 108 q 436 19 488 51 q 314 -14 385 -14 m 350 106 q 463 153 418 106 q 508 272 508 200 l 508 303 l 461 303 q 280 283 331 303 q 229 210 229 263 q 261 135 229 164 q 350 106 293 106 m 388 751 q 268 799 317 751 q 219 914 219 846 q 268 1031 219 983 q 388 1078 317 1078 q 435 1071 413 1078 q 476 1053 457 1064 l 567 1136 l 706 1136 l 536 992 q 556 914 556 956 q 507 799 556 846 q 388 751 458 751 m 388 825 q 453 850 428 825 q 478 914 478 875 q 453 979 478 954 q 388 1004 428 1004 q 323 979 349 1004 q 297 914 297 954 q 323 850 297 875 q 388 825 349 825 z "},"ã":{"ha":760,"x_min":60,"x_max":674,"o":"m 314 -14 q 183 15 240 -14 q 92 92 125 43 q 60 201 60 140 q 99 320 60 276 q 225 383 138 364 q 460 403 313 403 l 508 403 l 508 432 q 478 532 508 501 q 375 563 447 563 q 258 545 318 563 q 138 492 199 528 l 88 610 q 173 653 124 635 q 277 683 222 672 q 381 693 332 693 q 601 624 529 693 q 674 411 674 556 l 674 0 l 511 0 l 511 108 q 436 19 488 51 q 314 -14 385 -14 m 350 106 q 463 153 418 106 q 508 272 508 200 l 508 303 l 461 303 q 280 283 331 303 q 229 210 229 263 q 261 135 229 164 q 350 106 293 106 m 204 811 l 118 817 q 169 967 125 913 q 285 1022 214 1022 q 342 1009 317 1022 q 401 971 368 996 q 450 940 432 949 q 486 931 468 931 q 571 1028 557 931 l 657 1022 q 607 872 651 926 q 492 817 563 817 q 437 828 463 817 q 374 868 411 839 q 290 908 322 908 q 204 811 221 908 z "},"æ":{"ha":1201,"x_min":60,"x_max":1154,"o":"m 328 -14 q 187 15 247 -14 q 93 92 126 43 q 60 201 60 140 q 99 320 60 276 q 226 383 138 364 q 464 403 314 403 l 508 403 l 508 432 q 477 532 508 501 q 376 563 446 563 q 258 546 318 563 q 138 492 199 529 l 88 610 q 173 653 124 635 q 277 683 222 672 q 382 693 332 693 q 614 586 553 693 q 717 666 654 639 q 846 693 781 693 q 1071 601 988 693 q 1154 351 1154 510 l 1154 303 l 676 303 q 879 118 694 118 q 1094 192 997 118 l 1143 74 q 1022 10 1094 33 q 876 -14 949 -14 q 696 24 774 -14 q 578 138 618 61 q 483 26 547 65 q 328 -14 418 -14 m 850 575 q 733 531 778 575 q 678 403 688 486 l 1010 403 q 964 531 1004 486 q 850 575 924 575 m 351 106 q 465 153 421 106 q 508 278 508 201 l 508 303 l 461 303 q 280 283 331 303 q 229 210 229 263 q 261 135 229 164 q 351 106 293 106 z "},"ǽ":{"ha":1201,"x_min":60,"x_max":1154,"o":"m 328 -14 q 187 15 247 -14 q 93 92 126 43 q 60 201 60 140 q 99 320 60 276 q 226 383 138 364 q 464 403 314 403 l 508 403 l 508 432 q 477 532 508 501 q 376 563 446 563 q 258 546 318 563 q 138 492 199 529 l 88 610 q 173 653 124 635 q 277 683 222 672 q 382 693 332 693 q 614 586 553 693 q 717 666 654 639 q 846 693 781 693 q 1071 601 988 693 q 1154 351 1154 510 l 1154 303 l 676 303 q 879 118 694 118 q 1094 192 997 118 l 1143 74 q 1022 10 1094 33 q 876 -14 949 -14 q 696 24 774 -14 q 578 138 618 61 q 483 26 547 65 q 328 -14 418 -14 m 850 575 q 733 531 778 575 q 678 403 688 486 l 1010 403 q 964 531 1004 486 q 850 575 924 575 m 351 106 q 465 153 421 106 q 508 278 508 201 l 508 303 l 461 303 q 280 283 331 303 q 229 210 229 263 q 261 135 229 164 q 351 106 293 106 m 518 769 l 661 1051 l 832 1051 l 635 769 l 518 769 z "},"b":{"ha":833,"x_min":90,"x_max":781,"o":"m 482 -14 q 348 19 407 -14 q 260 110 289 53 l 260 0 l 90 0 l 90 979 l 264 979 l 264 579 q 352 662 294 631 q 482 693 410 693 q 639 650 572 693 q 743 528 706 607 q 781 340 781 450 q 743 152 781 232 q 638 29 706 72 q 482 -14 571 -14 m 433 118 q 558 174 511 118 q 606 340 606 231 q 558 506 606 451 q 433 561 511 561 q 308 506 356 561 q 261 340 261 451 q 308 174 261 231 q 433 118 356 118 z "},"ɓ":{"ha":833,"x_min":90,"x_max":781,"o":"m 482 -14 q 348 19 407 -14 q 260 110 289 53 l 260 0 l 90 0 l 90 725 q 159 921 90 849 q 364 993 228 993 q 454 979 413 993 l 435 849 q 406 854 417 853 q 379 856 394 856 q 293 822 322 856 q 264 724 264 788 l 264 579 q 352 662 294 631 q 482 693 410 693 q 639 650 572 693 q 743 528 706 607 q 781 340 781 450 q 743 152 781 232 q 638 29 706 72 q 482 -14 571 -14 m 433 118 q 558 174 511 118 q 606 340 606 231 q 558 506 606 451 q 433 561 511 561 q 308 506 356 561 q 261 340 261 451 q 308 174 261 231 q 433 118 356 118 z "},"c":{"ha":656,"x_min":53,"x_max":639,"o":"m 404 -14 q 218 30 297 -14 q 96 154 139 74 q 53 343 53 235 q 96 530 53 451 q 218 651 139 608 q 404 693 297 693 q 533 672 469 693 q 639 614 597 651 l 588 493 q 506 542 551 525 q 419 558 461 558 q 280 502 329 558 q 231 342 231 446 q 280 180 231 239 q 419 121 329 121 q 506 138 460 121 q 588 188 551 154 l 639 65 q 533 8 597 29 q 404 -14 468 -14 z "},"ć":{"ha":656,"x_min":53,"x_max":649,"o":"m 404 -14 q 218 30 297 -14 q 96 154 139 74 q 53 343 53 235 q 96 530 53 451 q 218 651 139 608 q 404 693 297 693 q 533 672 469 693 q 639 614 597 651 l 588 493 q 506 542 551 525 q 419 558 461 558 q 280 502 329 558 q 231 342 231 446 q 280 180 231 239 q 419 121 329 121 q 506 138 460 121 q 588 188 551 154 l 639 65 q 533 8 597 29 q 404 -14 468 -14 m 335 769 l 478 1051 l 649 1051 l 451 769 l 335 769 z "},"č":{"ha":656,"x_min":53,"x_max":639,"o":"m 404 -14 q 218 30 297 -14 q 96 154 139 74 q 53 343 53 235 q 96 530 53 451 q 218 651 139 608 q 404 693 297 693 q 533 672 469 693 q 639 614 597 651 l 588 493 q 506 542 551 525 q 419 558 461 558 q 280 502 329 558 q 231 342 231 446 q 280 180 231 239 q 419 121 329 121 q 506 138 460 121 q 588 188 551 154 l 639 65 q 533 8 597 29 q 404 -14 468 -14 m 317 769 l 164 1051 l 275 1051 l 393 868 l 511 1051 l 622 1051 l 469 769 l 317 769 z "},"ç":{"ha":656,"x_min":53,"x_max":639,"o":"m 404 -14 q 218 30 297 -14 q 96 154 139 74 q 53 343 53 235 q 96 530 53 451 q 218 651 139 608 q 404 693 297 693 q 533 672 469 693 q 639 614 597 651 l 588 493 q 506 542 551 525 q 419 558 461 558 q 280 502 329 558 q 231 342 231 446 q 280 180 231 239 q 419 121 329 121 q 506 138 460 121 q 588 188 551 154 l 639 65 q 533 8 597 29 q 404 -14 468 -14 m 394 -271 q 317 -263 354 -271 q 253 -242 279 -256 l 278 -164 q 327 -181 303 -175 q 381 -187 351 -187 q 456 -146 456 -187 q 404 -114 456 -114 q 378 -115 390 -114 q 347 -122 365 -117 l 321 -97 l 339 28 l 432 28 l 418 -53 q 433 -51 426 -51 q 525 -78 490 -51 q 560 -151 560 -104 q 514 -238 560 -206 q 394 -271 468 -271 z "},"ḉ":{"ha":656,"x_min":53,"x_max":649,"o":"m 404 -14 q 218 30 297 -14 q 96 154 139 74 q 53 343 53 235 q 96 530 53 451 q 218 651 139 608 q 404 693 297 693 q 533 672 469 693 q 639 614 597 651 l 588 493 q 506 542 551 525 q 419 558 461 558 q 280 502 329 558 q 231 342 231 446 q 280 180 231 239 q 419 121 329 121 q 506 138 460 121 q 588 188 551 154 l 639 65 q 533 8 597 29 q 404 -14 468 -14 m 394 -271 q 317 -263 354 -271 q 253 -242 279 -256 l 278 -164 q 327 -181 303 -175 q 381 -187 351 -187 q 456 -146 456 -187 q 404 -114 456 -114 q 378 -115 390 -114 q 347 -122 365 -117 l 321 -97 l 339 28 l 432 28 l 418 -53 q 433 -51 426 -51 q 525 -78 490 -51 q 560 -151 560 -104 q 514 -238 560 -206 q 394 -271 468 -271 m 335 769 l 478 1051 l 649 1051 l 451 769 l 335 769 z "},"ĉ":{"ha":656,"x_min":53,"x_max":639,"o":"m 404 -14 q 218 30 297 -14 q 96 154 139 74 q 53 343 53 235 q 96 530 53 451 q 218 651 139 608 q 404 693 297 693 q 533 672 469 693 q 639 614 597 651 l 588 493 q 506 542 551 525 q 419 558 461 558 q 280 502 329 558 q 231 342 231 446 q 280 180 231 239 q 419 121 329 121 q 506 138 460 121 q 588 188 551 154 l 639 65 q 533 8 597 29 q 404 -14 468 -14 m 164 769 l 317 1051 l 469 1051 l 622 769 l 511 769 l 393 953 l 275 769 l 164 769 z "},"ċ":{"ha":656,"x_min":53,"x_max":639,"o":"m 404 -14 q 218 30 297 -14 q 96 154 139 74 q 53 343 53 235 q 96 530 53 451 q 218 651 139 608 q 404 693 297 693 q 533 672 469 693 q 639 614 597 651 l 588 493 q 506 542 551 525 q 419 558 461 558 q 280 502 329 558 q 231 342 231 446 q 280 180 231 239 q 419 121 329 121 q 506 138 460 121 q 588 188 551 154 l 639 65 q 533 8 597 29 q 404 -14 468 -14 m 308 829 l 308 990 l 478 990 l 478 829 l 308 829 z "},"d":{"ha":833,"x_min":53,"x_max":743,"o":"m 351 -14 q 195 29 263 -14 q 90 152 128 72 q 53 340 53 232 q 90 528 53 450 q 195 650 128 607 q 351 693 263 693 q 482 661 424 693 q 569 576 540 629 l 569 979 l 743 979 l 743 0 l 574 0 l 574 113 q 486 20 546 54 q 351 -14 426 -14 m 400 118 q 525 174 478 118 q 572 340 572 231 q 525 506 572 451 q 400 561 478 561 q 275 506 322 561 q 228 340 228 451 q 275 174 228 231 q 400 118 322 118 z "},"ð":{"ha":806,"x_min":53,"x_max":754,"o":"m 393 -14 q 215 27 292 -14 q 96 140 139 68 q 53 308 53 213 q 94 474 53 403 q 209 585 136 544 q 378 625 282 625 q 490 607 439 625 q 578 546 542 589 q 517 678 558 621 q 424 772 475 735 l 192 667 l 146 767 l 307 840 q 251 861 283 850 q 182 881 218 872 l 214 993 q 348 955 288 978 q 454 907 408 932 l 644 993 l 690 893 l 558 833 q 703 642 651 753 q 754 400 754 531 q 660 95 754 204 q 393 -14 567 -14 m 399 119 q 526 171 481 119 q 571 308 571 222 q 526 444 571 394 q 399 494 481 494 q 274 444 319 494 q 228 308 228 394 q 273 169 228 219 q 399 119 318 119 z "},"ď":{"ha":833,"x_min":53,"x_max":915,"o":"m 351 -14 q 195 29 263 -14 q 90 152 128 72 q 53 340 53 232 q 90 528 53 450 q 195 650 128 607 q 351 693 263 693 q 482 661 424 693 q 569 576 540 629 l 569 979 l 743 979 l 743 0 l 574 0 l 574 113 q 486 20 546 54 q 351 -14 426 -14 m 400 118 q 525 174 478 118 q 572 340 572 231 q 525 506 572 451 q 400 561 478 561 q 275 506 322 561 q 228 340 228 451 q 275 174 228 231 q 400 118 322 118 m 799 713 l 799 979 l 915 979 l 879 713 l 799 713 z "},"đ":{"ha":833,"x_min":54,"x_max":865,"o":"m 353 -14 q 197 29 264 -14 q 92 152 129 72 q 54 340 54 232 q 92 528 54 450 q 197 650 129 607 q 353 693 264 693 q 483 661 425 693 q 571 576 542 629 l 571 756 l 308 756 l 308 878 l 571 878 l 571 979 l 744 979 l 744 878 l 865 878 l 865 756 l 744 756 l 744 0 l 572 0 l 572 107 q 485 19 543 51 q 353 -14 426 -14 m 401 118 q 526 174 479 118 q 574 340 574 231 q 526 506 574 451 q 401 561 479 561 q 276 506 324 561 q 229 340 229 451 q 276 174 229 231 q 401 118 324 118 z "},"ḍ":{"ha":833,"x_min":53,"x_max":743,"o":"m 351 -14 q 195 29 263 -14 q 90 152 128 72 q 53 340 53 232 q 90 528 53 450 q 195 650 128 607 q 351 693 263 693 q 482 661 424 693 q 569 576 540 629 l 569 979 l 743 979 l 743 0 l 574 0 l 574 113 q 486 20 546 54 q 351 -14 426 -14 m 400 118 q 525 174 478 118 q 572 340 572 231 q 525 506 572 451 q 400 561 478 561 q 275 506 322 561 q 228 340 228 451 q 275 174 228 231 q 400 118 322 118 m 333 -283 l 333 -122 l 503 -122 l 503 -283 l 333 -283 z "},"ɗ":{"ha":833,"x_min":53,"x_max":933,"o":"m 351 -14 q 195 29 263 -14 q 90 152 128 72 q 53 340 53 232 q 90 528 53 450 q 195 650 128 607 q 351 693 263 693 q 482 661 424 693 q 569 576 540 629 l 569 725 q 638 921 569 849 q 843 993 707 993 q 890 990 865 993 q 933 979 915 986 l 914 849 q 885 854 896 853 q 858 856 874 856 q 775 824 807 856 q 743 724 743 793 l 743 0 l 574 0 l 574 113 q 486 20 546 54 q 351 -14 426 -14 m 400 118 q 525 174 478 118 q 572 340 572 231 q 525 506 572 451 q 400 561 478 561 q 275 506 322 561 q 228 340 228 451 q 275 174 228 231 q 400 118 322 118 z "},"ḏ":{"ha":833,"x_min":53,"x_max":743,"o":"m 351 -14 q 195 29 263 -14 q 90 152 128 72 q 53 340 53 232 q 90 528 53 450 q 195 650 128 607 q 351 693 263 693 q 482 661 424 693 q 569 576 540 629 l 569 979 l 743 979 l 743 0 l 574 0 l 574 113 q 486 20 546 54 q 351 -14 426 -14 m 400 118 q 525 174 478 118 q 572 340 572 231 q 525 506 572 451 q 400 561 478 561 q 275 506 322 561 q 228 340 228 451 q 275 174 228 231 q 400 118 322 118 m 200 -229 l 200 -126 l 638 -126 l 638 -229 l 200 -229 z "},"ǆ":{"ha":1492,"x_min":53,"x_max":1456,"o":"m 351 -14 q 195 29 263 -14 q 90 152 128 72 q 53 340 53 232 q 90 528 53 450 q 195 650 128 607 q 351 693 263 693 q 482 661 424 693 q 569 576 540 629 l 569 979 l 743 979 l 743 0 l 574 0 l 574 113 q 486 20 546 54 q 351 -14 426 -14 m 400 118 q 525 174 478 118 q 572 340 572 231 q 525 506 572 451 q 400 561 478 561 q 275 506 322 561 q 228 340 228 451 q 275 174 228 231 q 400 118 322 118 z "},"e":{"ha":753,"x_min":53,"x_max":706,"o":"m 425 -14 q 226 29 310 -14 q 98 151 143 72 q 53 339 53 231 q 97 524 53 444 q 217 648 140 603 q 393 693 294 693 q 622 601 538 693 q 706 351 706 510 l 706 300 l 219 300 q 428 118 239 118 q 542 135 485 118 q 646 190 599 153 l 694 74 q 572 10 646 33 q 425 -14 499 -14 m 400 575 q 276 528 324 575 q 219 400 229 481 l 561 400 q 515 530 556 485 q 400 575 474 575 z "},"é":{"ha":753,"x_min":53,"x_max":706,"o":"m 425 -14 q 226 29 310 -14 q 98 151 143 72 q 53 339 53 231 q 97 524 53 444 q 217 648 140 603 q 393 693 294 693 q 622 601 538 693 q 706 351 706 510 l 706 300 l 219 300 q 428 118 239 118 q 542 135 485 118 q 646 190 599 153 l 694 74 q 572 10 646 33 q 425 -14 499 -14 m 400 575 q 276 528 324 575 q 219 400 229 481 l 561 400 q 515 530 556 485 q 400 575 474 575 m 336 769 l 479 1051 l 650 1051 l 453 769 l 336 769 z "},"ĕ":{"ha":753,"x_min":53,"x_max":706,"o":"m 425 -14 q 226 29 310 -14 q 98 151 143 72 q 53 339 53 231 q 97 524 53 444 q 217 648 140 603 q 393 693 294 693 q 622 601 538 693 q 706 351 706 510 l 706 300 l 219 300 q 428 118 239 118 q 542 135 485 118 q 646 190 599 153 l 694 74 q 572 10 646 33 q 425 -14 499 -14 m 400 575 q 276 528 324 575 q 219 400 229 481 l 561 400 q 515 530 556 485 q 400 575 474 575 m 394 765 q 231 838 293 765 q 164 1033 168 910 l 263 1043 q 302 915 268 960 q 394 871 336 871 q 487 915 453 871 q 526 1043 521 960 l 625 1033 q 560 838 622 910 q 394 765 497 765 z "},"ě":{"ha":753,"x_min":53,"x_max":706,"o":"m 425 -14 q 226 29 310 -14 q 98 151 143 72 q 53 339 53 231 q 97 524 53 444 q 217 648 140 603 q 393 693 294 693 q 622 601 538 693 q 706 351 706 510 l 706 300 l 219 300 q 428 118 239 118 q 542 135 485 118 q 646 190 599 153 l 694 74 q 572 10 646 33 q 425 -14 499 -14 m 400 575 q 276 528 324 575 q 219 400 229 481 l 561 400 q 515 530 556 485 q 400 575 474 575 m 318 769 l 165 1051 l 276 1051 l 394 868 l 513 1051 l 624 1051 l 471 769 l 318 769 z "},"ḝ":{"ha":753,"x_min":53,"x_max":706,"o":"m 425 -14 q 226 29 310 -14 q 98 151 143 72 q 53 339 53 231 q 97 524 53 444 q 217 648 140 603 q 393 693 294 693 q 622 601 538 693 q 706 351 706 510 l 706 300 l 219 300 q 428 118 239 118 q 542 135 485 118 q 646 190 599 153 l 694 74 q 572 10 646 33 q 425 -14 499 -14 m 400 575 q 276 528 324 575 q 219 400 229 481 l 561 400 q 515 530 556 485 q 400 575 474 575 m 396 -271 q 318 -263 356 -271 q 254 -242 281 -256 l 279 -164 q 328 -181 304 -175 q 382 -187 353 -187 q 457 -146 457 -187 q 406 -114 457 -114 q 379 -115 392 -114 q 349 -122 367 -117 l 322 -97 l 340 28 l 433 28 l 419 -53 q 435 -51 428 -51 q 526 -78 492 -51 q 561 -151 561 -104 q 515 -238 561 -206 q 396 -271 469 -271 m 394 765 q 231 838 293 765 q 164 1033 168 910 l 263 1043 q 302 915 268 960 q 394 871 336 871 q 487 915 453 871 q 526 1043 521 960 l 625 1033 q 560 838 622 910 q 394 765 497 765 z "},"ê":{"ha":753,"x_min":53,"x_max":706,"o":"m 425 -14 q 226 29 310 -14 q 98 151 143 72 q 53 339 53 231 q 97 524 53 444 q 217 648 140 603 q 393 693 294 693 q 622 601 538 693 q 706 351 706 510 l 706 300 l 219 300 q 428 118 239 118 q 542 135 485 118 q 646 190 599 153 l 694 74 q 572 10 646 33 q 425 -14 499 -14 m 400 575 q 276 528 324 575 q 219 400 229 481 l 561 400 q 515 530 556 485 q 400 575 474 575 m 165 769 l 318 1051 l 471 1051 l 624 769 l 513 769 l 394 953 l 276 769 l 165 769 z "},"ế":{"ha":753,"x_min":53,"x_max":807,"o":"m 425 -14 q 226 29 310 -14 q 98 151 143 72 q 53 339 53 231 q 97 524 53 444 q 217 648 140 603 q 393 693 294 693 q 622 601 538 693 q 706 351 706 510 l 706 300 l 219 300 q 428 118 239 118 q 542 135 485 118 q 646 190 599 153 l 694 74 q 572 10 646 33 q 425 -14 499 -14 m 400 575 q 276 528 324 575 q 219 400 229 481 l 561 400 q 515 530 556 485 q 400 575 474 575 m 546 917 l 663 1125 l 807 1125 l 644 917 l 546 917 m 165 769 l 318 996 l 471 996 l 624 769 l 513 769 l 394 901 l 276 769 l 165 769 z "},"ệ":{"ha":753,"x_min":53,"x_max":706,"o":"m 425 -14 q 226 29 310 -14 q 98 151 143 72 q 53 339 53 231 q 97 524 53 444 q 217 648 140 603 q 393 693 294 693 q 622 601 538 693 q 706 351 706 510 l 706 300 l 219 300 q 428 118 239 118 q 542 135 485 118 q 646 190 599 153 l 694 74 q 572 10 646 33 q 425 -14 499 -14 m 400 575 q 276 528 324 575 q 219 400 229 481 l 561 400 q 515 530 556 485 q 400 575 474 575 m 310 -283 l 310 -122 l 479 -122 l 479 -283 l 310 -283 m 165 769 l 318 1051 l 471 1051 l 624 769 l 513 769 l 394 953 l 276 769 l 165 769 z "},"ề":{"ha":753,"x_min":53,"x_max":706,"o":"m 425 -14 q 226 29 310 -14 q 98 151 143 72 q 53 339 53 231 q 97 524 53 444 q 217 648 140 603 q 393 693 294 693 q 622 601 538 693 q 706 351 706 510 l 706 300 l 219 300 q 428 118 239 118 q 542 135 485 118 q 646 190 599 153 l 694 74 q 572 10 646 33 q 425 -14 499 -14 m 400 575 q 276 528 324 575 q 219 400 229 481 l 561 400 q 515 530 556 485 q 400 575 474 575 m 600 917 l 438 1125 l 583 1125 l 700 917 l 600 917 m 165 769 l 318 996 l 471 996 l 624 769 l 513 769 l 394 901 l 276 769 l 165 769 z "},"ể":{"ha":753,"x_min":53,"x_max":733,"o":"m 425 -14 q 226 29 310 -14 q 98 151 143 72 q 53 339 53 231 q 97 524 53 444 q 217 648 140 603 q 393 693 294 693 q 622 601 538 693 q 706 351 706 510 l 706 300 l 219 300 q 428 118 239 118 q 542 135 485 118 q 646 190 599 153 l 694 74 q 572 10 646 33 q 425 -14 499 -14 m 400 575 q 276 528 324 575 q 219 400 229 481 l 561 400 q 515 530 556 485 q 400 575 474 575 m 549 917 q 566 969 549 951 q 601 1001 583 988 q 618 1033 618 1014 q 605 1051 618 1046 q 569 1056 592 1056 q 530 1052 550 1056 q 489 1040 510 1049 l 467 1106 q 526 1124 494 1118 q 603 1131 558 1131 q 699 1112 665 1131 q 733 1060 733 1093 q 720 1017 733 1033 q 689 986 707 1000 q 658 956 671 972 q 644 917 644 940 l 549 917 m 165 769 l 318 996 l 471 996 l 624 769 l 513 769 l 394 901 l 276 769 l 165 769 z "},"ễ":{"ha":753,"x_min":53,"x_max":706,"o":"m 425 -14 q 226 29 310 -14 q 98 151 143 72 q 53 339 53 231 q 97 524 53 444 q 217 648 140 603 q 393 693 294 693 q 622 601 538 693 q 706 351 706 510 l 706 300 l 219 300 q 428 118 239 118 q 542 135 485 118 q 646 190 599 153 l 694 74 q 572 10 646 33 q 425 -14 499 -14 m 400 575 q 276 528 324 575 q 219 400 229 481 l 561 400 q 515 530 556 485 q 400 575 474 575 m 236 988 l 156 992 q 202 1104 161 1067 q 303 1142 243 1142 q 352 1133 328 1142 q 408 1107 376 1125 q 482 1081 457 1081 q 553 1143 540 1081 l 633 1139 q 588 1026 628 1064 q 488 989 549 989 q 436 998 461 989 q 381 1024 411 1007 q 336 1044 351 1039 q 308 1050 321 1050 q 260 1035 276 1050 q 236 988 243 1019 m 165 769 l 318 954 l 471 954 l 624 769 l 515 769 l 394 869 l 274 769 l 165 769 z "},"ȅ":{"ha":753,"x_min":53,"x_max":706,"o":"m 425 -14 q 226 29 310 -14 q 98 151 143 72 q 53 339 53 231 q 97 524 53 444 q 217 648 140 603 q 393 693 294 693 q 622 601 538 693 q 706 351 706 510 l 706 300 l 219 300 q 428 118 239 118 q 542 135 485 118 q 646 190 599 153 l 694 74 q 572 10 646 33 q 425 -14 499 -14 m 400 575 q 276 528 324 575 q 219 400 229 481 l 561 400 q 515 530 556 485 q 400 575 474 575 m 454 769 l 332 1051 l 478 1051 l 546 769 l 454 769 m 249 769 l 125 1051 l 271 1051 l 340 769 l 249 769 z "},"ë":{"ha":753,"x_min":53,"x_max":706,"o":"m 425 -14 q 226 29 310 -14 q 98 151 143 72 q 53 339 53 231 q 97 524 53 444 q 217 648 140 603 q 393 693 294 693 q 622 601 538 693 q 706 351 706 510 l 706 300 l 219 300 q 428 118 239 118 q 542 135 485 118 q 646 190 599 153 l 694 74 q 572 10 646 33 q 425 -14 499 -14 m 400 575 q 276 528 324 575 q 219 400 229 481 l 561 400 q 515 530 556 485 q 400 575 474 575 m 444 829 l 444 989 l 606 989 l 606 829 l 444 829 m 183 829 l 183 989 l 344 989 l 344 829 l 183 829 z "},"ė":{"ha":753,"x_min":53,"x_max":706,"o":"m 425 -14 q 226 29 310 -14 q 98 151 143 72 q 53 339 53 231 q 97 524 53 444 q 217 648 140 603 q 393 693 294 693 q 622 601 538 693 q 706 351 706 510 l 706 300 l 219 300 q 428 118 239 118 q 542 135 485 118 q 646 190 599 153 l 694 74 q 572 10 646 33 q 425 -14 499 -14 m 400 575 q 276 528 324 575 q 219 400 229 481 l 561 400 q 515 530 556 485 q 400 575 474 575 m 310 829 l 310 990 l 479 990 l 479 829 l 310 829 z "},"ẹ":{"ha":753,"x_min":53,"x_max":706,"o":"m 425 -14 q 226 29 310 -14 q 98 151 143 72 q 53 339 53 231 q 97 524 53 444 q 217 648 140 603 q 393 693 294 693 q 622 601 538 693 q 706 351 706 510 l 706 300 l 219 300 q 428 118 239 118 q 542 135 485 118 q 646 190 599 153 l 694 74 q 572 10 646 33 q 425 -14 499 -14 m 400 575 q 276 528 324 575 q 219 400 229 481 l 561 400 q 515 530 556 485 q 400 575 474 575 m 310 -283 l 310 -122 l 479 -122 l 479 -283 l 310 -283 z "},"è":{"ha":753,"x_min":53,"x_max":706,"o":"m 425 -14 q 226 29 310 -14 q 98 151 143 72 q 53 339 53 231 q 97 524 53 444 q 217 648 140 603 q 393 693 294 693 q 622 601 538 693 q 706 351 706 510 l 706 300 l 219 300 q 428 118 239 118 q 542 135 485 118 q 646 190 599 153 l 694 74 q 572 10 646 33 q 425 -14 499 -14 m 400 575 q 276 528 324 575 q 219 400 229 481 l 561 400 q 515 530 556 485 q 400 575 474 575 m 336 769 l 140 1051 l 311 1051 l 453 769 l 336 769 z "},"ẻ":{"ha":753,"x_min":53,"x_max":706,"o":"m 425 -14 q 226 29 310 -14 q 98 151 143 72 q 53 339 53 231 q 97 524 53 444 q 217 648 140 603 q 393 693 294 693 q 622 601 538 693 q 706 351 706 510 l 706 300 l 219 300 q 428 118 239 118 q 542 135 485 118 q 646 190 599 153 l 694 74 q 572 10 646 33 q 425 -14 499 -14 m 400 575 q 276 528 324 575 q 219 400 229 481 l 561 400 q 515 530 556 485 q 400 575 474 575 m 342 769 l 342 799 q 353 847 342 828 q 381 881 365 867 q 408 908 396 894 q 419 940 419 922 q 364 975 419 975 q 281 954 321 975 l 254 1029 q 403 1063 313 1063 q 512 1037 472 1063 q 551 963 551 1011 q 535 906 551 928 q 499 869 519 885 q 463 837 479 854 q 447 792 447 819 l 447 769 l 342 769 z "},"ȇ":{"ha":753,"x_min":53,"x_max":706,"o":"m 425 -14 q 226 29 310 -14 q 98 151 143 72 q 53 339 53 231 q 97 524 53 444 q 217 648 140 603 q 393 693 294 693 q 622 601 538 693 q 706 351 706 510 l 706 300 l 219 300 q 428 118 239 118 q 542 135 485 118 q 646 190 599 153 l 694 74 q 572 10 646 33 q 425 -14 499 -14 m 400 575 q 276 528 324 575 q 219 400 229 481 l 561 400 q 515 530 556 485 q 400 575 474 575 m 263 765 l 164 774 q 231 970 168 897 q 394 1043 293 1043 q 560 970 497 1043 q 625 774 622 897 l 526 765 q 487 892 521 847 q 394 938 453 938 q 302 892 336 938 q 263 765 268 847 z "},"ē":{"ha":753,"x_min":53,"x_max":706,"o":"m 425 -14 q 226 29 310 -14 q 98 151 143 72 q 53 339 53 231 q 97 524 53 444 q 217 648 140 603 q 393 693 294 693 q 622 601 538 693 q 706 351 706 510 l 706 300 l 219 300 q 428 118 239 118 q 542 135 485 118 q 646 190 599 153 l 694 74 q 572 10 646 33 q 425 -14 499 -14 m 400 575 q 276 528 324 575 q 219 400 229 481 l 561 400 q 515 530 556 485 q 400 575 474 575 m 176 856 l 176 958 l 614 958 l 614 856 l 176 856 z "},"ḗ":{"ha":753,"x_min":53,"x_max":706,"o":"m 425 -14 q 226 29 310 -14 q 98 151 143 72 q 53 339 53 231 q 97 524 53 444 q 217 648 140 603 q 393 693 294 693 q 622 601 538 693 q 706 351 706 510 l 706 300 l 219 300 q 428 118 239 118 q 542 135 485 118 q 646 190 599 153 l 694 74 q 572 10 646 33 q 425 -14 499 -14 m 400 575 q 276 528 324 575 q 219 400 229 481 l 561 400 q 515 530 556 485 q 400 575 474 575 m 340 942 l 442 1125 l 608 1125 l 449 942 l 340 942 m 176 788 l 176 890 l 614 890 l 614 788 l 176 788 z "},"ḕ":{"ha":753,"x_min":53,"x_max":706,"o":"m 425 -14 q 226 29 310 -14 q 98 151 143 72 q 53 339 53 231 q 97 524 53 444 q 217 648 140 603 q 393 693 294 693 q 622 601 538 693 q 706 351 706 510 l 706 300 l 219 300 q 428 118 239 118 q 542 135 485 118 q 646 190 599 153 l 694 74 q 572 10 646 33 q 425 -14 499 -14 m 400 575 q 276 528 324 575 q 219 400 229 481 l 561 400 q 515 530 556 485 q 400 575 474 575 m 340 942 l 182 1125 l 347 1125 l 449 942 l 340 942 m 176 788 l 176 890 l 614 890 l 614 788 l 176 788 z "},"ę":{"ha":753,"x_min":53,"x_max":706,"o":"m 425 -14 q 226 29 310 -14 q 98 151 143 72 q 53 339 53 231 q 97 524 53 444 q 217 648 140 603 q 393 693 294 693 q 622 601 538 693 q 706 351 706 510 l 706 300 l 219 300 q 428 118 239 118 q 542 135 485 118 q 646 190 599 153 l 694 74 q 572 10 646 33 q 425 -14 499 -14 m 400 575 q 276 528 324 575 q 219 400 229 481 l 561 400 q 515 530 556 485 q 400 575 474 575 m 486 -271 q 366 -232 410 -271 q 322 -126 322 -193 q 361 -18 322 -68 q 464 58 400 32 l 515 0 q 456 -42 481 -14 q 432 -107 432 -71 q 454 -160 432 -142 q 510 -178 476 -178 q 547 -174 529 -178 q 585 -162 565 -169 l 606 -247 q 486 -271 554 -271 z "},"ẽ":{"ha":753,"x_min":53,"x_max":706,"o":"m 425 -14 q 226 29 310 -14 q 98 151 143 72 q 53 339 53 231 q 97 524 53 444 q 217 648 140 603 q 393 693 294 693 q 622 601 538 693 q 706 351 706 510 l 706 300 l 219 300 q 428 118 239 118 q 542 135 485 118 q 646 190 599 153 l 694 74 q 572 10 646 33 q 425 -14 499 -14 m 400 575 q 276 528 324 575 q 219 400 229 481 l 561 400 q 515 530 556 485 q 400 575 474 575 m 211 811 l 125 817 q 176 967 132 913 q 292 1022 221 1022 q 349 1009 324 1022 q 408 971 375 996 q 457 940 439 949 q 493 931 475 931 q 578 1028 564 931 l 664 1022 q 614 872 658 926 q 499 817 569 817 q 444 828 469 817 q 381 868 418 839 q 297 908 329 908 q 211 811 228 908 z "},"ə":{"ha":754,"x_min":47,"x_max":701,"o":"m 367 -14 q 132 76 217 -14 q 47 331 47 165 l 47 379 l 535 379 q 473 516 525 471 q 331 561 421 561 q 107 489 214 561 l 58 607 q 188 671 114 649 q 335 693 261 693 q 530 650 447 693 q 657 528 613 607 q 701 342 701 450 q 658 155 701 235 q 540 31 615 75 q 367 -14 464 -14 m 363 104 q 479 149 433 104 q 535 279 525 193 l 199 279 q 246 147 204 190 q 363 104 288 104 z "},"ʒ":{"ha":717,"x_min":13,"x_max":676,"o":"m 324 -264 q 13 -181 128 -264 l 64 -60 q 303 -132 161 -132 q 454 -90 404 -132 q 504 33 504 -47 q 454 147 504 107 q 307 186 404 186 l 172 186 l 172 268 l 438 543 l 44 543 l 44 679 l 633 679 l 633 563 l 386 304 q 599 233 522 301 q 676 44 676 164 q 581 -181 676 -97 q 324 -264 486 -264 z "},"ǯ":{"ha":717,"x_min":13,"x_max":676,"o":"m 324 -264 q 13 -181 128 -264 l 64 -60 q 303 -132 161 -132 q 454 -90 404 -132 q 504 33 504 -47 q 454 147 504 107 q 307 186 404 186 l 172 186 l 172 268 l 438 543 l 44 543 l 44 679 l 633 679 l 633 563 l 386 304 q 599 233 522 301 q 676 44 676 164 q 581 -181 676 -97 q 324 -264 486 -264 m 263 769 l 110 1051 l 221 1051 l 339 868 l 457 1051 l 568 1051 l 415 769 l 263 769 z "},"f":{"ha":506,"x_min":6,"x_max":526,"o":"m 136 0 l 136 549 l 6 549 l 6 679 l 136 679 l 136 681 q 212 899 136 825 q 447 982 288 972 l 515 986 l 526 858 l 463 854 q 344 813 379 849 q 310 708 310 778 l 310 679 l 494 679 l 494 549 l 310 549 l 310 0 l 136 0 z "},"g":{"ha":839,"x_min":53,"x_max":749,"o":"m 407 -264 q 230 -242 313 -264 q 85 -176 147 -221 l 135 -56 q 260 -113 193 -94 q 393 -132 326 -132 q 579 47 579 -132 l 579 140 q 490 50 550 83 q 356 17 429 17 q 196 59 264 17 q 90 178 128 101 q 53 356 53 254 q 90 533 53 457 q 196 651 128 608 q 356 693 264 693 q 492 659 432 693 q 579 568 551 625 l 579 679 l 749 679 l 749 68 q 661 -181 749 -97 q 407 -264 574 -264 m 403 149 q 531 204 483 149 q 578 356 578 260 q 531 506 578 451 q 403 561 483 561 q 275 506 322 561 q 228 356 228 451 q 275 204 228 260 q 403 149 322 149 z "},"ğ":{"ha":839,"x_min":53,"x_max":749,"o":"m 407 -264 q 230 -242 313 -264 q 85 -176 147 -221 l 135 -56 q 260 -113 193 -94 q 393 -132 326 -132 q 579 47 579 -132 l 579 140 q 490 50 550 83 q 356 17 429 17 q 196 59 264 17 q 90 178 128 101 q 53 356 53 254 q 90 533 53 457 q 196 651 128 608 q 356 693 264 693 q 492 659 432 693 q 579 568 551 625 l 579 679 l 749 679 l 749 68 q 661 -181 749 -97 q 407 -264 574 -264 m 403 149 q 531 204 483 149 q 578 356 578 260 q 531 506 578 451 q 403 561 483 561 q 275 506 322 561 q 228 356 228 451 q 275 204 228 260 q 403 149 322 149 m 419 765 q 256 838 318 765 q 189 1033 193 910 l 288 1043 q 327 915 293 960 q 419 871 361 871 q 512 915 478 871 q 551 1043 546 960 l 650 1033 q 585 838 647 910 q 419 765 522 765 z "},"ǧ":{"ha":839,"x_min":53,"x_max":749,"o":"m 407 -264 q 230 -242 313 -264 q 85 -176 147 -221 l 135 -56 q 260 -113 193 -94 q 393 -132 326 -132 q 579 47 579 -132 l 579 140 q 490 50 550 83 q 356 17 429 17 q 196 59 264 17 q 90 178 128 101 q 53 356 53 254 q 90 533 53 457 q 196 651 128 608 q 356 693 264 693 q 492 659 432 693 q 579 568 551 625 l 579 679 l 749 679 l 749 68 q 661 -181 749 -97 q 407 -264 574 -264 m 403 149 q 531 204 483 149 q 578 356 578 260 q 531 506 578 451 q 403 561 483 561 q 275 506 322 561 q 228 356 228 451 q 275 204 228 260 q 403 149 322 149 m 343 769 l 190 1051 l 301 1051 l 419 868 l 538 1051 l 649 1051 l 496 769 l 343 769 z "},"ĝ":{"ha":839,"x_min":53,"x_max":749,"o":"m 407 -264 q 230 -242 313 -264 q 85 -176 147 -221 l 135 -56 q 260 -113 193 -94 q 393 -132 326 -132 q 579 47 579 -132 l 579 140 q 490 50 550 83 q 356 17 429 17 q 196 59 264 17 q 90 178 128 101 q 53 356 53 254 q 90 533 53 457 q 196 651 128 608 q 356 693 264 693 q 492 659 432 693 q 579 568 551 625 l 579 679 l 749 679 l 749 68 q 661 -181 749 -97 q 407 -264 574 -264 m 403 149 q 531 204 483 149 q 578 356 578 260 q 531 506 578 451 q 403 561 483 561 q 275 506 322 561 q 228 356 228 451 q 275 204 228 260 q 403 149 322 149 m 190 769 l 343 1051 l 496 1051 l 649 769 l 538 769 l 419 953 l 301 769 l 190 769 z "},"ģ":{"ha":839,"x_min":53,"x_max":749,"o":"m 407 -264 q 230 -242 313 -264 q 85 -176 147 -221 l 135 -56 q 260 -113 193 -94 q 393 -132 326 -132 q 579 47 579 -132 l 579 140 q 490 50 550 83 q 356 17 429 17 q 196 59 264 17 q 90 178 128 101 q 53 356 53 254 q 90 533 53 457 q 196 651 128 608 q 356 693 264 693 q 492 659 432 693 q 579 568 551 625 l 579 679 l 749 679 l 749 68 q 661 -181 749 -97 q 407 -264 574 -264 m 403 149 q 531 204 483 149 q 578 356 578 260 q 531 506 578 451 q 403 561 483 561 q 275 506 322 561 q 228 356 228 451 q 275 204 228 260 q 403 149 322 149 m 329 783 l 329 876 q 347 981 329 933 q 408 1068 365 1029 l 474 1024 q 437 975 449 999 q 422 925 425 951 l 510 925 l 510 783 l 329 783 z "},"ġ":{"ha":839,"x_min":53,"x_max":749,"o":"m 407 -264 q 230 -242 313 -264 q 85 -176 147 -221 l 135 -56 q 260 -113 193 -94 q 393 -132 326 -132 q 579 47 579 -132 l 579 140 q 490 50 550 83 q 356 17 429 17 q 196 59 264 17 q 90 178 128 101 q 53 356 53 254 q 90 533 53 457 q 196 651 128 608 q 356 693 264 693 q 492 659 432 693 q 579 568 551 625 l 579 679 l 749 679 l 749 68 q 661 -181 749 -97 q 407 -264 574 -264 m 403 149 q 531 204 483 149 q 578 356 578 260 q 531 506 578 451 q 403 561 483 561 q 275 506 322 561 q 228 356 228 451 q 275 204 228 260 q 403 149 322 149 m 335 829 l 335 990 l 504 990 l 504 829 l 335 829 z "},"ḡ":{"ha":839,"x_min":53,"x_max":749,"o":"m 407 -264 q 230 -242 313 -264 q 85 -176 147 -221 l 135 -56 q 260 -113 193 -94 q 393 -132 326 -132 q 579 47 579 -132 l 579 140 q 490 50 550 83 q 356 17 429 17 q 196 59 264 17 q 90 178 128 101 q 53 356 53 254 q 90 533 53 457 q 196 651 128 608 q 356 693 264 693 q 492 659 432 693 q 579 568 551 625 l 579 679 l 749 679 l 749 68 q 661 -181 749 -97 q 407 -264 574 -264 m 403 149 q 531 204 483 149 q 578 356 578 260 q 531 506 578 451 q 403 561 483 561 q 275 506 322 561 q 228 356 228 451 q 275 204 228 260 q 403 149 322 149 m 201 856 l 201 958 l 639 958 l 639 856 l 201 856 z "},"ǥ":{"ha":839,"x_min":53,"x_max":831,"o":"m 407 -264 q 230 -242 313 -264 q 85 -176 147 -221 l 135 -56 q 260 -113 193 -94 q 393 -132 326 -132 q 540 -79 493 -132 l 404 -79 l 404 29 l 579 29 q 579 47 579 36 l 579 185 q 492 94 551 128 q 357 60 432 60 q 198 101 267 60 q 91 214 129 142 q 53 376 53 286 q 91 540 53 468 q 198 652 129 611 q 357 693 267 693 q 492 659 432 693 q 579 568 551 625 l 579 679 l 749 679 l 749 68 q 747 29 749 49 l 831 29 l 831 -79 l 726 -79 q 407 -264 657 -264 m 403 192 q 528 243 481 192 q 576 376 576 294 q 528 510 576 458 q 403 561 481 561 q 276 510 325 561 q 228 376 228 460 q 277 242 228 293 q 403 192 326 192 z "},"h":{"ha":813,"x_min":90,"x_max":726,"o":"m 90 0 l 90 979 l 264 979 l 264 581 q 357 665 299 636 q 486 693 415 693 q 726 414 726 693 l 726 0 l 553 0 l 553 406 q 523 521 553 485 q 431 557 493 557 q 309 509 354 557 q 264 382 264 461 l 264 0 l 90 0 z "},"ħ":{"ha":813,"x_min":-31,"x_max":726,"o":"m 90 0 l 90 756 l -31 756 l -31 878 l 90 878 l 90 979 l 264 979 l 264 878 l 526 878 l 526 756 l 264 756 l 264 581 q 357 665 299 636 q 486 693 415 693 q 726 414 726 693 l 726 0 l 553 0 l 553 406 q 523 521 553 485 q 431 557 493 557 q 309 509 354 557 q 264 382 264 461 l 264 0 l 90 0 z "},"ḫ":{"ha":813,"x_min":90,"x_max":726,"o":"m 90 0 l 90 979 l 264 979 l 264 581 q 357 665 299 636 q 486 693 415 693 q 726 414 726 693 l 726 0 l 553 0 l 553 406 q 523 521 553 485 q 431 557 493 557 q 309 509 354 557 q 264 382 264 461 l 264 0 l 90 0 m 408 -299 q 244 -241 307 -299 q 178 -86 182 -183 l 276 -76 q 316 -164 282 -132 q 408 -196 350 -196 q 501 -164 467 -196 q 540 -76 535 -132 l 639 -86 q 574 -241 636 -183 q 408 -299 511 -299 z "},"ȟ":{"ha":813,"x_min":90,"x_max":726,"o":"m 90 0 l 90 979 l 264 979 l 264 581 q 357 665 299 636 q 486 693 415 693 q 726 414 726 693 l 726 0 l 553 0 l 553 406 q 523 521 553 485 q 431 557 493 557 q 309 509 354 557 q 264 382 264 461 l 264 0 l 90 0 m 333 1063 l 161 1304 l 283 1304 l 408 1160 l 533 1304 l 656 1304 l 483 1063 l 333 1063 z "},"ĥ":{"ha":813,"x_min":90,"x_max":726,"o":"m 90 0 l 90 979 l 264 979 l 264 581 q 357 665 299 636 q 486 693 415 693 q 726 414 726 693 l 726 0 l 553 0 l 553 406 q 523 521 553 485 q 431 557 493 557 q 309 509 354 557 q 264 382 264 461 l 264 0 l 90 0 m 161 1063 l 333 1304 l 483 1304 l 656 1063 l 533 1063 l 408 1207 l 283 1063 l 161 1063 z "},"ḥ":{"ha":813,"x_min":90,"x_max":726,"o":"m 90 0 l 90 979 l 264 979 l 264 581 q 357 665 299 636 q 486 693 415 693 q 726 414 726 693 l 726 0 l 553 0 l 553 406 q 523 521 553 485 q 431 557 493 557 q 309 509 354 557 q 264 382 264 461 l 264 0 l 90 0 m 324 -283 l 324 -122 l 493 -122 l 493 -283 l 324 -283 z "},"i":{"ha":354,"x_min":79,"x_max":274,"o":"m 79 825 l 79 994 l 274 994 l 274 825 l 79 825 m 90 0 l 90 679 l 264 679 l 264 0 l 90 0 z "},"ı":{"ha":354,"x_min":90,"x_max":264,"o":"m 90 0 l 90 679 l 264 679 l 264 0 l 90 0 z "},"í":{"ha":354,"x_min":90,"x_max":432,"o":"m 90 0 l 90 679 l 264 679 l 264 0 l 90 0 m 118 769 l 261 1051 l 432 1051 l 235 769 l 118 769 z "},"ĭ":{"ha":354,"x_min":-54,"x_max":407,"o":"m 90 0 l 90 679 l 264 679 l 264 0 l 90 0 m 176 765 q 13 838 75 765 q -54 1033 -50 910 l 44 1043 q 84 915 50 960 q 176 871 118 871 q 269 915 235 871 q 308 1043 303 960 l 407 1033 q 342 838 404 910 q 176 765 279 765 z "},"î":{"ha":354,"x_min":-53,"x_max":406,"o":"m 90 0 l 90 679 l 264 679 l 264 0 l 90 0 m -53 769 l 100 1051 l 253 1051 l 406 769 l 294 769 l 176 953 l 58 769 l -53 769 z "},"ȉ":{"ha":354,"x_min":-93,"x_max":328,"o":"m 90 0 l 90 679 l 264 679 l 264 0 l 90 0 m 236 769 l 114 1051 l 260 1051 l 328 769 l 236 769 m 31 769 l -93 1051 l 53 1051 l 122 769 l 31 769 z "},"ï":{"ha":354,"x_min":-35,"x_max":388,"o":"m 90 0 l 90 679 l 264 679 l 264 0 l 90 0 m 226 829 l 226 989 l 388 989 l 388 829 l 226 829 m -35 829 l -35 989 l 126 989 l 126 829 l -35 829 z "},"ḯ":{"ha":354,"x_min":-35,"x_max":390,"o":"m 90 0 l 90 679 l 264 679 l 264 0 l 90 0 m 122 942 l 224 1125 l 390 1125 l 231 942 l 122 942 m -35 769 l -35 892 l 126 892 l 126 769 l -35 769 m 226 769 l 226 892 l 388 892 l 388 769 l 226 769 z "},"ị":{"ha":354,"x_min":79,"x_max":274,"o":"m 79 825 l 79 994 l 274 994 l 274 825 l 79 825 m 90 0 l 90 679 l 264 679 l 264 0 l 90 0 m 92 -283 l 92 -122 l 261 -122 l 261 -283 l 92 -283 z "},"ì":{"ha":354,"x_min":-78,"x_max":264,"o":"m 90 0 l 90 679 l 264 679 l 264 0 l 90 0 m 118 769 l -78 1051 l 93 1051 l 235 769 l 118 769 z "},"ỉ":{"ha":354,"x_min":36,"x_max":333,"o":"m 90 0 l 90 679 l 264 679 l 264 0 l 90 0 m 124 769 l 124 799 q 135 847 124 828 q 163 881 147 867 q 190 908 178 894 q 201 940 201 922 q 146 975 201 975 q 63 954 103 975 l 36 1029 q 185 1063 94 1063 q 294 1037 254 1063 q 333 963 333 1011 q 317 906 333 928 q 281 869 301 885 q 245 837 261 854 q 229 792 229 819 l 229 769 l 124 769 z "},"ȋ":{"ha":354,"x_min":-54,"x_max":407,"o":"m 90 0 l 90 679 l 264 679 l 264 0 l 90 0 m 44 765 l -54 774 q 13 970 -50 897 q 176 1043 75 1043 q 342 970 279 1043 q 407 774 404 897 l 308 765 q 269 892 303 847 q 176 938 235 938 q 84 892 118 938 q 44 765 50 847 z "},"ī":{"ha":354,"x_min":-42,"x_max":396,"o":"m 90 0 l 90 679 l 264 679 l 264 0 l 90 0 m -42 856 l -42 958 l 396 958 l 396 856 l -42 856 z "},"į":{"ha":354,"x_min":35,"x_max":318,"o":"m 90 0 l 90 679 l 264 679 l 264 0 l 90 0 m 79 825 l 79 994 l 274 994 l 274 825 l 79 825 m 199 -271 q 78 -232 122 -271 q 35 -126 35 -193 q 74 -18 35 -68 q 176 58 113 32 l 228 0 q 169 -42 193 -14 q 144 -107 144 -71 q 167 -160 144 -142 q 222 -178 189 -178 q 260 -174 242 -178 q 297 -162 278 -169 l 318 -247 q 199 -271 267 -271 z "},"ĩ":{"ha":354,"x_min":-93,"x_max":446,"o":"m 90 0 l 90 679 l 264 679 l 264 0 l 90 0 m -7 811 l -93 817 q -42 967 -86 913 q 74 1022 3 1022 q 131 1009 106 1022 q 190 971 157 996 q 239 940 221 949 q 275 931 257 931 q 360 1028 346 931 l 446 1022 q 396 872 440 926 q 281 817 351 817 q 226 828 251 817 q 163 868 200 839 q 79 908 111 908 q -7 811 10 908 z "},"j":{"ha":360,"x_min":-75,"x_max":279,"o":"m 85 825 l 85 994 l 279 994 l 279 825 l 85 825 m -62 -268 l -75 -142 l -11 -135 q 96 -10 96 -122 l 96 679 l 269 679 l 269 13 q 207 -188 269 -124 q -3 -264 144 -253 l -62 -268 z "},"ȷ":{"ha":360,"x_min":-75,"x_max":269,"o":"m -62 -268 l -75 -142 l -11 -135 q 96 -10 96 -122 l 96 679 l 269 679 l 269 13 q 207 -188 269 -124 q -3 -264 144 -253 l -62 -268 z "},"ĵ":{"ha":360,"x_min":-75,"x_max":411,"o":"m -62 -268 l -75 -142 l -11 -135 q 96 -10 96 -122 l 96 679 l 269 679 l 269 13 q 207 -188 269 -124 q -3 -264 144 -253 l -62 -268 m -47 769 l 106 1051 l 258 1051 l 411 769 l 300 769 l 182 953 l 64 769 l -47 769 z "},"k":{"ha":744,"x_min":90,"x_max":769,"o":"m 90 0 l 90 979 l 264 979 l 264 390 l 267 390 l 540 679 l 750 679 l 442 354 l 769 0 l 557 0 l 267 303 l 264 303 l 264 0 l 90 0 z "},"ǩ":{"ha":744,"x_min":90,"x_max":769,"o":"m 90 0 l 90 979 l 264 979 l 264 390 l 267 390 l 540 679 l 750 679 l 442 354 l 769 0 l 557 0 l 267 303 l 264 303 l 264 0 l 90 0 m 333 1063 l 161 1304 l 283 1304 l 408 1160 l 533 1304 l 656 1304 l 483 1063 l 333 1063 z "},"ķ":{"ha":744,"x_min":90,"x_max":769,"o":"m 90 0 l 90 979 l 264 979 l 264 390 l 267 390 l 540 679 l 750 679 l 442 354 l 769 0 l 557 0 l 267 303 l 264 303 l 264 0 l 90 0 m 383 -386 l 318 -342 q 355 -293 343 -317 q 369 -243 367 -269 l 282 -243 l 282 -101 l 463 -101 l 463 -194 q 444 -299 463 -251 q 383 -386 426 -347 z "},"ĸ":{"ha":744,"x_min":90,"x_max":769,"o":"m 90 0 l 90 679 l 264 679 l 264 390 l 267 390 l 540 679 l 750 679 l 442 354 l 769 0 l 557 0 l 267 303 l 264 303 l 264 0 l 90 0 z "},"l":{"ha":443,"x_min":90,"x_max":429,"o":"m 326 -14 q 148 52 206 -14 q 90 246 90 118 l 90 979 l 264 979 l 264 254 q 369 129 264 129 q 400 131 385 129 q 429 136 415 132 l 426 -1 q 326 -14 376 -14 z "},"ĺ":{"ha":443,"x_min":90,"x_max":460,"o":"m 326 -14 q 148 52 206 -14 q 90 246 90 118 l 90 979 l 264 979 l 264 254 q 369 129 264 129 q 400 131 385 129 q 429 136 415 132 l 426 -1 q 326 -14 376 -14 m 115 1063 l 279 1304 l 460 1304 l 239 1063 l 115 1063 z "},"ľ":{"ha":443,"x_min":90,"x_max":436,"o":"m 326 -14 q 148 52 206 -14 q 90 246 90 118 l 90 979 l 264 979 l 264 254 q 369 129 264 129 q 400 131 385 129 q 429 136 415 132 l 426 -1 q 326 -14 376 -14 m 319 713 l 319 979 l 436 979 l 400 713 l 319 713 z "},"ļ":{"ha":443,"x_min":90,"x_max":429,"o":"m 326 -14 q 148 52 206 -14 q 90 246 90 118 l 90 979 l 264 979 l 264 254 q 369 129 264 129 q 400 131 385 129 q 429 136 415 132 l 426 -1 q 326 -14 376 -14 m 278 -386 l 213 -342 q 249 -293 238 -317 q 264 -243 261 -269 l 176 -243 l 176 -101 l 357 -101 l 357 -194 q 339 -299 357 -251 q 278 -386 321 -347 z "},"ŀ":{"ha":515,"x_min":90,"x_max":532,"o":"m 326 -14 q 148 52 206 -14 q 90 246 90 118 l 90 979 l 264 979 l 264 254 q 369 129 264 129 q 400 131 385 129 q 429 136 415 132 l 426 -1 q 326 -14 376 -14 m 338 410 l 338 581 l 532 581 l 532 410 l 338 410 z "},"ḷ":{"ha":443,"x_min":90,"x_max":429,"o":"m 326 -14 q 148 52 206 -14 q 90 246 90 118 l 90 979 l 264 979 l 264 254 q 369 129 264 129 q 400 131 385 129 q 429 136 415 132 l 426 -1 q 326 -14 376 -14 m 182 -283 l 182 -122 l 351 -122 l 351 -283 l 182 -283 z "},"ǉ":{"ha":803,"x_min":90,"x_max":722,"o":"m 326 -14 q 148 52 206 -14 q 90 246 90 118 l 90 979 l 264 979 l 264 254 q 369 129 264 129 q 400 131 385 129 q 429 136 415 132 l 426 -1 q 326 -14 376 -14 m 528 825 l 528 994 l 722 994 l 722 825 l 528 825 m 381 -268 l 368 -142 l 432 -135 q 539 -10 539 -122 l 539 679 l 713 679 l 713 13 q 650 -188 713 -124 q 440 -264 588 -253 l 381 -268 z "},"ḻ":{"ha":443,"x_min":49,"x_max":486,"o":"m 326 -14 q 148 52 206 -14 q 90 246 90 118 l 90 979 l 264 979 l 264 254 q 369 129 264 129 q 400 131 385 129 q 429 136 415 132 l 426 -1 q 326 -14 376 -14 m 49 -229 l 49 -126 l 486 -126 l 486 -229 l 49 -229 z "},"ł":{"ha":443,"x_min":-53,"x_max":435,"o":"m 326 -14 q 148 52 206 -14 q 90 246 90 118 l 90 979 l 264 979 l 264 254 q 369 129 264 129 q 400 131 385 129 q 429 136 415 132 l 426 -1 q 326 -14 376 -14 m 14 315 l -53 432 l 368 676 l 435 560 l 14 315 z "},"m":{"ha":1218,"x_min":93,"x_max":1129,"o":"m 93 0 l 93 679 l 263 679 l 263 575 q 347 662 293 631 q 472 693 401 693 q 672 560 625 693 q 764 658 704 622 q 900 693 824 693 q 1129 414 1129 693 l 1129 0 l 956 0 l 956 407 q 930 521 956 485 q 843 557 904 557 q 736 509 775 557 q 697 376 697 461 l 697 0 l 524 0 l 524 407 q 498 521 524 485 q 413 557 472 557 q 306 509 344 557 q 267 376 267 461 l 267 0 l 93 0 z "},"ṃ":{"ha":1218,"x_min":93,"x_max":1129,"o":"m 93 0 l 93 679 l 263 679 l 263 575 q 347 662 293 631 q 472 693 401 693 q 672 560 625 693 q 764 658 704 622 q 900 693 824 693 q 1129 414 1129 693 l 1129 0 l 956 0 l 956 407 q 930 521 956 485 q 843 557 904 557 q 736 509 775 557 q 697 376 697 461 l 697 0 l 524 0 l 524 407 q 498 521 524 485 q 413 557 472 557 q 306 509 344 557 q 267 376 267 461 l 267 0 l 93 0 m 526 -283 l 526 -122 l 696 -122 l 696 -283 l 526 -283 z "},"n":{"ha":813,"x_min":90,"x_max":726,"o":"m 90 0 l 90 679 l 260 679 l 260 574 q 353 663 294 632 q 486 693 413 693 q 726 414 726 693 l 726 0 l 553 0 l 553 406 q 523 521 553 485 q 431 557 493 557 q 309 509 354 557 q 264 382 264 461 l 264 0 l 90 0 z "},"ń":{"ha":813,"x_min":90,"x_max":726,"o":"m 90 0 l 90 679 l 260 679 l 260 574 q 353 663 294 632 q 486 693 413 693 q 726 414 726 693 l 726 0 l 553 0 l 553 406 q 523 521 553 485 q 431 557 493 557 q 309 509 354 557 q 264 382 264 461 l 264 0 l 90 0 m 350 769 l 493 1051 l 664 1051 l 467 769 l 350 769 z "},"ŉ":{"ha":813,"x_min":-36,"x_max":726,"o":"m 67 788 l 1 832 q 37 877 26 854 q 50 922 47 900 l -36 922 l -36 1068 l 144 1068 l 144 975 q 128 874 144 919 q 67 788 111 828 m 90 0 l 90 679 l 260 679 l 260 574 q 353 663 294 632 q 486 693 413 693 q 726 414 726 693 l 726 0 l 553 0 l 553 406 q 523 521 553 485 q 431 557 493 557 q 309 509 354 557 q 264 382 264 461 l 264 0 l 90 0 z "},"ň":{"ha":813,"x_min":90,"x_max":726,"o":"m 90 0 l 90 679 l 260 679 l 260 574 q 353 663 294 632 q 486 693 413 693 q 726 414 726 693 l 726 0 l 553 0 l 553 406 q 523 521 553 485 q 431 557 493 557 q 309 509 354 557 q 264 382 264 461 l 264 0 l 90 0 m 332 769 l 179 1051 l 290 1051 l 408 868 l 526 1051 l 638 1051 l 485 769 l 332 769 z "},"ņ":{"ha":813,"x_min":90,"x_max":726,"o":"m 90 0 l 90 679 l 260 679 l 260 574 q 353 663 294 632 q 486 693 413 693 q 726 414 726 693 l 726 0 l 553 0 l 553 406 q 523 521 553 485 q 431 557 493 557 q 309 509 354 557 q 264 382 264 461 l 264 0 l 90 0 m 419 -386 l 354 -342 q 391 -293 379 -317 q 406 -243 403 -269 l 318 -243 l 318 -101 l 499 -101 l 499 -194 q 481 -299 499 -251 q 419 -386 463 -347 z "},"ṅ":{"ha":813,"x_min":90,"x_max":726,"o":"m 90 0 l 90 679 l 260 679 l 260 574 q 353 663 294 632 q 486 693 413 693 q 726 414 726 693 l 726 0 l 553 0 l 553 406 q 523 521 553 485 q 431 557 493 557 q 309 509 354 557 q 264 382 264 461 l 264 0 l 90 0 m 324 829 l 324 990 l 493 990 l 493 829 l 324 829 z "},"ṇ":{"ha":813,"x_min":90,"x_max":726,"o":"m 90 0 l 90 679 l 260 679 l 260 574 q 353 663 294 632 q 486 693 413 693 q 726 414 726 693 l 726 0 l 553 0 l 553 406 q 523 521 553 485 q 431 557 493 557 q 309 509 354 557 q 264 382 264 461 l 264 0 l 90 0 m 324 -283 l 324 -122 l 493 -122 l 493 -283 l 324 -283 z "},"ŋ":{"ha":813,"x_min":90,"x_max":726,"o":"m 394 -268 l 383 -142 l 446 -135 q 553 -10 553 -122 l 553 406 q 523 521 553 485 q 431 557 493 557 q 309 509 354 557 q 264 382 264 461 l 264 0 l 90 0 l 90 679 l 260 679 l 260 574 q 353 663 294 632 q 486 693 413 693 q 726 414 726 693 l 726 13 q 664 -188 726 -124 q 456 -264 601 -253 l 394 -268 z "},"ǌ":{"ha":1172,"x_min":90,"x_max":1092,"o":"m 90 0 l 90 679 l 260 679 l 260 574 q 353 663 294 632 q 486 693 413 693 q 726 414 726 693 l 726 0 l 553 0 l 553 406 q 523 521 553 485 q 431 557 493 557 q 309 509 354 557 q 264 382 264 461 l 264 0 l 90 0 m 897 825 l 897 994 l 1092 994 l 1092 825 l 897 825 m 750 -268 l 738 -142 l 801 -135 q 908 -10 908 -122 l 908 679 l 1082 679 l 1082 13 q 1019 -188 1082 -124 q 810 -264 957 -253 l 750 -268 z "},"ṉ":{"ha":813,"x_min":90,"x_max":726,"o":"m 90 0 l 90 679 l 260 679 l 260 574 q 353 663 294 632 q 486 693 413 693 q 726 414 726 693 l 726 0 l 553 0 l 553 406 q 523 521 553 485 q 431 557 493 557 q 309 509 354 557 q 264 382 264 461 l 264 0 l 90 0 m 190 -229 l 190 -126 l 628 -126 l 628 -229 l 190 -229 z "},"ñ":{"ha":813,"x_min":90,"x_max":726,"o":"m 90 0 l 90 679 l 260 679 l 260 574 q 353 663 294 632 q 486 693 413 693 q 726 414 726 693 l 726 0 l 553 0 l 553 406 q 523 521 553 485 q 431 557 493 557 q 309 509 354 557 q 264 382 264 461 l 264 0 l 90 0 m 225 811 l 139 817 q 190 967 146 913 q 306 1022 235 1022 q 363 1009 338 1022 q 422 971 389 996 q 471 940 453 949 q 507 931 489 931 q 592 1028 578 931 l 678 1022 q 628 872 672 926 q 513 817 583 817 q 458 828 483 817 q 394 868 432 839 q 311 908 343 908 q 225 811 242 908 z "},"o":{"ha":800,"x_min":53,"x_max":747,"o":"m 400 -14 q 217 29 294 -14 q 96 152 139 72 q 53 340 53 232 q 96 528 53 449 q 217 650 139 607 q 400 693 294 693 q 583 650 506 693 q 704 528 661 607 q 747 340 747 449 q 704 152 747 232 q 583 29 661 72 q 400 -14 506 -14 m 400 118 q 525 174 478 118 q 572 340 572 231 q 525 506 572 451 q 400 561 478 561 q 275 506 322 561 q 228 340 228 451 q 275 174 228 231 q 400 118 322 118 z "},"ó":{"ha":800,"x_min":53,"x_max":747,"o":"m 400 -14 q 217 29 294 -14 q 96 152 139 72 q 53 340 53 232 q 96 528 53 449 q 217 650 139 607 q 400 693 294 693 q 583 650 506 693 q 704 528 661 607 q 747 340 747 449 q 704 152 747 232 q 583 29 661 72 q 400 -14 506 -14 m 400 118 q 525 174 478 118 q 572 340 572 231 q 525 506 572 451 q 400 561 478 561 q 275 506 322 561 q 228 340 228 451 q 275 174 228 231 q 400 118 322 118 m 342 769 l 485 1051 l 656 1051 l 458 769 l 342 769 z "},"ŏ":{"ha":800,"x_min":53,"x_max":747,"o":"m 400 -14 q 217 29 294 -14 q 96 152 139 72 q 53 340 53 232 q 96 528 53 449 q 217 650 139 607 q 400 693 294 693 q 583 650 506 693 q 704 528 661 607 q 747 340 747 449 q 704 152 747 232 q 583 29 661 72 q 400 -14 506 -14 m 400 118 q 525 174 478 118 q 572 340 572 231 q 525 506 572 451 q 400 561 478 561 q 275 506 322 561 q 228 340 228 451 q 275 174 228 231 q 400 118 322 118 m 400 765 q 236 838 299 765 q 169 1033 174 910 l 268 1043 q 308 915 274 960 q 400 871 342 871 q 492 915 458 871 q 532 1043 526 960 l 631 1033 q 565 838 628 910 q 400 765 503 765 z "},"ô":{"ha":800,"x_min":53,"x_max":747,"o":"m 400 -14 q 217 29 294 -14 q 96 152 139 72 q 53 340 53 232 q 96 528 53 449 q 217 650 139 607 q 400 693 294 693 q 583 650 506 693 q 704 528 661 607 q 747 340 747 449 q 704 152 747 232 q 583 29 661 72 q 400 -14 506 -14 m 400 118 q 525 174 478 118 q 572 340 572 231 q 525 506 572 451 q 400 561 478 561 q 275 506 322 561 q 228 340 228 451 q 275 174 228 231 q 400 118 322 118 m 171 769 l 324 1051 l 476 1051 l 629 769 l 518 769 l 400 953 l 282 769 l 171 769 z "},"ố":{"ha":800,"x_min":53,"x_max":813,"o":"m 400 -14 q 217 29 294 -14 q 96 152 139 72 q 53 340 53 232 q 96 528 53 449 q 217 650 139 607 q 400 693 294 693 q 583 650 506 693 q 704 528 661 607 q 747 340 747 449 q 704 152 747 232 q 583 29 661 72 q 400 -14 506 -14 m 400 118 q 525 174 478 118 q 572 340 572 231 q 525 506 572 451 q 400 561 478 561 q 275 506 322 561 q 228 340 228 451 q 275 174 228 231 q 400 118 322 118 m 551 917 l 668 1125 l 813 1125 l 650 917 l 551 917 m 171 769 l 324 996 l 476 996 l 629 769 l 518 769 l 400 901 l 282 769 l 171 769 z "},"ộ":{"ha":800,"x_min":53,"x_max":747,"o":"m 400 -14 q 217 29 294 -14 q 96 152 139 72 q 53 340 53 232 q 96 528 53 449 q 217 650 139 607 q 400 693 294 693 q 583 650 506 693 q 704 528 661 607 q 747 340 747 449 q 704 152 747 232 q 583 29 661 72 q 400 -14 506 -14 m 400 118 q 525 174 478 118 q 572 340 572 231 q 525 506 572 451 q 400 561 478 561 q 275 506 322 561 q 228 340 228 451 q 275 174 228 231 q 400 118 322 118 m 315 -283 l 315 -122 l 485 -122 l 485 -283 l 315 -283 m 171 769 l 324 1051 l 476 1051 l 629 769 l 518 769 l 400 953 l 282 769 l 171 769 z "},"ồ":{"ha":800,"x_min":53,"x_max":747,"o":"m 400 -14 q 217 29 294 -14 q 96 152 139 72 q 53 340 53 232 q 96 528 53 449 q 217 650 139 607 q 400 693 294 693 q 583 650 506 693 q 704 528 661 607 q 747 340 747 449 q 704 152 747 232 q 583 29 661 72 q 400 -14 506 -14 m 400 118 q 525 174 478 118 q 572 340 572 231 q 525 506 572 451 q 400 561 478 561 q 275 506 322 561 q 228 340 228 451 q 275 174 228 231 q 400 118 322 118 m 606 917 l 443 1125 l 589 1125 l 706 917 l 606 917 m 171 769 l 324 996 l 476 996 l 629 769 l 518 769 l 400 901 l 282 769 l 171 769 z "},"ổ":{"ha":800,"x_min":53,"x_max":747,"o":"m 400 -14 q 217 29 294 -14 q 96 152 139 72 q 53 340 53 232 q 96 528 53 449 q 217 650 139 607 q 400 693 294 693 q 583 650 506 693 q 704 528 661 607 q 747 340 747 449 q 704 152 747 232 q 583 29 661 72 q 400 -14 506 -14 m 400 118 q 525 174 478 118 q 572 340 572 231 q 525 506 572 451 q 400 561 478 561 q 275 506 322 561 q 228 340 228 451 q 275 174 228 231 q 400 118 322 118 m 554 917 q 572 969 554 951 q 606 1001 589 988 q 624 1033 624 1014 q 610 1051 624 1046 q 575 1056 597 1056 q 535 1052 556 1056 q 494 1040 515 1049 l 472 1106 q 532 1124 500 1118 q 608 1131 564 1131 q 705 1112 671 1131 q 739 1060 739 1093 q 726 1017 739 1033 q 694 986 713 1000 q 663 956 676 972 q 650 917 650 940 l 554 917 m 171 769 l 324 996 l 476 996 l 629 769 l 518 769 l 400 901 l 282 769 l 171 769 z "},"ỗ":{"ha":800,"x_min":53,"x_max":747,"o":"m 400 -14 q 217 29 294 -14 q 96 152 139 72 q 53 340 53 232 q 96 528 53 449 q 217 650 139 607 q 400 693 294 693 q 583 650 506 693 q 704 528 661 607 q 747 340 747 449 q 704 152 747 232 q 583 29 661 72 q 400 -14 506 -14 m 400 118 q 525 174 478 118 q 572 340 572 231 q 525 506 572 451 q 400 561 478 561 q 275 506 322 561 q 228 340 228 451 q 275 174 228 231 q 400 118 322 118 m 242 988 l 161 992 q 208 1104 167 1067 q 308 1142 249 1142 q 358 1133 333 1142 q 414 1107 382 1125 q 488 1081 463 1081 q 558 1143 546 1081 l 639 1139 q 594 1026 633 1064 q 493 989 554 989 q 442 998 467 989 q 386 1024 417 1007 q 342 1044 357 1039 q 314 1050 326 1050 q 265 1035 282 1050 q 242 988 249 1019 m 171 769 l 324 954 l 476 954 l 629 769 l 521 769 l 400 869 l 279 769 l 171 769 z "},"ȍ":{"ha":800,"x_min":53,"x_max":747,"o":"m 400 -14 q 217 29 294 -14 q 96 152 139 72 q 53 340 53 232 q 96 528 53 449 q 217 650 139 607 q 400 693 294 693 q 583 650 506 693 q 704 528 661 607 q 747 340 747 449 q 704 152 747 232 q 583 29 661 72 q 400 -14 506 -14 m 400 118 q 525 174 478 118 q 572 340 572 231 q 525 506 572 451 q 400 561 478 561 q 275 506 322 561 q 228 340 228 451 q 275 174 228 231 q 400 118 322 118 m 460 769 l 338 1051 l 483 1051 l 551 769 l 460 769 m 254 769 l 131 1051 l 276 1051 l 346 769 l 254 769 z "},"ö":{"ha":800,"x_min":53,"x_max":747,"o":"m 400 -14 q 217 29 294 -14 q 96 152 139 72 q 53 340 53 232 q 96 528 53 449 q 217 650 139 607 q 400 693 294 693 q 583 650 506 693 q 704 528 661 607 q 747 340 747 449 q 704 152 747 232 q 583 29 661 72 q 400 -14 506 -14 m 400 118 q 525 174 478 118 q 572 340 572 231 q 525 506 572 451 q 400 561 478 561 q 275 506 322 561 q 228 340 228 451 q 275 174 228 231 q 400 118 322 118 m 450 829 l 450 989 l 611 989 l 611 829 l 450 829 m 189 829 l 189 989 l 350 989 l 350 829 l 189 829 z "},"ȫ":{"ha":800,"x_min":53,"x_max":747,"o":"m 400 -14 q 217 29 294 -14 q 96 152 139 72 q 53 340 53 232 q 96 528 53 449 q 217 650 139 607 q 400 693 294 693 q 583 650 506 693 q 704 528 661 607 q 747 340 747 449 q 704 152 747 232 q 583 29 661 72 q 400 -14 506 -14 m 400 118 q 525 174 478 118 q 572 340 572 231 q 525 506 572 451 q 400 561 478 561 q 275 506 322 561 q 228 340 228 451 q 275 174 228 231 q 400 118 322 118 m 181 983 l 181 1086 l 619 1086 l 619 983 l 181 983 m 189 794 l 189 915 l 350 915 l 350 794 l 189 794 m 450 794 l 450 915 l 611 915 l 611 794 l 450 794 z "},"ȱ":{"ha":800,"x_min":53,"x_max":747,"o":"m 400 -14 q 217 29 294 -14 q 96 152 139 72 q 53 340 53 232 q 96 528 53 449 q 217 650 139 607 q 400 693 294 693 q 583 650 506 693 q 704 528 661 607 q 747 340 747 449 q 704 152 747 232 q 583 29 661 72 q 400 -14 506 -14 m 400 118 q 525 174 478 118 q 572 340 572 231 q 525 506 572 451 q 400 561 478 561 q 275 506 322 561 q 228 340 228 451 q 275 174 228 231 q 400 118 322 118 m 181 983 l 181 1086 l 619 1086 l 619 983 l 181 983 m 319 794 l 319 915 l 481 915 l 481 794 l 319 794 z "},"ọ":{"ha":800,"x_min":53,"x_max":747,"o":"m 400 -14 q 217 29 294 -14 q 96 152 139 72 q 53 340 53 232 q 96 528 53 449 q 217 650 139 607 q 400 693 294 693 q 583 650 506 693 q 704 528 661 607 q 747 340 747 449 q 704 152 747 232 q 583 29 661 72 q 400 -14 506 -14 m 400 118 q 525 174 478 118 q 572 340 572 231 q 525 506 572 451 q 400 561 478 561 q 275 506 322 561 q 228 340 228 451 q 275 174 228 231 q 400 118 322 118 m 315 -283 l 315 -122 l 485 -122 l 485 -283 l 315 -283 z "},"ò":{"ha":800,"x_min":53,"x_max":747,"o":"m 400 -14 q 217 29 294 -14 q 96 152 139 72 q 53 340 53 232 q 96 528 53 449 q 217 650 139 607 q 400 693 294 693 q 583 650 506 693 q 704 528 661 607 q 747 340 747 449 q 704 152 747 232 q 583 29 661 72 q 400 -14 506 -14 m 400 118 q 525 174 478 118 q 572 340 572 231 q 525 506 572 451 q 400 561 478 561 q 275 506 322 561 q 228 340 228 451 q 275 174 228 231 q 400 118 322 118 m 342 769 l 146 1051 l 317 1051 l 458 769 l 342 769 z "},"ỏ":{"ha":800,"x_min":53,"x_max":747,"o":"m 400 -14 q 217 29 294 -14 q 96 152 139 72 q 53 340 53 232 q 96 528 53 449 q 217 650 139 607 q 400 693 294 693 q 583 650 506 693 q 704 528 661 607 q 747 340 747 449 q 704 152 747 232 q 583 29 661 72 q 400 -14 506 -14 m 400 118 q 525 174 478 118 q 572 340 572 231 q 525 506 572 451 q 400 561 478 561 q 275 506 322 561 q 228 340 228 451 q 275 174 228 231 q 400 118 322 118 m 347 769 l 347 799 q 359 847 347 828 q 386 881 371 867 q 413 908 401 894 q 425 940 425 922 q 369 975 425 975 q 286 954 326 975 l 260 1029 q 408 1063 318 1063 q 517 1037 478 1063 q 557 963 557 1011 q 541 906 557 928 q 505 869 525 885 q 469 837 485 854 q 453 792 453 819 l 453 769 l 347 769 z "},"ơ":{"ha":800,"x_min":53,"x_max":768,"o":"m 400 -14 q 217 29 294 -14 q 96 152 139 72 q 53 340 53 232 q 96 528 53 449 q 217 650 139 607 q 400 693 294 693 q 583 650 506 693 q 704 528 661 607 q 747 340 747 449 q 704 152 747 232 q 583 29 661 72 q 400 -14 506 -14 m 400 118 q 525 174 478 118 q 572 340 572 231 q 525 506 572 451 q 400 561 478 561 q 275 506 322 561 q 228 340 228 451 q 275 174 228 231 q 400 118 322 118 m 581 590 l 482 653 l 482 679 q 587 712 556 681 q 618 826 618 743 l 618 856 l 768 856 l 768 804 q 717 657 768 715 q 581 590 667 599 z "},"ớ":{"ha":800,"x_min":53,"x_max":768,"o":"m 400 -14 q 217 29 294 -14 q 96 152 139 72 q 53 340 53 232 q 96 528 53 449 q 217 650 139 607 q 400 693 294 693 q 583 650 506 693 q 704 528 661 607 q 747 340 747 449 q 704 152 747 232 q 583 29 661 72 q 400 -14 506 -14 m 400 118 q 525 174 478 118 q 572 340 572 231 q 525 506 572 451 q 400 561 478 561 q 275 506 322 561 q 228 340 228 451 q 275 174 228 231 q 400 118 322 118 m 581 590 l 482 653 l 482 679 q 587 712 556 681 q 618 826 618 743 l 618 856 l 768 856 l 768 804 q 717 657 768 715 q 581 590 667 599 m 342 769 l 485 1051 l 656 1051 l 458 769 l 342 769 z "},"ợ":{"ha":800,"x_min":53,"x_max":768,"o":"m 400 -14 q 217 29 294 -14 q 96 152 139 72 q 53 340 53 232 q 96 528 53 449 q 217 650 139 607 q 400 693 294 693 q 583 650 506 693 q 704 528 661 607 q 747 340 747 449 q 704 152 747 232 q 583 29 661 72 q 400 -14 506 -14 m 400 118 q 525 174 478 118 q 572 340 572 231 q 525 506 572 451 q 400 561 478 561 q 275 506 322 561 q 228 340 228 451 q 275 174 228 231 q 400 118 322 118 m 581 590 l 482 653 l 482 679 q 587 712 556 681 q 618 826 618 743 l 618 856 l 768 856 l 768 804 q 717 657 768 715 q 581 590 667 599 m 315 -283 l 315 -122 l 485 -122 l 485 -283 l 315 -283 z "},"ờ":{"ha":800,"x_min":53,"x_max":768,"o":"m 400 -14 q 217 29 294 -14 q 96 152 139 72 q 53 340 53 232 q 96 528 53 449 q 217 650 139 607 q 400 693 294 693 q 583 650 506 693 q 704 528 661 607 q 747 340 747 449 q 704 152 747 232 q 583 29 661 72 q 400 -14 506 -14 m 400 118 q 525 174 478 118 q 572 340 572 231 q 525 506 572 451 q 400 561 478 561 q 275 506 322 561 q 228 340 228 451 q 275 174 228 231 q 400 118 322 118 m 581 590 l 482 653 l 482 679 q 587 712 556 681 q 618 826 618 743 l 618 856 l 768 856 l 768 804 q 717 657 768 715 q 581 590 667 599 m 342 769 l 146 1051 l 317 1051 l 458 769 l 342 769 z "},"ở":{"ha":800,"x_min":53,"x_max":768,"o":"m 400 -14 q 217 29 294 -14 q 96 152 139 72 q 53 340 53 232 q 96 528 53 449 q 217 650 139 607 q 400 693 294 693 q 583 650 506 693 q 704 528 661 607 q 747 340 747 449 q 704 152 747 232 q 583 29 661 72 q 400 -14 506 -14 m 400 118 q 525 174 478 118 q 572 340 572 231 q 525 506 572 451 q 400 561 478 561 q 275 506 322 561 q 228 340 228 451 q 275 174 228 231 q 400 118 322 118 m 581 590 l 482 653 l 482 679 q 587 712 556 681 q 618 826 618 743 l 618 856 l 768 856 l 768 804 q 717 657 768 715 q 581 590 667 599 m 347 769 l 347 799 q 359 847 347 828 q 386 881 371 867 q 413 908 401 894 q 425 940 425 922 q 369 975 425 975 q 286 954 326 975 l 260 1029 q 408 1063 318 1063 q 517 1037 478 1063 q 557 963 557 1011 q 541 906 557 928 q 505 869 525 885 q 469 837 485 854 q 453 792 453 819 l 453 769 l 347 769 z "},"ỡ":{"ha":800,"x_min":53,"x_max":768,"o":"m 400 -14 q 217 29 294 -14 q 96 152 139 72 q 53 340 53 232 q 96 528 53 449 q 217 650 139 607 q 400 693 294 693 q 583 650 506 693 q 704 528 661 607 q 747 340 747 449 q 704 152 747 232 q 583 29 661 72 q 400 -14 506 -14 m 400 118 q 525 174 478 118 q 572 340 572 231 q 525 506 572 451 q 400 561 478 561 q 275 506 322 561 q 228 340 228 451 q 275 174 228 231 q 400 118 322 118 m 581 590 l 482 653 l 482 679 q 587 712 556 681 q 618 826 618 743 l 618 856 l 768 856 l 768 804 q 717 657 768 715 q 581 590 667 599 m 218 811 l 132 817 q 181 969 139 915 q 288 1022 224 1022 q 338 1011 315 1022 q 396 972 361 1000 q 441 940 424 949 q 476 931 458 931 q 557 1028 542 931 l 643 1022 q 595 870 638 924 q 489 817 553 817 q 436 828 461 817 q 378 868 411 840 q 333 900 351 892 q 299 908 314 908 q 218 811 233 908 z "},"ő":{"ha":800,"x_min":53,"x_max":747,"o":"m 400 -14 q 217 29 294 -14 q 96 152 139 72 q 53 340 53 232 q 96 528 53 449 q 217 650 139 607 q 400 693 294 693 q 583 650 506 693 q 704 528 661 607 q 747 340 747 449 q 704 152 747 232 q 583 29 661 72 q 400 -14 506 -14 m 400 118 q 525 174 478 118 q 572 340 572 231 q 525 506 572 451 q 400 561 478 561 q 275 506 322 561 q 228 340 228 451 q 275 174 228 231 q 400 118 322 118 m 456 769 l 524 1051 l 669 1051 l 547 769 l 456 769 m 249 769 l 318 1051 l 464 1051 l 340 769 l 249 769 z "},"ȏ":{"ha":800,"x_min":53,"x_max":747,"o":"m 400 -14 q 217 29 294 -14 q 96 152 139 72 q 53 340 53 232 q 96 528 53 449 q 217 650 139 607 q 400 693 294 693 q 583 650 506 693 q 704 528 661 607 q 747 340 747 449 q 704 152 747 232 q 583 29 661 72 q 400 -14 506 -14 m 400 118 q 525 174 478 118 q 572 340 572 231 q 525 506 572 451 q 400 561 478 561 q 275 506 322 561 q 228 340 228 451 q 275 174 228 231 q 400 118 322 118 m 268 765 l 169 774 q 236 970 174 897 q 400 1043 299 1043 q 565 970 503 1043 q 631 774 628 897 l 532 765 q 492 892 526 847 q 400 938 458 938 q 308 892 342 938 q 268 765 274 847 z "},"ō":{"ha":800,"x_min":53,"x_max":747,"o":"m 400 -14 q 217 29 294 -14 q 96 152 139 72 q 53 340 53 232 q 96 528 53 449 q 217 650 139 607 q 400 693 294 693 q 583 650 506 693 q 704 528 661 607 q 747 340 747 449 q 704 152 747 232 q 583 29 661 72 q 400 -14 506 -14 m 400 118 q 525 174 478 118 q 572 340 572 231 q 525 506 572 451 q 400 561 478 561 q 275 506 322 561 q 228 340 228 451 q 275 174 228 231 q 400 118 322 118 m 182 856 l 182 958 l 619 958 l 619 856 l 182 856 z "},"ṓ":{"ha":800,"x_min":53,"x_max":747,"o":"m 400 -14 q 217 29 294 -14 q 96 152 139 72 q 53 340 53 232 q 96 528 53 449 q 217 650 139 607 q 400 693 294 693 q 583 650 506 693 q 704 528 661 607 q 747 340 747 449 q 704 152 747 232 q 583 29 661 72 q 400 -14 506 -14 m 400 118 q 525 174 478 118 q 572 340 572 231 q 525 506 572 451 q 400 561 478 561 q 275 506 322 561 q 228 340 228 451 q 275 174 228 231 q 400 118 322 118 m 346 942 l 447 1125 l 614 1125 l 454 942 l 346 942 m 182 788 l 182 890 l 619 890 l 619 788 l 182 788 z "},"ṑ":{"ha":800,"x_min":53,"x_max":747,"o":"m 400 -14 q 217 29 294 -14 q 96 152 139 72 q 53 340 53 232 q 96 528 53 449 q 217 650 139 607 q 400 693 294 693 q 583 650 506 693 q 704 528 661 607 q 747 340 747 449 q 704 152 747 232 q 583 29 661 72 q 400 -14 506 -14 m 400 118 q 525 174 478 118 q 572 340 572 231 q 525 506 572 451 q 400 561 478 561 q 275 506 322 561 q 228 340 228 451 q 275 174 228 231 q 400 118 322 118 m 346 942 l 188 1125 l 353 1125 l 454 942 l 346 942 m 182 788 l 182 890 l 619 890 l 619 788 l 182 788 z "},"ǫ":{"ha":800,"x_min":53,"x_max":747,"o":"m 400 -14 q 217 29 294 -14 q 96 152 139 72 q 53 340 53 232 q 96 528 53 449 q 217 650 139 607 q 400 693 294 693 q 583 650 506 693 q 704 528 661 607 q 747 340 747 449 q 704 152 747 232 q 583 29 661 72 q 400 -14 506 -14 m 400 118 q 525 174 478 118 q 572 340 572 231 q 525 506 572 451 q 400 561 478 561 q 275 506 322 561 q 228 340 228 451 q 275 174 228 231 q 400 118 322 118 m 453 -271 q 333 -232 376 -271 q 289 -126 289 -193 q 328 -18 289 -68 q 431 58 367 32 l 482 0 q 423 -42 447 -14 q 399 -107 399 -71 q 421 -160 399 -142 q 476 -178 443 -178 q 514 -174 496 -178 q 551 -162 532 -169 l 572 -247 q 453 -271 521 -271 z "},"ø":{"ha":800,"x_min":53,"x_max":747,"o":"m 217 -82 l 121 -26 l 171 60 q 84 177 115 106 q 53 340 53 249 q 96 528 53 449 q 217 650 139 607 q 400 693 294 693 q 531 672 471 693 l 583 763 l 679 707 l 628 619 q 716 503 685 574 q 747 340 747 432 q 704 152 747 232 q 583 29 661 72 q 400 -14 506 -14 q 268 7 329 -14 l 217 -82 m 228 340 q 256 204 228 258 l 460 551 q 400 561 432 561 q 275 506 322 561 q 228 340 228 451 m 400 118 q 525 174 478 118 q 572 340 572 231 q 544 476 572 422 l 340 128 q 400 118 367 118 z "},"ǿ":{"ha":800,"x_min":53,"x_max":747,"o":"m 217 -82 l 121 -26 l 171 60 q 84 177 115 106 q 53 340 53 249 q 96 528 53 449 q 217 650 139 607 q 400 693 294 693 q 531 672 471 693 l 583 763 l 679 707 l 628 619 q 716 503 685 574 q 747 340 747 432 q 704 152 747 232 q 583 29 661 72 q 400 -14 506 -14 q 268 7 329 -14 l 217 -82 m 228 340 q 256 204 228 258 l 460 551 q 400 561 432 561 q 275 506 322 561 q 228 340 228 451 m 400 118 q 525 174 478 118 q 572 340 572 231 q 544 476 572 422 l 340 128 q 400 118 367 118 m 342 769 l 485 1051 l 656 1051 l 458 769 l 342 769 z "},"õ":{"ha":800,"x_min":53,"x_max":747,"o":"m 400 -14 q 217 29 294 -14 q 96 152 139 72 q 53 340 53 232 q 96 528 53 449 q 217 650 139 607 q 400 693 294 693 q 583 650 506 693 q 704 528 661 607 q 747 340 747 449 q 704 152 747 232 q 583 29 661 72 q 400 -14 506 -14 m 400 118 q 525 174 478 118 q 572 340 572 231 q 525 506 572 451 q 400 561 478 561 q 275 506 322 561 q 228 340 228 451 q 275 174 228 231 q 400 118 322 118 m 217 811 l 131 817 q 182 967 138 913 q 297 1022 226 1022 q 355 1009 329 1022 q 414 971 381 996 q 463 940 444 949 q 499 931 481 931 q 583 1028 569 931 l 669 1022 q 619 872 664 926 q 504 817 575 817 q 449 828 475 817 q 386 868 424 839 q 303 908 335 908 q 217 811 233 908 z "},"ṍ":{"ha":800,"x_min":53,"x_max":747,"o":"m 400 -14 q 217 29 294 -14 q 96 152 139 72 q 53 340 53 232 q 96 528 53 449 q 217 650 139 607 q 400 693 294 693 q 583 650 506 693 q 704 528 661 607 q 747 340 747 449 q 704 152 747 232 q 583 29 661 72 q 400 -14 506 -14 m 400 118 q 525 174 478 118 q 572 340 572 231 q 525 506 572 451 q 400 561 478 561 q 275 506 322 561 q 228 340 228 451 q 275 174 228 231 q 400 118 322 118 m 346 942 l 447 1125 l 614 1125 l 454 942 l 346 942 m 242 764 l 161 768 q 208 881 167 843 q 308 918 249 918 q 356 910 331 918 q 414 883 381 903 q 453 865 433 872 q 488 857 472 857 q 558 919 546 857 l 639 915 q 594 803 633 840 q 493 765 554 765 q 386 800 447 765 q 343 821 360 815 q 314 826 326 826 q 265 811 282 826 q 242 764 249 796 z "},"ṏ":{"ha":800,"x_min":53,"x_max":747,"o":"m 400 -14 q 217 29 294 -14 q 96 152 139 72 q 53 340 53 232 q 96 528 53 449 q 217 650 139 607 q 400 693 294 693 q 583 650 506 693 q 704 528 661 607 q 747 340 747 449 q 704 152 747 232 q 583 29 661 72 q 400 -14 506 -14 m 400 118 q 525 174 478 118 q 572 340 572 231 q 525 506 572 451 q 400 561 478 561 q 275 506 322 561 q 228 340 228 451 q 275 174 228 231 q 400 118 322 118 m 190 968 l 190 1090 l 349 1090 l 349 968 l 190 968 m 451 968 l 451 1090 l 611 1090 l 611 968 l 451 968 m 242 764 l 161 768 q 208 881 167 843 q 308 918 249 918 q 356 910 331 918 q 414 883 381 903 q 453 865 433 872 q 488 857 472 857 q 558 919 546 857 l 639 915 q 594 803 633 840 q 493 765 554 765 q 386 800 447 765 q 343 821 360 815 q 314 826 326 826 q 265 811 282 826 q 242 764 249 796 z "},"ȭ":{"ha":800,"x_min":53,"x_max":747,"o":"m 400 -14 q 217 29 294 -14 q 96 152 139 72 q 53 340 53 232 q 96 528 53 449 q 217 650 139 607 q 400 693 294 693 q 583 650 506 693 q 704 528 661 607 q 747 340 747 449 q 704 152 747 232 q 583 29 661 72 q 400 -14 506 -14 m 400 118 q 525 174 478 118 q 572 340 572 231 q 525 506 572 451 q 400 561 478 561 q 275 506 322 561 q 228 340 228 451 q 275 174 228 231 q 400 118 322 118 m 182 983 l 182 1086 l 619 1086 l 619 983 l 182 983 m 242 764 l 161 768 q 208 881 167 843 q 308 918 249 918 q 356 910 331 918 q 414 883 381 903 q 453 865 433 872 q 488 857 472 857 q 558 919 546 857 l 639 915 q 594 803 633 840 q 493 765 554 765 q 386 800 447 765 q 343 821 360 815 q 314 826 326 826 q 265 811 282 826 q 242 764 249 796 z "},"œ":{"ha":1269,"x_min":53,"x_max":1222,"o":"m 394 -14 q 214 30 290 -14 q 95 153 138 74 q 53 342 53 233 q 95 528 53 450 q 214 650 138 607 q 394 693 290 693 q 550 658 483 693 q 658 560 617 624 q 764 656 697 619 q 914 693 831 693 q 1139 601 1056 693 q 1222 351 1222 510 l 1222 300 l 746 300 q 803 164 754 210 q 947 118 853 118 q 1163 192 1065 118 l 1211 74 q 1090 10 1163 33 q 944 -14 1018 -14 q 771 21 846 -14 q 656 121 696 56 q 548 22 614 57 q 394 -14 482 -14 m 918 575 q 799 531 844 575 q 746 400 754 486 l 1078 400 q 1033 530 1074 485 q 918 575 992 575 m 400 118 q 525 174 478 118 q 572 340 572 231 q 525 506 572 450 q 400 561 478 561 q 275 506 322 561 q 228 340 228 450 q 276 174 228 231 q 400 118 324 118 z "},"p":{"ha":833,"x_min":90,"x_max":781,"o":"m 90 -250 l 90 679 l 260 679 l 260 571 q 348 660 289 626 q 482 693 407 693 q 638 650 571 693 q 743 528 706 607 q 781 340 781 450 q 743 152 781 232 q 639 29 706 72 q 482 -14 572 -14 q 352 17 410 -14 q 264 101 294 49 l 264 -250 l 90 -250 m 433 118 q 558 174 511 118 q 606 340 606 231 q 558 506 606 451 q 433 561 511 561 q 308 506 356 561 q 261 340 261 451 q 308 174 261 231 q 433 118 356 118 z "},"þ":{"ha":833,"x_min":90,"x_max":781,"o":"m 90 -250 l 90 979 l 264 979 l 264 579 q 352 663 294 632 q 482 693 410 693 q 638 650 571 693 q 743 528 706 607 q 781 340 781 450 q 743 152 781 232 q 639 29 706 72 q 482 -14 572 -14 q 352 17 410 -14 q 264 101 294 49 l 264 -250 l 90 -250 m 433 118 q 558 174 511 118 q 606 340 606 231 q 558 506 606 451 q 433 561 511 561 q 308 506 356 561 q 261 340 261 451 q 308 174 261 231 q 433 118 356 118 z "},"q":{"ha":833,"x_min":53,"x_max":743,"o":"m 569 -250 l 569 103 q 482 18 540 50 q 351 -14 424 -14 q 195 29 263 -14 q 90 152 128 72 q 53 340 53 232 q 90 528 53 450 q 195 650 128 607 q 351 693 263 693 q 486 659 426 693 q 574 568 546 625 l 574 679 l 743 679 l 743 -250 l 569 -250 m 400 118 q 525 174 478 118 q 572 340 572 231 q 525 506 572 451 q 400 561 478 561 q 275 506 322 561 q 228 340 228 451 q 275 174 228 231 q 400 118 322 118 z "},"r":{"ha":544,"x_min":90,"x_max":538,"o":"m 90 0 l 90 679 l 260 679 l 260 560 q 474 693 310 681 l 526 697 l 538 550 l 438 540 q 267 365 267 524 l 267 0 l 90 0 z "},"ŕ":{"ha":544,"x_min":90,"x_max":571,"o":"m 90 0 l 90 679 l 260 679 l 260 560 q 474 693 310 681 l 526 697 l 538 550 l 438 540 q 267 365 267 524 l 267 0 l 90 0 m 257 769 l 400 1051 l 571 1051 l 374 769 l 257 769 z "},"ř":{"ha":544,"x_min":86,"x_max":544,"o":"m 90 0 l 90 679 l 260 679 l 260 560 q 474 693 310 681 l 526 697 l 538 550 l 438 540 q 267 365 267 524 l 267 0 l 90 0 m 239 769 l 86 1051 l 197 1051 l 315 868 l 433 1051 l 544 1051 l 392 769 l 239 769 z "},"ŗ":{"ha":544,"x_min":88,"x_max":538,"o":"m 90 0 l 90 679 l 260 679 l 260 560 q 474 693 310 681 l 526 697 l 538 550 l 438 540 q 267 365 267 524 l 267 0 l 90 0 m 189 -386 l 124 -342 q 160 -293 149 -317 q 175 -243 172 -269 l 88 -243 l 88 -101 l 268 -101 l 268 -194 q 250 -299 268 -251 q 189 -386 232 -347 z "},"ȑ":{"ha":544,"x_min":46,"x_max":538,"o":"m 90 0 l 90 679 l 260 679 l 260 560 q 474 693 310 681 l 526 697 l 538 550 l 438 540 q 267 365 267 524 l 267 0 l 90 0 m 375 769 l 253 1051 l 399 1051 l 467 769 l 375 769 m 169 769 l 46 1051 l 192 1051 l 261 769 l 169 769 z "},"ṛ":{"ha":544,"x_min":90,"x_max":538,"o":"m 90 0 l 90 679 l 260 679 l 260 560 q 474 693 310 681 l 526 697 l 538 550 l 438 540 q 267 365 267 524 l 267 0 l 90 0 m 93 -283 l 93 -122 l 263 -122 l 263 -283 l 93 -283 z "},"ȓ":{"ha":544,"x_min":85,"x_max":546,"o":"m 90 0 l 90 679 l 260 679 l 260 560 q 474 693 310 681 l 526 697 l 538 550 l 438 540 q 267 365 267 524 l 267 0 l 90 0 m 183 765 l 85 774 q 151 970 89 897 q 315 1043 214 1043 q 481 970 418 1043 q 546 774 543 897 l 447 765 q 408 892 442 847 q 315 938 374 938 q 223 892 257 938 q 183 765 189 847 z "},"ṟ":{"ha":544,"x_min":-40,"x_max":538,"o":"m 90 0 l 90 679 l 260 679 l 260 560 q 474 693 310 681 l 526 697 l 538 550 l 438 540 q 267 365 267 524 l 267 0 l 90 0 m -40 -229 l -40 -126 l 397 -126 l 397 -229 l -40 -229 z "},"s":{"ha":678,"x_min":53,"x_max":629,"o":"m 339 -14 q 178 7 253 -14 q 53 67 103 28 l 97 181 q 213 127 149 146 q 340 108 276 108 q 440 131 407 108 q 472 192 472 154 q 386 267 472 250 l 247 293 q 71 476 71 326 q 108 592 71 543 q 210 667 144 640 q 360 693 275 693 q 499 673 432 693 q 613 613 565 653 l 565 499 q 469 551 525 532 q 361 571 413 571 q 260 547 293 571 q 228 485 228 524 q 307 410 228 424 l 446 383 q 583 322 536 367 q 629 203 629 278 q 550 44 629 101 q 339 -14 471 -14 z "},"ś":{"ha":678,"x_min":53,"x_max":629,"o":"m 339 -14 q 178 7 253 -14 q 53 67 103 28 l 97 181 q 213 127 149 146 q 340 108 276 108 q 440 131 407 108 q 472 192 472 154 q 386 267 472 250 l 247 293 q 71 476 71 326 q 108 592 71 543 q 210 667 144 640 q 360 693 275 693 q 499 673 432 693 q 613 613 565 653 l 565 499 q 469 551 525 532 q 361 571 413 571 q 260 547 293 571 q 228 485 228 524 q 307 410 228 424 l 446 383 q 583 322 536 367 q 629 203 629 278 q 550 44 629 101 q 339 -14 471 -14 m 293 769 l 436 1051 l 607 1051 l 410 769 l 293 769 z "},"ṥ":{"ha":678,"x_min":53,"x_max":629,"o":"m 339 -14 q 178 7 253 -14 q 53 67 103 28 l 97 181 q 213 127 149 146 q 340 108 276 108 q 440 131 407 108 q 472 192 472 154 q 386 267 472 250 l 247 293 q 71 476 71 326 q 108 592 71 543 q 210 667 144 640 q 360 693 275 693 q 499 673 432 693 q 613 613 565 653 l 565 499 q 469 551 525 532 q 361 571 413 571 q 260 547 293 571 q 228 485 228 524 q 307 410 228 424 l 446 383 q 583 322 536 367 q 629 203 629 278 q 550 44 629 101 q 339 -14 471 -14 m 193 1044 l 193 1165 l 354 1165 l 354 1044 l 193 1044 m 293 769 l 443 1051 l 614 1051 l 410 769 l 293 769 z "},"š":{"ha":678,"x_min":53,"x_max":629,"o":"m 339 -14 q 178 7 253 -14 q 53 67 103 28 l 97 181 q 213 127 149 146 q 340 108 276 108 q 440 131 407 108 q 472 192 472 154 q 386 267 472 250 l 247 293 q 71 476 71 326 q 108 592 71 543 q 210 667 144 640 q 360 693 275 693 q 499 673 432 693 q 613 613 565 653 l 565 499 q 469 551 525 532 q 361 571 413 571 q 260 547 293 571 q 228 485 228 524 q 307 410 228 424 l 446 383 q 583 322 536 367 q 629 203 629 278 q 550 44 629 101 q 339 -14 471 -14 m 275 769 l 122 1051 l 233 1051 l 351 868 l 469 1051 l 581 1051 l 428 769 l 275 769 z "},"ṧ":{"ha":678,"x_min":53,"x_max":629,"o":"m 339 -14 q 178 7 253 -14 q 53 67 103 28 l 97 181 q 213 127 149 146 q 340 108 276 108 q 440 131 407 108 q 472 192 472 154 q 386 267 472 250 l 247 293 q 71 476 71 326 q 108 592 71 543 q 210 667 144 640 q 360 693 275 693 q 499 673 432 693 q 613 613 565 653 l 565 499 q 469 551 525 532 q 361 571 413 571 q 260 547 293 571 q 228 485 228 524 q 307 410 228 424 l 446 383 q 583 322 536 367 q 629 203 629 278 q 550 44 629 101 q 339 -14 471 -14 m 271 1044 l 271 1167 l 432 1167 l 432 1044 l 271 1044 m 275 769 l 122 990 l 233 990 l 351 865 l 469 990 l 581 990 l 428 769 l 275 769 z "},"ş":{"ha":678,"x_min":53,"x_max":629,"o":"m 339 -14 q 178 7 253 -14 q 53 67 103 28 l 97 181 q 213 127 149 146 q 340 108 276 108 q 440 131 407 108 q 472 192 472 154 q 386 267 472 250 l 247 293 q 71 476 71 326 q 108 592 71 543 q 210 667 144 640 q 360 693 275 693 q 499 673 432 693 q 613 613 565 653 l 565 499 q 469 551 525 532 q 361 571 413 571 q 260 547 293 571 q 228 485 228 524 q 307 410 228 424 l 446 383 q 583 322 536 367 q 629 203 629 278 q 550 44 629 101 q 339 -14 471 -14 m 340 -271 q 263 -263 300 -271 q 199 -242 225 -256 l 224 -164 q 273 -181 249 -175 q 326 -187 297 -187 q 401 -146 401 -187 q 350 -114 401 -114 q 324 -115 336 -114 q 293 -122 311 -117 l 267 -97 l 285 28 l 378 28 l 364 -53 q 379 -51 372 -51 q 471 -78 436 -51 q 506 -151 506 -104 q 460 -238 506 -206 q 340 -271 414 -271 z "},"ŝ":{"ha":678,"x_min":53,"x_max":629,"o":"m 339 -14 q 178 7 253 -14 q 53 67 103 28 l 97 181 q 213 127 149 146 q 340 108 276 108 q 440 131 407 108 q 472 192 472 154 q 386 267 472 250 l 247 293 q 71 476 71 326 q 108 592 71 543 q 210 667 144 640 q 360 693 275 693 q 499 673 432 693 q 613 613 565 653 l 565 499 q 469 551 525 532 q 361 571 413 571 q 260 547 293 571 q 228 485 228 524 q 307 410 228 424 l 446 383 q 583 322 536 367 q 629 203 629 278 q 550 44 629 101 q 339 -14 471 -14 m 122 769 l 275 1051 l 428 1051 l 581 769 l 469 769 l 351 953 l 233 769 l 122 769 z "},"ș":{"ha":678,"x_min":53,"x_max":629,"o":"m 339 -14 q 178 7 253 -14 q 53 67 103 28 l 97 181 q 213 127 149 146 q 340 108 276 108 q 440 131 407 108 q 472 192 472 154 q 386 267 472 250 l 247 293 q 71 476 71 326 q 108 592 71 543 q 210 667 144 640 q 360 693 275 693 q 499 673 432 693 q 613 613 565 653 l 565 499 q 469 551 525 532 q 361 571 413 571 q 260 547 293 571 q 228 485 228 524 q 307 410 228 424 l 446 383 q 583 322 536 367 q 629 203 629 278 q 550 44 629 101 q 339 -14 471 -14 m 350 -386 l 285 -342 q 322 -293 310 -317 q 336 -243 333 -269 l 249 -243 l 249 -101 l 429 -101 l 429 -194 q 411 -299 429 -251 q 350 -386 393 -347 z "},"ṡ":{"ha":678,"x_min":53,"x_max":629,"o":"m 339 -14 q 178 7 253 -14 q 53 67 103 28 l 97 181 q 213 127 149 146 q 340 108 276 108 q 440 131 407 108 q 472 192 472 154 q 386 267 472 250 l 247 293 q 71 476 71 326 q 108 592 71 543 q 210 667 144 640 q 360 693 275 693 q 499 673 432 693 q 613 613 565 653 l 565 499 q 469 551 525 532 q 361 571 413 571 q 260 547 293 571 q 228 485 228 524 q 307 410 228 424 l 446 383 q 583 322 536 367 q 629 203 629 278 q 550 44 629 101 q 339 -14 471 -14 m 267 829 l 267 990 l 436 990 l 436 829 l 267 829 z "},"ṣ":{"ha":678,"x_min":53,"x_max":629,"o":"m 339 -14 q 178 7 253 -14 q 53 67 103 28 l 97 181 q 213 127 149 146 q 340 108 276 108 q 440 131 407 108 q 472 192 472 154 q 386 267 472 250 l 247 293 q 71 476 71 326 q 108 592 71 543 q 210 667 144 640 q 360 693 275 693 q 499 673 432 693 q 613 613 565 653 l 565 499 q 469 551 525 532 q 361 571 413 571 q 260 547 293 571 q 228 485 228 524 q 307 410 228 424 l 446 383 q 583 322 536 367 q 629 203 629 278 q 550 44 629 101 q 339 -14 471 -14 m 254 -283 l 254 -122 l 424 -122 l 424 -283 l 254 -283 z "},"ṩ":{"ha":678,"x_min":53,"x_max":629,"o":"m 339 -14 q 178 7 253 -14 q 53 67 103 28 l 97 181 q 213 127 149 146 q 340 108 276 108 q 440 131 407 108 q 472 192 472 154 q 386 267 472 250 l 247 293 q 71 476 71 326 q 108 592 71 543 q 210 667 144 640 q 360 693 275 693 q 499 673 432 693 q 613 613 565 653 l 565 499 q 469 551 525 532 q 361 571 413 571 q 260 547 293 571 q 228 485 228 524 q 307 410 228 424 l 446 383 q 583 322 536 367 q 629 203 629 278 q 550 44 629 101 q 339 -14 471 -14 m 254 -283 l 254 -122 l 424 -122 l 424 -283 l 254 -283 m 267 829 l 267 990 l 436 990 l 436 829 l 267 829 z "},"ß":{"ha":907,"x_min":90,"x_max":876,"o":"m 606 -14 q 458 9 531 -14 q 333 74 385 32 l 383 190 q 497 134 436 153 q 608 115 557 115 q 689 137 660 115 q 718 197 718 158 q 690 251 718 229 q 586 294 661 272 q 432 374 476 328 q 388 488 388 419 q 408 573 388 532 q 488 669 428 614 q 538 730 524 704 q 553 785 553 756 q 526 844 553 822 q 446 867 499 867 q 310 814 357 867 q 264 664 264 761 l 264 0 l 90 0 l 90 638 q 183 901 90 808 q 447 993 275 993 q 646 941 575 993 q 717 800 717 889 q 696 710 717 751 q 622 619 675 668 q 563 555 578 578 q 547 508 547 532 q 576 458 547 479 q 683 413 604 436 q 831 332 786 382 q 876 207 876 282 q 803 47 876 107 q 606 -14 729 -14 z "},"t":{"ha":533,"x_min":1,"x_max":539,"o":"m 401 -14 q 132 253 132 -14 l 132 549 l 1 549 l 1 679 l 132 679 l 132 882 l 306 882 l 306 679 l 511 679 l 511 549 l 306 549 l 306 263 q 335 163 306 196 q 429 129 364 129 q 469 134 449 129 q 513 144 490 139 l 539 17 q 476 -6 514 3 q 401 -14 438 -14 z "},"ŧ":{"ha":533,"x_min":1,"x_max":539,"o":"m 401 -14 q 132 253 132 -14 l 132 549 l 1 549 l 1 679 l 132 679 l 132 882 l 306 882 l 306 679 l 511 679 l 511 549 l 306 549 l 306 263 q 335 163 306 196 q 429 129 364 129 q 469 134 449 129 q 513 144 490 139 l 539 17 q 476 -6 514 3 q 401 -14 438 -14 m 36 310 l 36 415 l 463 415 l 463 310 l 36 310 z "},"ť":{"ha":533,"x_min":1,"x_max":539,"o":"m 401 -14 q 132 253 132 -14 l 132 549 l 1 549 l 1 679 l 132 679 l 132 882 l 306 882 l 306 679 l 511 679 l 511 549 l 306 549 l 306 263 q 335 163 306 196 q 429 129 364 129 q 469 134 449 129 q 513 144 490 139 l 539 17 q 476 -6 514 3 q 401 -14 438 -14 m 382 738 l 382 979 l 499 979 l 463 738 l 382 738 z "},"ţ":{"ha":533,"x_min":1,"x_max":539,"o":"m 401 -14 q 132 253 132 -14 l 132 549 l 1 549 l 1 679 l 132 679 l 132 882 l 306 882 l 306 679 l 511 679 l 511 549 l 306 549 l 306 263 q 335 163 306 196 q 429 129 364 129 q 469 134 449 129 q 513 144 490 139 l 539 17 q 476 -6 514 3 q 401 -14 438 -14 m 321 -271 q 243 -263 281 -271 q 179 -242 206 -256 l 204 -164 q 253 -181 229 -175 q 307 -187 278 -187 q 382 -146 382 -187 q 331 -114 382 -114 q 304 -115 317 -114 q 274 -122 292 -117 l 247 -97 l 265 28 l 358 28 l 344 -53 q 360 -51 353 -51 q 451 -78 417 -51 q 486 -151 486 -104 q 440 -238 486 -206 q 321 -271 394 -271 z "},"ț":{"ha":533,"x_min":1,"x_max":539,"o":"m 401 -14 q 132 253 132 -14 l 132 549 l 1 549 l 1 679 l 132 679 l 132 882 l 306 882 l 306 679 l 511 679 l 511 549 l 306 549 l 306 263 q 335 163 306 196 q 429 129 364 129 q 469 134 449 129 q 513 144 490 139 l 539 17 q 476 -6 514 3 q 401 -14 438 -14 m 331 -386 l 265 -342 q 302 -293 290 -317 q 317 -243 314 -269 l 229 -243 l 229 -101 l 410 -101 l 410 -194 q 392 -299 410 -251 q 331 -386 374 -347 z "},"ẗ":{"ha":533,"x_min":1,"x_max":539,"o":"m 401 -14 q 132 253 132 -14 l 132 549 l 1 549 l 1 679 l 132 679 l 132 882 l 306 882 l 306 679 l 511 679 l 511 549 l 306 549 l 306 263 q 335 163 306 196 q 429 129 364 129 q 469 134 449 129 q 513 144 490 139 l 539 17 q 476 -6 514 3 q 401 -14 438 -14 m 269 1000 l 269 1160 l 431 1160 l 431 1000 l 269 1000 m 8 1000 l 8 1160 l 169 1160 l 169 1000 l 8 1000 z "},"ṭ":{"ha":533,"x_min":1,"x_max":539,"o":"m 401 -14 q 132 253 132 -14 l 132 549 l 1 549 l 1 679 l 132 679 l 132 882 l 306 882 l 306 679 l 511 679 l 511 549 l 306 549 l 306 263 q 335 163 306 196 q 429 129 364 129 q 469 134 449 129 q 513 144 490 139 l 539 17 q 476 -6 514 3 q 401 -14 438 -14 m 235 -283 l 235 -122 l 404 -122 l 404 -283 l 235 -283 z "},"ṯ":{"ha":533,"x_min":1,"x_max":539,"o":"m 401 -14 q 132 253 132 -14 l 132 549 l 1 549 l 1 679 l 132 679 l 132 882 l 306 882 l 306 679 l 511 679 l 511 549 l 306 549 l 306 263 q 335 163 306 196 q 429 129 364 129 q 469 134 449 129 q 513 144 490 139 l 539 17 q 476 -6 514 3 q 401 -14 438 -14 m 101 -229 l 101 -126 l 539 -126 l 539 -229 l 101 -229 z "},"u":{"ha":804,"x_min":86,"x_max":714,"o":"m 336 -14 q 86 267 86 -14 l 86 679 l 260 679 l 260 264 q 289 157 260 192 q 382 122 318 122 q 496 170 451 122 q 540 297 540 218 l 540 679 l 714 679 l 714 0 l 544 0 l 544 101 q 336 -14 476 -14 z "},"ú":{"ha":804,"x_min":86,"x_max":714,"o":"m 336 -14 q 86 267 86 -14 l 86 679 l 260 679 l 260 264 q 289 157 260 192 q 382 122 318 122 q 496 170 451 122 q 540 297 540 218 l 540 679 l 714 679 l 714 0 l 544 0 l 544 101 q 336 -14 476 -14 m 343 771 l 486 1053 l 657 1053 l 460 771 l 343 771 z "},"ŭ":{"ha":804,"x_min":86,"x_max":714,"o":"m 336 -14 q 86 267 86 -14 l 86 679 l 260 679 l 260 264 q 289 157 260 192 q 382 122 318 122 q 496 170 451 122 q 540 297 540 218 l 540 679 l 714 679 l 714 0 l 544 0 l 544 101 q 336 -14 476 -14 m 401 767 q 238 839 300 767 q 171 1035 175 911 l 269 1044 q 309 917 275 961 q 401 872 343 872 q 494 917 460 872 q 533 1044 528 961 l 632 1035 q 567 839 629 911 q 401 767 504 767 z "},"ǔ":{"ha":804,"x_min":86,"x_max":714,"o":"m 336 -14 q 86 267 86 -14 l 86 679 l 260 679 l 260 264 q 289 157 260 192 q 382 122 318 122 q 496 170 451 122 q 540 297 540 218 l 540 679 l 714 679 l 714 0 l 544 0 l 544 101 q 336 -14 476 -14 m 325 771 l 172 1053 l 283 1053 l 401 869 l 519 1053 l 631 1053 l 478 771 l 325 771 z "},"û":{"ha":804,"x_min":86,"x_max":714,"o":"m 336 -14 q 86 267 86 -14 l 86 679 l 260 679 l 260 264 q 289 157 260 192 q 382 122 318 122 q 496 170 451 122 q 540 297 540 218 l 540 679 l 714 679 l 714 0 l 544 0 l 544 101 q 336 -14 476 -14 m 172 771 l 325 1053 l 478 1053 l 631 771 l 519 771 l 401 954 l 283 771 l 172 771 z "},"ȕ":{"ha":804,"x_min":86,"x_max":714,"o":"m 336 -14 q 86 267 86 -14 l 86 679 l 260 679 l 260 264 q 289 157 260 192 q 382 122 318 122 q 496 170 451 122 q 540 297 540 218 l 540 679 l 714 679 l 714 0 l 544 0 l 544 101 q 336 -14 476 -14 m 461 771 l 339 1053 l 485 1053 l 553 771 l 461 771 m 256 771 l 132 1053 l 278 1053 l 347 771 l 256 771 z "},"ü":{"ha":804,"x_min":86,"x_max":714,"o":"m 336 -14 q 86 267 86 -14 l 86 679 l 260 679 l 260 264 q 289 157 260 192 q 382 122 318 122 q 496 170 451 122 q 540 297 540 218 l 540 679 l 714 679 l 714 0 l 544 0 l 544 101 q 336 -14 476 -14 m 451 831 l 451 990 l 613 990 l 613 831 l 451 831 m 190 831 l 190 990 l 351 990 l 351 831 l 190 831 z "},"ụ":{"ha":804,"x_min":86,"x_max":714,"o":"m 336 -14 q 86 267 86 -14 l 86 679 l 260 679 l 260 264 q 289 157 260 192 q 382 122 318 122 q 496 170 451 122 q 540 297 540 218 l 540 679 l 714 679 l 714 0 l 544 0 l 544 101 q 336 -14 476 -14 m 317 -283 l 317 -122 l 486 -122 l 486 -283 l 317 -283 z "},"ù":{"ha":804,"x_min":86,"x_max":714,"o":"m 336 -14 q 86 267 86 -14 l 86 679 l 260 679 l 260 264 q 289 157 260 192 q 382 122 318 122 q 496 170 451 122 q 540 297 540 218 l 540 679 l 714 679 l 714 0 l 544 0 l 544 101 q 336 -14 476 -14 m 343 771 l 147 1053 l 318 1053 l 460 771 l 343 771 z "},"ủ":{"ha":804,"x_min":86,"x_max":714,"o":"m 336 -14 q 86 267 86 -14 l 86 679 l 260 679 l 260 264 q 289 157 260 192 q 382 122 318 122 q 496 170 451 122 q 540 297 540 218 l 540 679 l 714 679 l 714 0 l 544 0 l 544 101 q 336 -14 476 -14 m 349 771 l 349 800 q 360 849 349 829 q 388 882 372 868 q 415 910 403 896 q 426 942 426 924 q 371 976 426 976 q 288 956 328 976 l 261 1031 q 410 1064 319 1064 q 519 1038 479 1064 q 558 964 558 1013 q 542 908 558 929 q 506 871 526 886 q 470 838 486 856 q 454 793 454 821 l 454 771 l 349 771 z "},"ư":{"ha":804,"x_min":86,"x_max":871,"o":"m 336 -14 q 86 267 86 -14 l 86 679 l 260 679 l 260 264 q 289 157 260 192 q 382 122 318 122 q 496 170 451 122 q 540 297 540 218 l 540 679 l 714 679 l 714 0 l 544 0 l 544 101 q 336 -14 476 -14 m 683 590 l 585 653 l 585 679 q 690 712 658 681 q 721 826 721 743 l 721 856 l 871 856 l 871 804 q 820 657 871 715 q 683 590 769 599 z "},"ứ":{"ha":804,"x_min":86,"x_max":871,"o":"m 336 -14 q 86 267 86 -14 l 86 679 l 260 679 l 260 264 q 289 157 260 192 q 382 122 318 122 q 496 170 451 122 q 540 297 540 218 l 540 679 l 714 679 l 714 0 l 544 0 l 544 101 q 336 -14 476 -14 m 683 590 l 585 653 l 585 679 q 690 712 658 681 q 721 826 721 743 l 721 856 l 871 856 l 871 804 q 820 657 871 715 q 683 590 769 599 m 343 769 l 486 1051 l 657 1051 l 460 769 l 343 769 z "},"ự":{"ha":804,"x_min":86,"x_max":871,"o":"m 336 -14 q 86 267 86 -14 l 86 679 l 260 679 l 260 264 q 289 157 260 192 q 382 122 318 122 q 496 170 451 122 q 540 297 540 218 l 540 679 l 714 679 l 714 0 l 544 0 l 544 101 q 336 -14 476 -14 m 683 590 l 585 653 l 585 679 q 690 712 658 681 q 721 826 721 743 l 721 856 l 871 856 l 871 804 q 820 657 871 715 q 683 590 769 599 m 317 -283 l 317 -122 l 486 -122 l 486 -283 l 317 -283 z "},"ừ":{"ha":804,"x_min":86,"x_max":871,"o":"m 336 -14 q 86 267 86 -14 l 86 679 l 260 679 l 260 264 q 289 157 260 192 q 382 122 318 122 q 496 170 451 122 q 540 297 540 218 l 540 679 l 714 679 l 714 0 l 544 0 l 544 101 q 336 -14 476 -14 m 683 590 l 585 653 l 585 679 q 690 712 658 681 q 721 826 721 743 l 721 856 l 871 856 l 871 804 q 820 657 871 715 q 683 590 769 599 m 343 769 l 147 1051 l 318 1051 l 460 769 l 343 769 z "}}}
